<svg width="24" height="24" viewBox="0 0 24 24" fill="none" xmlns="http://www.w3.org/2000/svg">
<rect width="24" height="24" fill="white" fill-opacity="0.01"/>
<path fill-rule="evenodd" clip-rule="evenodd" d="M8.69095 14.932C8.50695 15.478 8.35495 15.729 7.97195 15.943C7.12095 16.421 6.43195 16.242 5.93895 15.411C5.44095 14.574 5.62895 13.891 6.48595 13.411C6.87395 13.193 7.15895 13.194 7.73695 13.311C7.81495 13.328 7.87595 13.34 7.92695 13.349L6.49295 10.935C6.47017 10.8968 6.45526 10.8544 6.44912 10.8104C6.44298 10.7663 6.44572 10.7215 6.45718 10.6786C6.46865 10.6356 6.4886 10.5953 6.51587 10.5602C6.54314 10.5251 6.57717 10.4958 6.61595 10.474L8.63995 9.339C8.68558 9.31318 8.73666 9.29851 8.78904 9.29616C8.84141 9.29382 8.8936 9.30387 8.94136 9.32551C8.98911 9.34714 9.03108 9.37975 9.06385 9.42067C9.09663 9.46159 9.11927 9.50967 9.12995 9.561C9.15295 9.674 9.19495 9.781 9.25695 9.886C9.69595 10.623 10.263 10.771 11.026 10.343C11.783 9.918 11.932 9.381 11.496 8.649C11.4361 8.54684 11.3597 8.45527 11.27 8.378C11.2291 8.34313 11.1973 8.2989 11.1773 8.24908C11.1572 8.19926 11.1495 8.14533 11.1549 8.0919C11.1602 8.03846 11.1783 7.9871 11.2077 7.94219C11.2372 7.89729 11.2771 7.86017 11.324 7.834L13.347 6.699C13.4228 6.65622 13.5123 6.64482 13.5964 6.66725C13.6805 6.68968 13.7525 6.74415 13.797 6.819L15.244 9.256C15.263 9.206 15.284 9.146 15.31 9.069C15.494 8.523 15.646 8.272 16.029 8.057C16.88 7.58 17.569 7.759 18.062 8.59C18.56 9.427 18.372 10.11 17.515 10.59C17.255 10.736 16.994 10.783 16.699 10.759C16.5526 10.7453 16.4073 10.7219 16.264 10.689C16.2008 10.6758 16.1374 10.6635 16.074 10.652L17.508 13.065C17.603 13.225 17.548 13.434 17.384 13.525L15.274 14.709C15.224 14.7371 15.1677 14.7518 15.1105 14.7517C15.0532 14.7517 14.997 14.7368 14.9471 14.7087C14.8972 14.6805 14.8555 14.64 14.8258 14.591C14.7962 14.542 14.7797 14.4862 14.778 14.429C14.7734 14.2488 14.7217 14.0729 14.628 13.919C14.19 13.181 13.623 13.033 12.86 13.461C12.102 13.886 11.954 14.424 12.389 15.155C12.489 15.323 12.614 15.445 12.773 15.541C12.8229 15.5711 12.8642 15.6137 12.8925 15.6647C12.9208 15.7157 12.9352 15.7733 12.9343 15.8316C12.9334 15.8899 12.9172 15.947 12.8873 15.9971C12.8574 16.0472 12.8149 16.0885 12.764 16.117L10.654 17.301C10.5782 17.3435 10.4889 17.3547 10.4051 17.3323C10.3212 17.3099 10.2494 17.2556 10.205 17.181L8.75795 14.745C8.73895 14.795 8.71795 14.855 8.69195 14.932H8.69095Z" fill="#42526E"/>
</svg>
