<svg width="24" height="24" viewBox="0 0 24 24" fill="none" xmlns="http://www.w3.org/2000/svg">
    <rect width="24" height="24" fill="white" fill-opacity="0.01"/>
    <path fill-rule="evenodd" clip-rule="evenodd" d="M12.207 5.79298C12.2999 5.88577 12.3737 5.99597 12.424 6.11729C12.4743 6.2386 12.5002 6.36865 12.5002 6.49998C12.5002 6.63131 12.4743 6.76136 12.424 6.88267C12.3737 7.00399 12.2999 7.11419 12.207 7.20698L8.414 11H18C18.2652 11 18.5196 11.1053 18.7071 11.2929C18.8946 11.4804 19 11.7348 19 12C19 12.2652 18.8946 12.5196 18.7071 12.7071C18.5196 12.8946 18.2652 13 18 13H8.414L12.207 16.793C12.2999 16.8858 12.3737 16.996 12.424 17.1173C12.4743 17.2386 12.5002 17.3686 12.5002 17.5C12.5002 17.6313 12.4743 17.7614 12.424 17.8827C12.3737 18.004 12.2999 18.1142 12.207 18.207C11.817 18.597 11.183 18.597 10.792 18.207L5.293 12.707C5.1119 12.5266 5.00701 12.2835 5 12.028V11.971C5.00716 11.7158 5.11205 11.4731 5.293 11.293L10.792 5.79298C10.8849 5.70001 10.9952 5.62625 11.1166 5.57592C11.238 5.5256 11.3681 5.49969 11.4995 5.49969C11.6309 5.49969 11.761 5.5256 11.8824 5.57592C12.0038 5.62625 12.1141 5.70001 12.207 5.79298Z" fill="#42526E"/>
</svg>
