<svg width="255" height="144" viewBox="0 0 255 144" fill="none" xmlns="http://www.w3.org/2000/svg">
    <g clip-path="url(#clip0_1088_201)">
        <rect width="253.8" height="142.3" transform="translate(0.400024 0.900391)" fill="white" fill-opacity="0.01"/>
        <path d="M254.2 84.2004C254.2 65.7004 239.2 50.7004 220.7 50.7004C215.2 50.7004 210 52.0004 205.5 54.4004C202.8 24.4004 177.7 0.900391 147.1 0.900391C120.3 0.900391 97.8 18.9004 90.8 43.4004C86.6 41.8004 82 40.9004 77.2 40.9004C56 40.9004 38.8 58.1004 38.8 79.3004C38.8 86.2004 36.9 92.8004 33.7 98.4004H33.3V99.1004C26.6 110.3 14.4 117.7 0.400024 117.7H141.7C143.5 117.9 145.3 118 147.1 118C148.9 118 150.7 117.9 152.5 117.7H222.9V117.6C240.3 116.5 254.2 102 254.2 84.2004Z" fill="url(#paint0_linear_1088_201)"/>
        <path opacity="0.5" d="M172.2 92.9C171 92.9 169.8 93 168.6 93.2C164.6 74.5 148 60.5 128.2 60.5C108.2 60.5 91.6001 74.7 87.7001 93.5C85.9001 93.1 84.1001 92.9 82.3001 92.9C68.5001 92.9 57.4001 104 57.2001 117.7H141.7C143.5 117.9 145.3 118 147.1 118C148.9 118 150.7 117.9 152.5 117.7H197.4C197.2 104 186 92.9 172.2 92.9Z" fill="#008DA6"/>
        <path d="M204.6 92.9C203.4 92.9 202.2 93 201 93.2C197 74.5 180.4 60.5 160.6 60.5C154.9 60.5 149.4 61.7 144.4 63.8C132.1 69 122.8 80.1 120.1 93.5C118.3 93.1 116.5 92.9 114.7 92.9C100.9 92.9 89.8 104 89.6 117.7C89.6 117.8 89.6 117.9 89.6 118C89.6 131.9 100.9 143.1 114.7 143.1H204.6C218.5 143.1 229.7 131.8 229.7 118C229.7 117.5 229.7 116.9 229.6 116.4C228.9 103.3 218 92.9 204.6 92.9Z" fill="#0065FF"/>
    </g>
    <defs>
        <linearGradient id="paint0_linear_1088_201" x1="0.400024" y1="59.4419" x2="254.163" y2="59.4419" gradientUnits="userSpaceOnUse">
            <stop stop-color="#008DA6"/>
            <stop offset="1" stop-color="#B3F5FF"/>
        </linearGradient>
        <clipPath id="clip0_1088_201">
            <rect width="253.8" height="142.3" fill="white" transform="translate(0.400024 0.900391)"/>
        </clipPath>
    </defs>
</svg>
