<svg width="601" height="325" viewBox="0 0 601 325" fill="none" xmlns="http://www.w3.org/2000/svg">
    <g clip-path="url(#clip0_1375_10)">
        <rect width="600.49" height="324.08" transform="translate(0.320068)" fill="transparent" fill-opacity="0.01"/>
        <path opacity="0.15" d="M205.7 290.01L86.5301 322.38H0.320068L130.39 290.01H205.7Z" fill="url(#paint0_linear_1375_10)"/>
        <path opacity="0.15" d="M395.43 290.01L514.6 322.38H600.81L470.74 290.01H395.43Z" fill="url(#paint1_linear_1375_10)"/>
        <path opacity="0.15" d="M342.7 296.919C359.838 296.919 373.73 294.426 373.73 291.349C373.73 288.273 359.838 285.779 342.7 285.779C325.563 285.779 311.67 288.273 311.67 291.349C311.67 294.426 325.563 296.919 342.7 296.919Z" fill="url(#paint2_linear_1375_10)"/>
        <path opacity="0.15" d="M212.71 324.079C229.848 324.079 243.74 321.586 243.74 318.509C243.74 315.433 229.848 312.939 212.71 312.939C195.573 312.939 181.68 315.433 181.68 318.509C181.68 321.586 195.573 324.079 212.71 324.079Z" fill="url(#paint3_linear_1375_10)"/>
        <path d="M356.45 296.44C355.91 296.44 355.46 296 355.46 295.45V272.84C355.46 272.3 355.9 271.85 356.45 271.85C357 271.85 357.44 272.29 357.44 272.84V295.45C357.44 295.99 357 296.44 356.45 296.44Z" fill="#A5ADBA"/>
        <path d="M343.22 291.389C342.68 291.389 342.23 290.949 342.23 290.399V270.859C342.23 270.319 342.67 269.869 343.22 269.869C343.77 269.869 344.21 270.309 344.21 270.859V290.399C344.21 290.949 343.77 291.389 343.22 291.389Z" fill="#A5ADBA"/>
        <path d="M370.29 291.389C369.75 291.389 369.3 290.949 369.3 290.399V270.859C369.3 270.319 369.74 269.869 370.29 269.869C370.84 269.869 371.28 270.309 371.28 270.859V290.399C371.28 290.949 370.84 291.389 370.29 291.389Z" fill="#A5ADBA"/>
        <path d="M356.45 274.441C365.336 274.441 372.54 272.788 372.54 270.751C372.54 268.713 365.336 267.061 356.45 267.061C347.564 267.061 340.36 268.713 340.36 270.751C340.36 272.788 347.564 274.441 356.45 274.441Z" fill="#C1C7D0"/>
        <path d="M356.45 274.341C365.336 274.341 372.54 272.689 372.54 270.651C372.54 268.613 365.336 266.961 356.45 266.961C347.564 266.961 340.36 268.613 340.36 270.651C340.36 272.689 347.564 274.341 356.45 274.341Z" fill="#C1C7D0"/>
        <path d="M356.45 274.241C365.336 274.241 372.54 272.589 372.54 270.551C372.54 268.513 365.336 266.861 356.45 266.861C347.564 266.861 340.36 268.513 340.36 270.551C340.36 272.589 347.564 274.241 356.45 274.241Z" fill="#C1C7D0"/>
        <path d="M356.45 274.14C365.336 274.14 372.54 272.488 372.54 270.45C372.54 268.412 365.336 266.76 356.45 266.76C347.564 266.76 340.36 268.412 340.36 270.45C340.36 272.488 347.564 274.14 356.45 274.14Z" fill="#C1C7D0"/>
        <path d="M356.45 274.03C365.336 274.03 372.54 272.378 372.54 270.34C372.54 268.302 365.336 266.65 356.45 266.65C347.564 266.65 340.36 268.302 340.36 270.34C340.36 272.378 347.564 274.03 356.45 274.03Z" fill="#C1C7D0"/>
        <path d="M356.45 273.931C365.336 273.931 372.54 272.279 372.54 270.241C372.54 268.203 365.336 266.551 356.45 266.551C347.564 266.551 340.36 268.203 340.36 270.241C340.36 272.279 347.564 273.931 356.45 273.931Z" fill="#C1C7D0"/>
        <path d="M356.45 273.831C365.336 273.831 372.54 272.179 372.54 270.141C372.54 268.103 365.336 266.451 356.45 266.451C347.564 266.451 340.36 268.103 340.36 270.141C340.36 272.179 347.564 273.831 356.45 273.831Z" fill="#C1C7D0"/>
        <path d="M356.45 273.73C365.336 273.73 372.54 272.078 372.54 270.04C372.54 268.002 365.336 266.35 356.45 266.35C347.564 266.35 340.36 268.002 340.36 270.04C340.36 272.078 347.564 273.73 356.45 273.73Z" fill="#C1C7D0"/>
        <path d="M356.45 273.63C365.336 273.63 372.54 271.978 372.54 269.94C372.54 267.902 365.336 266.25 356.45 266.25C347.564 266.25 340.36 267.902 340.36 269.94C340.36 271.978 347.564 273.63 356.45 273.63Z" fill="#C1C7D0"/>
        <path d="M356.45 273.521C365.336 273.521 372.54 271.869 372.54 269.831C372.54 267.793 365.336 266.141 356.45 266.141C347.564 266.141 340.36 267.793 340.36 269.831C340.36 271.869 347.564 273.521 356.45 273.521Z" fill="#C1C7D0"/>
        <path d="M356.45 273.421C365.336 273.421 372.54 271.769 372.54 269.731C372.54 267.693 365.336 266.041 356.45 266.041C347.564 266.041 340.36 267.693 340.36 269.731C340.36 271.769 347.564 273.421 356.45 273.421Z" fill="#C1C7D0"/>
        <path d="M356.45 273.321C365.336 273.321 372.54 271.669 372.54 269.631C372.54 267.593 365.336 265.941 356.45 265.941C347.564 265.941 340.36 267.593 340.36 269.631C340.36 271.669 347.564 273.321 356.45 273.321Z" fill="#C1C7D0"/>
        <path d="M356.45 273.22C365.336 273.22 372.54 271.568 372.54 269.53C372.54 267.492 365.336 265.84 356.45 265.84C347.564 265.84 340.36 267.492 340.36 269.53C340.36 271.568 347.564 273.22 356.45 273.22Z" fill="#C1C7D0"/>
        <path d="M356.45 273.11C365.336 273.11 372.54 271.458 372.54 269.42C372.54 267.383 365.336 265.73 356.45 265.73C347.564 265.73 340.36 267.383 340.36 269.42C340.36 271.458 347.564 273.11 356.45 273.11Z" fill="#C1C7D0"/>
        <path d="M356.45 273.011C365.336 273.011 372.54 271.359 372.54 269.321C372.54 267.283 365.336 265.631 356.45 265.631C347.564 265.631 340.36 267.283 340.36 269.321C340.36 271.359 347.564 273.011 356.45 273.011Z" fill="#C1C7D0"/>
        <path d="M356.45 272.911C365.336 272.911 372.54 271.259 372.54 269.221C372.54 267.183 365.336 265.531 356.45 265.531C347.564 265.531 340.36 267.183 340.36 269.221C340.36 271.259 347.564 272.911 356.45 272.911Z" fill="#C1C7D0"/>
        <path d="M356.45 272.81C365.336 272.81 372.54 271.158 372.54 269.12C372.54 267.082 365.336 265.43 356.45 265.43C347.564 265.43 340.36 267.082 340.36 269.12C340.36 271.158 347.564 272.81 356.45 272.81Z" fill="#C1C7D0"/>
        <path d="M356.45 272.71C365.336 272.71 372.54 271.058 372.54 269.02C372.54 266.982 365.336 265.33 356.45 265.33C347.564 265.33 340.36 266.982 340.36 269.02C340.36 271.058 347.564 272.71 356.45 272.71Z" fill="#C1C7D0"/>
        <path d="M356.45 272.601C365.336 272.601 372.54 270.949 372.54 268.911C372.54 266.873 365.336 265.221 356.45 265.221C347.564 265.221 340.36 266.873 340.36 268.911C340.36 270.949 347.564 272.601 356.45 272.601Z" fill="#C1C7D0"/>
        <path d="M356.45 272.501C365.336 272.501 372.54 270.849 372.54 268.811C372.54 266.773 365.336 265.121 356.45 265.121C347.564 265.121 340.36 266.773 340.36 268.811C340.36 270.849 347.564 272.501 356.45 272.501Z" fill="#C1C7D0"/>
        <path d="M356.45 272.4C365.336 272.4 372.54 270.747 372.54 268.71C372.54 266.672 365.336 265.02 356.45 265.02C347.564 265.02 340.36 266.672 340.36 268.71C340.36 270.747 347.564 272.4 356.45 272.4Z" fill="#C1C7D0"/>
        <path d="M356.45 272.3C365.336 272.3 372.54 270.648 372.54 268.61C372.54 266.572 365.336 264.92 356.45 264.92C347.564 264.92 340.36 266.572 340.36 268.61C340.36 270.648 347.564 272.3 356.45 272.3Z" fill="#C1C7D0"/>
        <path d="M356.45 272.191C365.336 272.191 372.54 270.538 372.54 268.501C372.54 266.463 365.336 264.811 356.45 264.811C347.564 264.811 340.36 266.463 340.36 268.501C340.36 270.538 347.564 272.191 356.45 272.191Z" fill="#C1C7D0"/>
        <path d="M356.45 272.091C365.336 272.091 372.54 270.439 372.54 268.401C372.54 266.363 365.336 264.711 356.45 264.711C347.564 264.711 340.36 266.363 340.36 268.401C340.36 270.439 347.564 272.091 356.45 272.091Z" fill="#C1C7D0"/>
        <path d="M356.45 271.991C365.336 271.991 372.54 270.339 372.54 268.301C372.54 266.263 365.336 264.611 356.45 264.611C347.564 264.611 340.36 266.263 340.36 268.301C340.36 270.339 347.564 271.991 356.45 271.991Z" fill="#C1C7D0"/>
        <path d="M356.45 271.89C365.336 271.89 372.54 270.238 372.54 268.2C372.54 266.162 365.336 264.51 356.45 264.51C347.564 264.51 340.36 266.162 340.36 268.2C340.36 270.238 347.564 271.89 356.45 271.89Z" fill="#C1C7D0"/>
        <path d="M356.45 271.79C365.336 271.79 372.54 270.138 372.54 268.1C372.54 266.062 365.336 264.41 356.45 264.41C347.564 264.41 340.36 266.062 340.36 268.1C340.36 270.138 347.564 271.79 356.45 271.79Z" fill="#C1C7D0"/>
        <path d="M356.45 271.681C365.336 271.681 372.54 270.029 372.54 267.991C372.54 265.953 365.336 264.301 356.45 264.301C347.564 264.301 340.36 265.953 340.36 267.991C340.36 270.029 347.564 271.681 356.45 271.681Z" fill="#C1C7D0"/>
        <path d="M356.45 271.581C365.336 271.581 372.54 269.929 372.54 267.891C372.54 265.853 365.336 264.201 356.45 264.201C347.564 264.201 340.36 265.853 340.36 267.891C340.36 269.929 347.564 271.581 356.45 271.581Z" fill="#C1C7D0"/>
        <path d="M356.45 271.48C365.336 271.48 372.54 269.828 372.54 267.79C372.54 265.752 365.336 264.1 356.45 264.1C347.564 264.1 340.36 265.752 340.36 267.79C340.36 269.828 347.564 271.48 356.45 271.48Z" fill="#C1C7D0"/>
        <path d="M356.45 271.38C365.336 271.38 372.54 269.728 372.54 267.69C372.54 265.652 365.336 264 356.45 264C347.564 264 340.36 265.652 340.36 267.69C340.36 269.728 347.564 271.38 356.45 271.38Z" fill="#C1C7D0"/>
        <path d="M356.45 271.271C365.336 271.271 372.54 269.619 372.54 267.581C372.54 265.543 365.336 263.891 356.45 263.891C347.564 263.891 340.36 265.543 340.36 267.581C340.36 269.619 347.564 271.271 356.45 271.271Z" fill="#C1C7D0"/>
        <path d="M356.45 271.171C365.336 271.171 372.54 269.519 372.54 267.481C372.54 265.443 365.336 263.791 356.45 263.791C347.564 263.791 340.36 265.443 340.36 267.481C340.36 269.519 347.564 271.171 356.45 271.171Z" fill="#C1C7D0"/>
        <path d="M356.45 271.071C365.336 271.071 372.54 269.419 372.54 267.381C372.54 265.343 365.336 263.691 356.45 263.691C347.564 263.691 340.36 265.343 340.36 267.381C340.36 269.419 347.564 271.071 356.45 271.071Z" fill="#C1C7D0"/>
        <path d="M356.45 270.97C365.336 270.97 372.54 269.318 372.54 267.28C372.54 265.242 365.336 263.59 356.45 263.59C347.564 263.59 340.36 265.242 340.36 267.28C340.36 269.318 347.564 270.97 356.45 270.97Z" fill="#C1C7D0"/>
        <path d="M356.45 270.86C365.336 270.86 372.54 269.208 372.54 267.17C372.54 265.133 365.336 263.48 356.45 263.48C347.564 263.48 340.36 265.133 340.36 267.17C340.36 269.208 347.564 270.86 356.45 270.86Z" fill="#C1C7D0"/>
        <path d="M356.45 270.86C365.336 270.86 372.54 269.208 372.54 267.17C372.54 265.133 365.336 263.48 356.45 263.48C347.564 263.48 340.36 265.133 340.36 267.17C340.36 269.208 347.564 270.86 356.45 270.86Z" fill="#C1C7D0"/>
        <path d="M396.82 255.63C445.82 266.74 494.82 277.86 543.83 288.97C543.83 205.49 543.83 122.01 543.83 38.5303C494.83 49.6403 445.83 60.7603 396.82 71.8703C396.82 133.13 396.82 194.38 396.82 255.63Z" fill="url(#paint4_linear_1375_10)"/>
        <path d="M436.08 62.9707V115.241H438.12V62.5107C437.44 62.6607 436.76 62.8207 436.08 62.9707Z" fill="#FFAB00"/>
        <path d="M424.61 233.561C430.96 234.581 434.14 235.101 440.49 236.121C440.49 245.171 433.32 251.201 424.61 249.471C415.9 247.751 408.73 239.411 408.73 231.001C408.73 222.591 415.9 216.571 424.61 217.651C424.61 224.011 424.61 227.191 424.61 233.561Z" fill="#FF991F"/>
        <path d="M477.506 94.3819L408.014 104.165L408.3 106.195L477.792 96.4119L477.506 94.3819Z" fill="#FF991F"/>
        <path d="M533.541 78.9211L408.037 98.3252L408.35 100.351L533.854 80.9471L533.541 78.9211Z" fill="#FF991F"/>
        <path d="M533.509 71.3487L408.008 92.501L408.349 94.5225L533.849 73.3702L533.509 71.3487Z" fill="#FF991F"/>
        <path d="M533.457 63.7583L407.967 86.6699L408.333 88.6767L533.824 65.7651L533.457 63.7583Z" fill="#FF991F"/>
        <path d="M408.258 205.675L408.049 207.704L485.536 215.689L485.745 213.66L408.258 205.675Z" fill="#FF991F"/>
        <path d="M408.256 199.808L408.074 201.85L533.573 213.025L533.755 210.983L408.256 199.808Z" fill="#FF991F"/>
        <path d="M408.253 194.013L408.1 196.047L533.597 205.473L533.75 203.439L408.253 194.013Z" fill="#FF991F"/>
        <path d="M408.228 188.208L408.103 190.244L533.594 197.914L533.719 195.878L408.228 188.208Z" fill="#FF991F"/>
        <path d="M427.71 230.81C427.71 224.4 427.71 221.2 427.71 214.79C431.92 215.28 435.96 217.46 438.94 220.92C441.92 224.38 443.59 228.85 443.59 233.26C437.23 232.28 434.06 231.79 427.71 230.81Z" fill="#FFAB00"/>
        <path d="M533.521 97.4713L408.031 112.563L408.275 114.589L533.765 99.4966L533.521 97.4713Z" fill="#FF991F"/>
        <path d="M409.19 113.601H407.15V177.301H409.19V113.601Z" fill="#FF991F"/>
        <path d="M457.84 114.24V132.53C442.51 133.47 427.2 134.4 411.87 135.34V118.86C427.2 117.32 442.51 115.79 457.84 114.24Z" fill="#FFAB00"/>
        <path d="M454.98 142.2H452.94V178.79H454.98V142.2Z" fill="#FF991F"/>
        <path d="M454.98 108.08H452.94V123.9H454.98V108.08Z" fill="#FF991F"/>
        <path d="M481.39 104.91H479.35V179.65H481.39V104.91Z" fill="#FF991F"/>
        <path d="M507.8 160.121H505.75V101.731L507.8 101.721V160.121Z" fill="#FF991F"/>
        <path d="M534.69 98.4902H532.65V181.38H534.69V98.4902Z" fill="#FF991F"/>
        <path d="M454.05 124.921L453.87 122.881C462.67 122.121 471.47 121.371 480.27 120.601L533.57 116.011L533.75 118.051L480.45 122.641C471.65 123.411 462.86 124.171 454.05 124.921Z" fill="#FF991F"/>
        <path d="M454.1 143.22L453.92 141.18C462.78 140.77 471.55 140.36 480.32 139.94L533.62 137.45L533.72 139.49L480.42 141.98C471.64 142.4 462.88 142.81 454.1 143.22Z" fill="#FF991F"/>
        <path d="M408.18 161.83L408.16 159.79C422.86 159.68 437.54 159.58 452.24 159.48L480.36 159.28C489.16 159.22 497.96 159.16 506.76 159.09L506.78 161.13C497.97 161.2 489.18 161.26 480.37 161.32L452.25 161.52C437.56 161.63 422.87 161.72 408.18 161.83Z" fill="#FF991F"/>
        <path d="M408.205 176.254L408.139 178.303L533.636 182.383L533.703 180.334L408.205 176.254Z" fill="#FF991F"/>
        <path d="M407.15 145.41V126.92L454.99 122.8V143.19L407.15 145.41ZM409.19 128.79V143.27L452.94 141.23V125.03L409.19 128.79Z" fill="#FF991F"/>
        <path d="M533.67 159.931V181.381C524.7 181.081 515.74 180.801 506.77 180.511V160.121C515.74 160.051 524.7 159.991 533.67 159.931Z" fill="#FFE380"/>
        <path d="M534.69 182.431L533.63 182.391C524.79 182.101 515.96 181.821 507.12 181.531L505.74 181.491V159.091L534.68 158.891V182.431H534.69ZM507.8 179.521C516.09 179.791 524.36 180.051 532.65 180.321V160.961L507.8 161.131V179.521Z" fill="#FF991F"/>
        <path d="M507.8 181.55L506.75 181.52C498.54 181.26 490.34 181 482.14 180.73L407.16 178.29V143.36L452.95 141.22V125.02L407.16 128.97V112.69L534.7 97.3398V160.95L507.8 161.13V181.55ZM409.19 176.31L482.19 178.69C490.04 178.95 497.89 179.2 505.74 179.45V159.1L532.64 158.92V99.6398L409.19 114.5V126.73L454.98 122.78V143.17L409.19 145.31V176.31Z" fill="#FF991F"/>
        <path d="M446.93 101.011V119.301C431.72 120.841 416.53 122.361 401.32 123.901V107.421C416.53 105.281 431.73 103.151 446.93 101.011Z" fill="url(#paint5_linear_1375_10)"/>
        <path d="M226.85 71.8799V218.88V255.63H373.86V218.88V71.8799H226.85Z" fill="url(#paint6_linear_1375_10)"/>
        <path d="M290.74 186.99C285.14 186.99 280.58 182.43 280.58 176.83V173.27H282.93V176.83C282.93 181.13 286.43 184.64 290.74 184.64V186.99Z" fill="#4C9AFF"/>
        <path d="M300.89 194.79H298.54C298.54 190.49 295.04 186.98 290.73 186.98V184.63C296.34 184.64 300.89 189.19 300.89 194.79Z" fill="#4C9AFF"/>
        <path d="M260.48 186.51C254.88 186.51 250.32 181.95 250.32 176.35V172.79H252.67V176.35C252.67 180.65 256.17 184.16 260.48 184.16V186.51Z" fill="#FFAB00"/>
        <path d="M270.63 194.32H268.28C268.28 190.02 264.78 186.51 260.47 186.51V184.16C266.08 184.16 270.63 188.72 270.63 194.32Z" fill="#FFAB00"/>
        <path d="M281.76 174.44C277.68 174.44 274.37 171.12 274.37 167.05C274.37 162.98 277.69 159.66 281.76 159.66C285.84 159.66 289.15 162.98 289.15 167.05C289.15 171.12 285.83 174.44 281.76 174.44ZM281.76 162.01C278.98 162.01 276.72 164.27 276.72 167.05C276.72 169.83 278.98 172.09 281.76 172.09C284.54 172.09 286.8 169.83 286.8 167.05C286.8 164.27 284.54 162.01 281.76 162.01Z" fill="#4C9AFF"/>
        <path d="M299.72 115.11C306.32 115.11 311.67 109.76 311.67 103.16C311.67 96.5602 306.32 91.21 299.72 91.21C293.12 91.21 287.77 96.5602 287.77 103.16C287.77 109.76 293.12 115.11 299.72 115.11Z" fill="#0065FF"/>
        <path d="M251.5 174.14C247.42 174.14 244.11 170.82 244.11 166.75C244.11 162.68 247.43 159.36 251.5 159.36C255.57 159.36 258.89 162.68 258.89 166.75C258.89 170.82 255.57 174.14 251.5 174.14ZM251.5 161.7C248.72 161.7 246.46 163.96 246.46 166.74C246.46 169.52 248.72 171.78 251.5 171.78C254.28 171.78 256.54 169.52 256.54 166.74C256.54 163.96 254.28 161.7 251.5 161.7Z" fill="#FFAB00"/>
        <path d="M284.59 223.47C275.6 223.47 268.29 216.16 268.29 207.16V141.05H270.64V207.16C270.64 214.85 276.9 221.12 284.6 221.12V223.47H284.59Z" fill="#FFAB00"/>
        <path d="M300.89 237.43H298.54C298.54 229.74 292.28 223.47 284.58 223.47V221.12C293.58 221.12 300.89 228.44 300.89 237.43Z" fill="#FFAB00"/>
        <path d="M314.85 223.47V221.12C322.54 221.12 328.81 214.86 328.81 207.16V187.89H331.16V207.16C331.15 216.16 323.84 223.47 314.85 223.47Z" fill="#36B37E"/>
        <path d="M300.89 237.43H298.54C298.54 228.44 305.85 221.13 314.84 221.13V223.48C307.15 223.47 300.89 229.73 300.89 237.43Z" fill="#36B37E"/>
        <path d="M329.98 176.01C329.33 176.01 328.81 175.48 328.81 174.84V163.09C328.81 162.44 329.34 161.92 329.98 161.92C330.62 161.92 331.15 162.45 331.15 163.09V174.84C331.15 175.49 330.63 176.01 329.98 176.01Z" fill="#36B37E"/>
        <path d="M282.93 160.83H280.58V157.27C280.58 151.67 285.14 147.11 290.74 147.11V149.46C286.44 149.46 282.93 152.96 282.93 157.27V160.83Z" fill="#4C9AFF"/>
        <path d="M290.74 149.46V147.11C295.04 147.11 298.55 143.61 298.55 139.3H300.9C300.89 144.91 296.34 149.46 290.74 149.46Z" fill="#4C9AFF"/>
        <path d="M300.89 120.22H298.54V219.46H300.89V120.22Z" fill="#4C9AFF"/>
        <path d="M300.89 219.47H298.54V255.64H300.89V219.47Z" fill="#4C9AFF"/>
        <path d="M329.98 189.07C325.9 189.07 322.59 185.75 322.59 181.68C322.59 177.61 325.91 174.29 329.98 174.29C334.05 174.29 337.37 177.61 337.37 181.68C337.37 185.75 334.06 189.07 329.98 189.07ZM329.98 176.64C327.2 176.64 324.94 178.9 324.94 181.68C324.94 184.46 327.2 186.72 329.98 186.72C332.76 186.72 335.02 184.46 335.02 181.68C335.02 178.9 332.76 176.64 329.98 176.64Z" fill="#36B37E"/>
        <path d="M269.46 142.23C265.38 142.23 262.07 138.91 262.07 134.84C262.07 130.77 265.39 127.45 269.46 127.45C273.53 127.45 276.85 130.77 276.85 134.84C276.85 138.91 273.54 142.23 269.46 142.23ZM269.46 129.8C266.68 129.8 264.42 132.06 264.42 134.84C264.42 137.62 266.68 139.88 269.46 139.88C272.24 139.88 274.5 137.62 274.5 134.84C274.5 132.06 272.24 129.8 269.46 129.8Z" fill="#FFAB00"/>
        <path d="M299.72 121.4C289.66 121.4 281.48 113.22 281.48 103.16C281.48 93.0999 289.66 84.9199 299.72 84.9199C309.78 84.9199 317.96 93.0999 317.96 103.16C317.96 113.22 309.78 121.4 299.72 121.4ZM299.72 87.2699C290.96 87.2699 283.83 94.3999 283.83 103.16C283.83 111.92 290.96 119.05 299.72 119.05C308.48 119.05 315.61 111.92 315.61 103.16C315.61 94.3999 308.48 87.2699 299.72 87.2699Z" fill="#4C9AFF"/>
        <path d="M56.8901 288.97C105.95 277.84 154.84 266.76 203.9 255.63C203.9 194.33 203.9 133.17 203.9 71.8703C154.84 60.7403 105.95 49.6603 56.8901 38.5303C56.8901 122.05 56.8901 205.46 56.8901 288.97Z" fill="#0065FF"/>
        <path d="M125.73 258.32C111.34 261.14 97.3301 263.88 82.9801 266.69C79.4501 267.37 75.9101 268.08 72.2401 268.79C70.9101 269.05 69.8401 267.92 69.8401 266.26C69.8401 264.27 69.8401 262.31 69.8401 260.38C69.8401 241.97 69.8401 223.64 69.8401 205.27C69.8401 186.63 69.8401 168.05 69.8401 149.4C69.8401 140.22 69.8401 131.03 69.8401 121.79C69.8401 120.14 70.9101 118.88 72.2401 118.99C77.5201 119.42 82.6401 119.86 87.7901 120.29C98.6501 121.2 109.25 122.08 120.14 122.99C129.23 123.61 128.08 123.21 128.13 132.16C128.13 145.72 128.13 159.21 128.13 172.72C128.13 192.85 128.13 212.88 128.13 233.03C128.13 238.44 128.13 243.87 128.13 249.34C128.13 251.25 128.13 253.19 128.13 255.18C128.13 256.66 127.06 258.06 125.73 258.32Z" fill="#FFC400"/>
        <path d="M128.13 206.23C123.32 206.66 118.51 207.1 113.61 207.54C111.64 207.72 109.58 207.9 107.42 208.1C106.42 208.19 105.61 209.22 105.61 210.4C105.61 216.88 105.61 222.25 105.61 228.73C105.61 229.91 106.42 230.76 107.42 230.63C109.58 230.35 111.64 230.08 113.61 229.83C118.54 229.19 123.31 228.57 128.13 227.95C128.13 220.7 128.13 213.46 128.13 206.23Z" fill="#FFAB00"/>
        <path d="M190.54 245.64C172.56 249.16 155.03 252.59 137.05 256.11C135.72 256.37 134.65 255.4 134.65 253.94C134.65 249.99 134.65 246.08 134.65 242.2C134.65 228.72 134.65 215.32 134.65 201.88C134.65 182.61 134.65 163.42 134.65 144.13C134.65 138.39 134.65 132.64 134.65 126.84C134.65 125.38 135.72 124.29 137.05 124.4C140.72 124.7 144.26 125.01 147.79 125.3C162.14 126.5 176.15 127.67 190.54 128.86C191.87 128.97 192.94 130.1 192.94 131.37C192.94 135.29 192.94 139.17 192.94 143.01C192.94 167.19 192.94 191.21 192.94 215.38C192.94 222.53 192.94 229.69 192.94 236.91C192.94 238.85 192.94 240.83 192.94 242.86C192.94 244.14 191.87 245.38 190.54 245.64Z" fill="#4C9AFF"/>
        <path opacity="0.5" d="M161.54 203.22C159.38 203.42 157.32 203.6 155.35 203.78C153.38 203.96 151.5 204.13 149.68 204.29C147.86 204.45 146.11 204.61 144.4 204.77C142.69 204.92 141.02 205.08 139.38 205.22C137.79 205.36 136.22 205.51 134.66 205.65C134.66 205.95 134.66 206.25 134.66 206.55C134.66 208.12 134.66 209.69 134.66 211.28C134.66 212.87 134.66 214.48 134.66 216.1C134.66 217.72 134.66 219.37 134.66 221.03C134.66 222.69 134.66 224.38 134.66 226.08C134.66 226.42 134.66 226.76 134.66 227.1C136.23 226.9 137.8 226.69 139.38 226.49C141.03 226.28 142.69 226.06 144.4 225.84C146.11 225.62 147.86 225.39 149.68 225.16C151.5 224.92 153.38 224.68 155.35 224.43C157.32 224.17 159.38 223.91 161.54 223.63C162.54 223.5 163.35 222.54 163.35 221.48C163.35 219.28 163.35 217.45 163.35 215.74C163.35 214.03 163.35 212.44 163.35 210.73C163.35 209.02 163.35 207.19 163.35 204.99C163.35 203.91 162.54 203.13 161.54 203.22Z" fill="#0065FF"/>
        <path d="M69.9404 109.362L69.7385 111.402L128.022 117.171L128.223 115.132L69.9404 109.362Z" fill="#4C9AFF"/>
        <path d="M134.751 115.787L134.549 117.827L192.832 123.596L193.034 121.556L134.751 115.787Z" fill="#4C9AFF"/>
        <path d="M69.9628 103.701L69.7397 105.739L95.6261 108.572L95.8492 106.535L69.9628 103.701Z" fill="#4C9AFF"/>
        <path d="M134.761 110.797L134.538 112.835L160.425 115.668L160.648 113.63L134.761 110.797Z" fill="#4C9AFF"/>
        <path d="M122.96 147.85C106.81 147.32 91.1401 146.81 74.9901 146.28C74.1101 146.25 73.3901 145.34 73.3901 144.24C73.3901 142.54 73.3901 141.04 73.3901 139.66C73.3901 136.89 73.3901 134.55 73.3901 131.78C73.2601 123.77 73.0801 125.35 80.4801 125.73C94.7701 126.76 108.64 127.76 122.96 128.79C123.84 128.85 124.56 129.71 124.56 130.7C124.56 133.49 124.56 135.81 124.56 138.41C124.55 141.01 124.56 143.32 124.56 146.12C124.56 147.1 123.84 147.88 122.96 147.85Z" fill="#FFF0B2"/>
        <path d="M122.96 170.441C106.81 170.661 91.1401 170.881 74.9901 171.101C74.1101 171.111 73.3901 170.231 73.3901 169.141C73.3901 167.441 73.3901 165.941 73.3901 164.561C73.3901 161.791 73.3901 159.451 73.3901 156.681C73.2601 148.711 73.0701 150.251 80.4801 150.301C94.7701 150.661 108.64 151.021 122.96 151.381C123.84 151.401 124.56 152.221 124.56 153.221C124.56 156.011 124.56 158.331 124.56 160.931C124.55 163.531 124.56 165.841 124.56 168.641C124.56 169.611 123.84 170.421 122.96 170.441Z" fill="#FFF0B2"/>
        <path d="M122.96 193.771C108.65 194.651 94.7701 195.511 80.4801 196.391C78.7301 196.501 76.9101 196.611 74.9901 196.731C74.1101 196.781 73.3901 195.941 73.3901 194.841C73.3901 191.751 73.3901 189.191 73.3901 186.321C73.4001 183.441 73.3901 180.891 73.3901 177.801C73.3901 176.701 74.1101 175.801 74.9901 175.781C76.9101 175.741 78.7301 175.701 80.4801 175.661C94.7701 175.341 108.64 175.031 122.96 174.701C123.84 174.681 124.56 175.471 124.56 176.461C124.57 179.251 124.56 181.571 124.56 184.171C124.55 186.771 124.56 189.081 124.56 191.881C124.56 192.871 123.84 193.721 122.96 193.771Z" fill="#FFAB00"/>
        <path d="M186.93 209.57C174.3 210.94 162.07 212.27 149.48 213.63C146.03 214 142.57 214.38 138.97 214.77C138.09 214.87 137.37 214.16 137.37 213.2C137.37 209.53 137.37 206.86 137.37 203.42C137.39 195.36 136.36 196.55 144.46 195.96C158.75 194.97 172.62 194.01 186.94 193.02C187.82 192.96 188.54 193.61 188.54 194.47C188.54 197.74 188.54 200.13 188.54 203.19C188.54 204.58 188.54 206.06 188.54 207.85C188.53 208.7 187.81 209.47 186.93 209.57Z" fill="#2684FF"/>
        <path d="M187.78 169.551C173.47 169.751 159.59 169.941 145.3 170.131C137.29 170.191 138.21 171.371 138.21 163.271C138.21 159.841 138.21 157.171 138.21 153.501C138.21 152.541 138.93 151.771 139.81 151.801C144.98 151.931 149.97 152.061 155.01 152.191C164.18 152.421 173.09 152.651 182.29 152.891C184.04 152.931 185.86 152.981 187.78 153.031C188.66 153.051 189.38 153.771 189.38 154.631C189.38 159.541 189.38 163.081 189.38 167.981C189.38 168.831 188.66 169.531 187.78 169.551Z" fill="#B2D4FF"/>
        <path d="M187.78 189.12C173.47 189.98 159.59 190.82 145.3 191.68C137.29 192.1 138.21 193.28 138.21 185.15C138.21 181.71 138.21 179.05 138.21 175.38C138.21 174.42 138.93 173.62 139.81 173.6C143.41 173.52 146.87 173.45 150.32 173.38C162.91 173.12 175.14 172.86 187.77 172.59C188.65 172.57 189.37 173.25 189.37 174.11C189.37 177.38 189.37 179.75 189.37 182.81C189.37 184.2 189.37 185.68 189.37 187.46C189.38 188.33 188.66 189.07 187.78 189.12Z" fill="#B2D4FF"/>
        <path d="M187.78 149.97C171.63 149.44 155.96 148.93 139.81 148.4C138.93 148.37 138.21 147.57 138.21 146.6C138.21 142.93 138.21 140.27 138.21 136.83C138.21 135.28 138.21 133.61 138.21 131.61C138.21 130.65 138.93 129.92 139.81 129.98C147.93 130.56 155.77 131.13 163.79 131.71C169.98 132.16 176.02 132.59 182.29 133.04C184.04 133.17 185.86 133.3 187.78 133.43C188.66 133.49 189.38 134.24 189.38 135.1C189.38 140.01 189.38 143.55 189.38 148.45C189.38 149.33 188.66 150 187.78 149.97Z" fill="#B2D4FF"/>
        <path d="M85.5401 136.36C85.5401 137.89 85.0301 139.24 84.2001 140.21C83.3701 141.18 82.2301 141.75 80.9701 141.7C79.7101 141.65 78.5701 140.97 77.7401 139.92C76.9101 138.87 76.4001 137.44 76.4001 135.88C76.4001 134.33 76.9101 132.95 77.7401 131.98C78.5701 131.01 79.7101 130.46 80.9701 130.54C82.2301 130.62 83.3701 131.31 84.2001 132.37C85.0301 133.42 85.5401 134.83 85.5401 136.36Z" fill="#FFC400"/>
        <path d="M85.5401 160.68C85.5401 162.21 85.0301 163.59 84.2001 164.59C83.3701 165.59 82.2301 166.22 80.9701 166.23C79.7101 166.24 78.5701 165.62 77.7401 164.6C76.9101 163.59 76.4001 162.18 76.4001 160.62C76.4001 159.07 76.9101 157.66 77.7401 156.66C78.5701 155.66 79.7101 155.05 80.9701 155.07C82.2301 155.09 83.3701 155.73 84.2001 156.75C85.0301 157.77 85.5401 159.16 85.5401 160.68Z" fill="#FFC400"/>
        <path d="M150.84 139.77C150.84 141.11 150.33 142.29 149.5 143.13C148.67 143.97 147.53 144.47 146.27 144.42C145.01 144.37 143.87 143.77 143.04 142.84C142.21 141.91 141.7 140.65 141.7 139.29C141.7 137.93 142.21 136.72 143.04 135.88C143.87 135.04 145.01 134.56 146.27 134.64C147.53 134.72 148.67 135.34 149.5 136.26C150.33 137.2 150.84 138.44 150.84 139.77Z" fill="#4C9AFF"/>
        <path d="M150.84 161.07C150.84 162.41 150.33 163.61 149.5 164.49C148.67 165.37 147.53 165.92 146.27 165.93C145.01 165.94 143.87 165.39 143.04 164.5C142.21 163.61 141.7 162.38 141.7 161.01C141.7 159.65 142.21 158.42 143.04 157.54C143.87 156.66 145.01 156.13 146.27 156.15C147.53 156.17 148.67 156.73 149.5 157.62C150.33 158.52 150.84 159.73 150.84 161.07Z" fill="#4C9AFF"/>
        <path d="M150.84 182.36C150.84 183.7 150.33 184.93 149.5 185.85C148.67 186.77 147.53 187.37 146.27 187.44C145.01 187.5 143.87 187.01 143.04 186.16C142.21 185.31 141.7 184.1 141.7 182.74C141.7 181.38 142.21 180.12 143.04 179.21C143.87 178.29 145.01 177.71 146.27 177.67C147.53 177.63 148.67 178.14 149.5 178.99C150.33 179.83 150.84 181.02 150.84 182.36Z" fill="#4C9AFF"/>
        <path d="M91.5719 131.026L91.447 133.062L119.743 134.798L119.868 132.761L91.5719 131.026Z" fill="#FFC400"/>
        <path d="M91.5564 135.65L91.4492 137.697L119.74 139.179L119.847 137.132L91.5564 135.65Z" fill="#FFC400"/>
        <path d="M91.5459 140.276L91.4575 142.314L109.351 143.09L109.44 141.052L91.5459 140.276Z" fill="#FFC400"/>
        <path d="M156.041 134.979L155.916 137.015L184.212 138.75L184.337 136.714L156.041 134.979Z" fill="#4C9AFF"/>
        <path d="M156.036 139.028L155.929 141.075L184.219 142.557L184.327 140.51L156.036 139.028Z" fill="#4C9AFF"/>
        <path d="M156.017 143.072L155.929 145.11L173.823 145.886L173.911 143.848L156.017 143.072Z" fill="#4C9AFF"/>
        <path d="M91.5194 154.46L91.4868 156.51L119.784 156.96L119.817 154.91L91.5194 154.46Z" fill="#FFC400"/>
        <path d="M91.5158 159.109L91.5015 161.149L119.801 161.348L119.816 159.308L91.5158 159.109Z" fill="#FFC400"/>
        <path d="M109.398 163.703L91.5083 163.737L91.5122 165.777L109.402 165.743L109.398 163.703Z" fill="#FFC400"/>
        <path d="M156.001 155.497L155.968 157.547L184.265 158L184.298 155.95L156.001 155.497Z" fill="#4C9AFF"/>
        <path d="M155.986 159.562L155.971 161.602L184.271 161.8L184.286 159.76L155.986 159.562Z" fill="#4C9AFF"/>
        <path d="M173.869 163.583L155.979 163.617L155.982 165.657L173.872 165.623L173.869 163.583Z" fill="#4C9AFF"/>
        <path d="M184.237 176.178L155.941 177.069L156.005 179.108L184.301 178.217L184.237 176.178Z" fill="#4C9AFF"/>
        <path d="M184.252 179.969L155.955 181.133L156.039 183.181L184.336 182.017L184.252 179.969Z" fill="#4C9AFF"/>
        <path d="M173.843 184.294L155.945 185.185L156.046 187.232L173.945 186.341L173.843 184.294Z" fill="#4C9AFF"/>
        <path d="M172.1 216.671C161.49 217.891 151.23 219.071 140.71 220.281C135.48 220.881 130.35 221.471 125.02 222.091C123.08 222.311 121.06 222.551 118.94 222.791C117.96 222.901 117.17 222.071 117.17 220.921C117.17 214.631 117.17 209.421 117.17 203.141C117.17 202.001 117.96 201.011 118.94 200.941C121.07 200.781 123.09 200.631 125.02 200.481C133.57 199.831 141.84 199.201 150.33 198.561C157.59 198.011 164.72 197.471 172.11 196.911C173.09 196.841 173.88 197.611 173.88 198.641C173.88 200.771 173.88 202.551 173.88 204.201C173.87 207.861 173.88 210.701 173.88 214.611C173.87 215.641 173.08 216.561 172.1 216.671Z" fill="white"/>
        <path d="M132 210.621C132 212.211 131.43 213.701 130.52 214.831C129.61 215.971 128.34 216.751 126.95 216.901C125.55 217.051 124.29 216.531 123.38 215.571C122.47 214.611 121.9 213.201 121.9 211.581C121.9 209.961 122.47 208.451 123.38 207.311C124.29 206.171 125.56 205.421 126.95 205.301C128.35 205.181 129.61 205.721 130.52 206.681C131.44 207.651 132 209.031 132 210.621Z" fill="#0065FF"/>
        <path d="M138.67 206.31L138.5 205.19L138.48 204.05L169.77 201.34L169.96 203.6L138.67 206.31Z" fill="#0065FF"/>
        <path d="M169.759 205.878L138.4 208.864L138.616 211.124L169.974 208.138L169.759 205.878Z" fill="#0065FF"/>
        <path d="M159.104 211.518L138.387 213.672L138.621 215.93L159.339 213.776L159.104 211.518Z" fill="#0065FF"/>
        <path d="M422.42 18.7197H421.37V104.52H422.42V18.7197Z" fill="#0065FF"/>
        <path d="M375.68 187.11C376.5 188.34 377.37 189.82 378.16 191.55C379.29 194.02 379.95 196.31 380.35 198.19C380.44 198.4 380.53 198.66 380.59 198.97C380.64 199.24 380.67 199.51 380.67 199.78V217.81L378.17 217.77C378.07 216.11 377.94 214.77 377.85 213.87C377.33 208.82 376.69 206.58 376.65 202.36C376.64 201.39 376.67 200.6 376.69 200.11C376.66 199.87 376.6 199.52 376.48 199.11C376.11 197.86 375.47 197.04 375.24 196.74C374.39 195.62 372.54 192.86 370.04 189.09L375.68 187.11Z" fill="#CF9E76"/>
        <path d="M338.34 157.99L338.37 148.25" stroke="#36B37E" stroke-width="1.0467" stroke-miterlimit="10"/>
        <path d="M362.22 252.23C362.22 254.75 362.46 256.73 362.69 258.1C362.89 259.28 363.17 260.61 363.51 262.97C363.64 263.91 363.74 264.68 363.8 265.2C363.51 265.21 363.26 265.22 363.09 265.23C362.37 265.26 362.16 265.25 361.78 265.31C361.59 265.34 361.44 265.39 361.13 265.48C360.76 265.59 360.65 265.65 360.62 265.75C360.61 265.79 360.59 265.9 360.74 266.1C361.26 266.81 362.12 266.76 363.31 267.41C363.89 267.72 363.96 267.88 364.44 268.02C364.76 268.11 365.38 268.3 365.88 268C366.03 267.91 366.64 267.66 366.54 266.67C366.47 265.98 366.41 265.11 366.4 264.12C366.38 262.22 366.57 260.9 366.94 258.2C367.09 257.09 367.36 255.1 367.78 251.98C365.94 252.07 364.08 252.15 362.22 252.23Z" fill="#6C798F"/>
        <path d="M367.73 252.34C368.06 249.68 368.18 246.58 367.82 243.15C367.72 242.16 367.58 241.21 367.42 240.3C368.14 237.71 368.44 235.57 368.59 234.07C368.76 232.32 369.04 228.11 369.06 226.46C369.06 226.25 369.08 225.49 369.2 224.49C369.23 224.27 369.26 224.05 369.32 223.7C369.73 221.39 371.55 211.55 371.07 207.97C370.83 206.16 370.45 204.69 370.16 203.69C370.07 203.29 369.94 202.85 369.77 202.38C369.56 201.82 369.33 201.34 369.11 200.93C368.84 201.02 368.4 201.14 367.85 201.25C367.38 201.34 367.01 201.38 366.81 201.41C365.69 201.57 363.57 201.82 357.83 202.26C357.56 202.6 357.17 203.12 356.75 203.77C355.25 206.14 354.71 208.3 354.48 209.24C350.59 225.24 349.81 231.5 349.81 231.5C349.24 234.67 348.68 237.85 348.11 241.02C348.06 242.85 347.97 244.74 347.86 246.67C347.73 248.86 347.56 250.98 347.36 253.03C349.08 253.23 350.79 253.43 352.51 253.64C352.84 251.75 352.92 250.19 352.92 249.1C352.92 246.91 352.65 245.59 353.06 243.47C353.26 242.44 353.54 241.61 353.76 241.07C354.2 240.25 354.82 239.02 355.43 237.49C356.79 234.1 357.02 232.02 357.65 229.67C358.98 224.69 361.65 220.3 362.3 220.52C363.19 220.81 359.36 229.59 361.63 238.51C361.73 238.89 362.25 240.18 362.42 242C362.58 243.66 362.38 244.78 362.24 246.14C362.1 247.56 362 249.62 362.22 252.22C364.06 252.27 365.89 252.3 367.73 252.34Z" fill="#CF9E76"/>
        <path d="M374.23 187.18C373.27 186.13 372.64 184.99 370.42 184.07C367.83 183 363.53 183.19 359.98 182.97C356.49 182.75 354.65 182.64 352.3 181.66C350.5 180.91 349.5 180.11 346.46 178.81C344.86 178.13 343.51 177.65 342.59 177.36C342.59 176.37 342.54 174.76 342.16 172.83C341.52 169.5 340.5 168.15 339.84 164.9C339.61 163.75 339.34 161.99 339.38 159.74C339.08 159.72 338.66 159.68 338.13 159.6C338.11 159.6 338.04 159.59 337.94 159.57C337.6 159.51 337.11 159.43 336.49 159.28C336.32 161.77 336.25 164.52 336.38 167.49C336.57 171.98 337.16 175.99 337.87 179.41C343.12 184.31 347.36 186.52 350.43 187.62C351.82 188.12 355.06 189.23 356.51 192.1C357 193.06 357.04 193.92 357.12 194.91C357.25 196.53 357.22 199.48 355.59 203.14C357.8 203.36 360.04 203.56 362.3 203.76C365.11 204 367.89 204.22 370.64 204.41C370.53 201.32 370.75 197.17 372.14 192.53C372.76 190.5 373.49 188.72 374.23 187.18Z" fill="#CF9E76"/>
        <path d="M362.43 177.02C362.57 177.14 364.45 178.81 364.08 181.2C363.87 182.61 362.99 183.5 362.67 183.79C365.35 184.13 368.02 184.46 370.7 184.8C370.55 184.64 369.73 183.72 369.8 182.33C369.87 181.07 370.62 180.29 370.8 180.11C368.01 179.09 365.22 178.06 362.43 177.02Z" fill="#B08874"/>
        <path d="M369 168.64C368.09 167.6 365.16 168.09 363.32 169.12C362.57 169.54 361.22 170.3 360.56 171.79C360.09 172.86 360.06 174.09 359.04 174.72C358.75 174.9 358.54 174.93 358.28 175.21C357.8 175.73 357.67 176.58 357.85 177.23C357.93 177.52 358.17 178.1 360.36 179.29C360.49 179.36 360.62 179.43 360.77 179.51C362.2 180.25 363.95 179.81 364.87 178.5C369.53 171.8 369.74 169.49 369 168.64Z" fill="#172B4D"/>
        <path d="M365.82 168.4C364.69 169.33 363.4 171.26 362.84 172.28C362.76 172.46 362.73 172.55 362.33 172.72C361.93 172.89 361.41 172.93 361.48 173.22C361.55 173.51 362.08 173.94 362.12 174.19L361.23 178.09L362.76 178.85L367.94 181.41C367.89 181.19 366.4 175.67 366.44 175.36C366.48 175.05 366.6 174.42 366.26 174.23C365.92 174.04 365.63 170.86 365.5 170.43C365.37 169.99 365.42 169.88 365.57 169.32C365.72 168.75 365.82 168.4 365.82 168.4Z" fill="#CF9E76"/>
        <path d="M365.78 168.43C365.18 170.01 365.37 171.17 365.55 172.2C365.69 172.97 366.2 175.89 364.68 178.28C363.87 179.55 364.42 181.27 365.8 181.88C366.61 182.23 367.35 182.55 368.13 182.66C368.75 182.74 369.78 182.87 370.81 182.49C372.67 181.8 373.45 179.85 373.88 178.75C374.03 178.36 374.8 176.35 374.3 173.83C374.18 173.23 374 172.68 373.86 172.33C373.07 170.38 369.53 167.1 365.78 168.43Z" fill="#172B4D"/>
        <path d="M338.35 154.15C338.2 154.25 338.17 154.15 337.76 154.28C337.69 154.3 337.19 154.47 336.83 154.81C336.43 155.19 336.33 155.65 336.19 156.33C336.12 156.69 335.99 157.36 336.14 158.23C336.21 158.63 336.32 159.25 336.75 159.87C337.33 160.69 338.44 161.44 338.98 161.14C339.27 160.98 339.25 160.59 339.39 159.77C339.67 158.04 340.02 158.11 340.15 156.98C340.29 155.82 339.9 155.9 339.54 153.06C339.4 151.95 339.35 151.09 339.14 151.07C338.99 151.06 338.83 151.49 338.77 151.68C338.33 152.89 338.82 153.82 338.35 154.15Z" fill="#CF9E76"/>
        <path d="M350.43 187.63C353.14 188.95 355.46 190.02 356.51 192.11C356.51 192.11 357.09 193.34 357.12 194.92C357.24 200.83 348.12 229.31 347.35 231.69C349.47 233.12 353.05 235.15 357.91 236.19C363.69 237.44 368.5 236.7 371.15 236.09C371.98 228.65 371.7 222.7 371.67 218.76C371.6 208.69 370.16 203.7 371.75 195.25C372.9 191.54 374.56 188.77 375.67 187.12C375.06 186.34 374.01 185.21 372.41 184.34C371.2 183.69 370.06 183.39 368.51 183.16C364.74 182.6 363.01 183.09 359.97 182.98C356.95 182.86 354.73 182.23 352.87 181.7L350.43 187.63Z" fill="url(#paint7_linear_1375_10)"/>
        <path d="M371.49 232.341C371.55 231.461 371.6 230.611 371.64 229.781C368.41 230.221 364.47 230.551 360.08 229.711C355.69 228.871 352.01 227.541 349.09 226.221C348.84 227.031 348.61 227.761 348.4 228.421C351.36 230.081 355.15 231.571 359.51 232.441C364.09 233.361 368.09 232.941 371.49 232.341Z" fill="#6C798F"/>
        <path d="M360.08 224.35C356.39 223.64 353.2 222.59 350.54 221.49C350.28 222.34 350.03 223.16 349.79 223.95C352.51 225.23 355.81 226.35 359.51 227.09C364.19 228.03 368.26 227.91 371.71 227.48C371.73 226.68 371.74 225.9 371.74 225.16C368.49 225.32 364.53 225.2 360.08 224.35Z" fill="#6C798F"/>
        <path d="M347.5 251.02C347.24 254.39 347.15 257.11 347.11 258.91C347.01 263.1 347.16 264.6 345.99 265.76C344.3 267.43 341.23 267.07 341.23 267.68C341.23 267.99 342.01 268.21 342.37 268.31C343.81 268.72 344.47 268.26 346.19 268.24C348.17 268.22 348.88 268.82 349.54 268.27C350.06 267.84 350.12 267.05 350.08 266.42C350.04 266.14 349.99 265.72 349.97 265.2C349.9 263.36 350.86 260.05 351.17 259.21C351.75 257.63 352.4 255.33 352.68 252.22C350.95 251.81 349.23 251.42 347.5 251.02Z" fill="#6C798F"/>
        <path d="M344.35 266.74C345.1 266.81 345.87 266.8 346.63 266.77C347.16 266.75 347.76 266.36 348.2 266.01C348.67 265.63 349.23 265.4 349.83 265.3C349.89 265.29 349.94 265.28 349.98 265.27C350 265.74 350.05 266.14 350.08 266.4C350.12 267.03 350.06 267.82 349.54 268.25C348.88 268.8 348.17 268.2 346.19 268.22C344.48 268.24 343.81 268.7 342.37 268.29C342.02 268.19 341.23 267.96 341.23 267.66C341.22 267.24 342.82 267.3 344.35 266.74Z" fill="#172B4D"/>
        <path d="M361.78 265.311C361.97 265.261 362.14 265.241 362.55 265.221C362.75 265.211 362.85 265.211 362.98 265.211C363.15 265.211 363.3 265.221 363.44 265.231C363.06 265.301 362.74 265.451 362.73 265.621C362.71 265.801 363.04 265.961 363.5 266.191C363.73 266.311 363.86 266.351 363.98 266.331C364.35 266.291 364.36 265.881 364.82 265.741C364.91 265.711 365.09 265.701 365.46 265.681C365.67 265.671 365.74 265.671 365.88 265.651C366.07 265.621 366.22 265.561 366.46 265.491C366.48 265.921 366.52 266.321 366.55 266.671C366.65 267.661 366.04 267.911 365.89 268.001C365.4 268.301 364.77 268.111 364.45 268.021C363.97 267.881 363.9 267.721 363.32 267.411C362.12 266.761 361.26 266.811 360.75 266.101C360.67 265.991 360.6 265.871 360.63 265.751C360.64 265.681 360.71 265.571 361.78 265.311Z" fill="#172B4D"/>
        <path d="M380.45 216.8L380.52 217.13C380.99 219.48 381.25 221.66 380.67 223.99C380.67 223.99 379.52 225.3 378.86 225.13C378.38 225 378.02 224.59 377.96 224.1L377.54 220.61L377.19 222.41C377.19 222.41 376.82 222.61 376.72 222.52C376.47 222.29 376.56 221.34 376.56 221.34C376.56 219.76 376.88 218.2 377.5 216.75L378.07 215.42L380.45 216.8Z" fill="#CF9E76"/>
        <path d="M502.38 8.47057C501.76 8.72057 503.25 11.2706 502.24 13.9106C501.24 16.5106 498.83 16.5006 498.37 18.9406C498.12 20.2506 498.49 21.9906 499.56 22.5106C500.94 23.1806 502.86 21.5206 503.09 21.3206C505.84 18.9406 506.23 14.2306 504.65 10.9906C503.98 9.59057 502.85 8.28057 502.38 8.47057Z" fill="#253858"/>
        <path d="M501.05 18.1201C500.18 19.6301 499.29 21.3101 498.44 23.1401C497.44 25.2901 496.64 27.3301 495.99 29.2101C495.98 29.2101 491.37 27.9901 491.36 27.9801C489.82 27.6501 488.27 27.3201 486.73 26.7501C486.47 27.3401 485.82 28.1401 485.56 28.7301C488.63 30.4001 491.7 32.0701 494.76 33.7501C494.86 33.8301 495.86 34.5901 497.13 34.2201C498.31 33.8801 498.77 32.8401 498.82 32.7001C500.93 29.3301 503.04 25.9601 505.14 22.5901C505.52 19.1901 504.73 16.7901 503.57 16.5201C502.61 16.3101 501.52 17.5301 501.05 18.1201Z" fill="#C99F9B"/>
        <path d="M503.81 12.0797C503.94 12.6397 504.05 13.3297 504.07 14.1197C504.1 15.3197 503.91 16.3297 503.7 17.0597C504.4 17.2497 505.53 17.4697 506.92 17.3197C508.12 17.1897 509.07 16.8297 509.68 16.5397C509.51 15.8497 509.33 14.7297 509.53 13.3697C509.76 11.7597 510.41 10.5997 510.82 9.96973C508.48 10.6797 506.14 11.3797 503.81 12.0797Z" fill="#E0ADA6"/>
        <path d="M502.18 38.7102C486.78 43.8602 481.54 49.4802 481.4 50.9902C480.74 58.4502 480.09 65.9202 479.43 73.3802H485.09C486.81 69.1702 488.44 64.1102 489.51 58.2802C489.93 55.9702 490.23 53.7602 490.42 51.6802C495.67 50.4902 500.93 49.3002 506.18 48.1102C506.6 47.5902 508.91 44.6202 508.21 40.7902C507.91 39.1402 507.16 37.9202 506.62 37.2002C505.51 37.5602 503.99 38.1002 502.18 38.7102Z" fill="url(#paint8_linear_1375_10)"/>
        <path d="M490.98 70.9098C490.98 63.9598 490.33 57.0898 490.82 50.0798C490.9 48.8798 491.61 47.8098 492.65 47.2098L510.45 37.0498L515.01 37.2598C515.51 37.3498 516.29 37.5598 516.98 38.1598C518.11 39.1398 518.32 40.5498 518.5 41.7098C518.66 42.7498 518.61 43.6298 518.54 44.2098C518.52 44.2198 518.49 44.2198 518.47 44.2298C514.74 45.8498 508.88 48.3998 505.15 50.0298L499.35 53.9798C499.47 55.8798 499.47 58.0898 499.2 60.5298C498.76 64.5798 497.73 67.9398 496.74 70.4598C494.82 70.6098 492.9 70.7598 490.98 70.9098Z" fill="url(#paint9_linear_1375_10)"/>
        <path d="M485.99 26.2398L484.56 24.5698L482.72 24.1098C482.34 24.0998 482.05 24.0198 481.85 23.9398C481.56 23.8298 481.34 23.6698 481.16 23.7698C481.09 23.8098 481.02 23.8898 481.01 23.9798C480.98 24.1498 481.15 24.3098 481.42 24.5398C481.65 24.7398 481.92 24.9598 482.22 25.2098C481.77 25.3698 481.32 25.5398 480.87 25.6998L479.57 25.2698L479.85 26.0398L483.21 27.7398L485.65 28.7798L486.72 26.7698L485.99 26.2398Z" fill="#C99F9B"/>
        <path d="M490.88 75.4204C490.94 75.0404 490.97 74.6404 490.96 74.2404C490.93 72.8804 490.94 71.5204 490.93 70.1704L496.71 70.1504C496.72 72.2704 496.57 74.4704 496.83 76.5804C497 77.9704 497.05 80.7304 495.24 81.0604C494.9 81.1204 494.42 81.1904 493.82 81.1904L493.66 81.8504C493.58 82.1704 492.94 82.6704 492.7 82.9004C492.29 83.3004 491.84 83.6704 491.38 84.0004C490.38 84.7204 489.27 85.3604 488.08 85.6804C487.56 85.8204 487.02 85.9204 486.49 85.8104C486.35 85.7804 484.94 85.1704 485.07 85.0104C486.42 83.4004 487.79 81.8004 488.91 80.0204C489.8 78.5904 490.63 77.0804 490.88 75.4204Z" fill="#344563"/>
        <path d="M471.47 82.1804C474.43 81.2604 476.72 79.0804 479.09 77.1904H479.11L479.71 71.6104L485.34 72.2104L484.64 78.7604C484.49 80.1004 484.31 81.3304 483.87 82.6104C483.84 82.6904 483.81 82.7803 483.76 82.8503C483.32 83.5103 481.81 83.4703 481.17 83.2803C480.79 83.1704 480.49 83.0003 480.26 82.8403C480.1 82.7303 478.25 83.5903 477.97 83.6703C477.13 83.9303 476.26 84.1304 475.39 84.2504C474.2 84.4204 472.99 84.4304 471.79 84.2904C471.25 84.2304 469.26 84.1504 469.19 83.3604C469.12 82.6704 470.99 82.3304 471.47 82.1804Z" fill="#344563"/>
        <path d="M516.18 16.7201C518.13 18.1901 518.15 22.2201 517.61 24.5101C517.35 25.6201 516.91 26.4901 517.1 27.9101C517.26 29.1401 517.73 29.5001 517.72 30.7501C517.71 32.0501 517.21 32.0801 517.13 33.3801C517.03 35.2001 517.97 35.8801 517.53 36.9001C517.35 37.3301 516.9 37.8801 515.67 38.2501C513.83 38.4601 512.26 38.6201 511.05 38.7301C508.58 38.9601 507.79 39.0001 506.86 38.9501C505.43 38.8701 504.24 38.6501 503.35 38.4401C502.92 38.0901 502.37 37.5301 502.14 36.7101C501.9 35.8801 502.15 35.3901 502.28 34.4501C502.6 32.0601 501.4 31.7101 501.55 28.8701C501.61 27.7501 501.81 27.3901 501.57 26.6001C501.3 25.7401 500.84 25.5001 500.47 24.4201C500.37 24.1501 500.14 23.4501 500.15 22.6101C500.17 21.1901 501.04 20.7801 501.33 19.1401C501.44 18.5001 501.42 17.9701 501.4 17.6401C501.73 17.2401 502.05 16.9701 502.28 16.8001C502.94 16.3101 503.39 16.2301 503.65 15.7001C503.69 15.6301 503.72 15.5401 503.8 15.0501C503.92 14.3701 503.97 13.8101 503.99 13.4401C504.99 13.2401 506.3 13.0801 507.82 13.2101C508.62 13.2701 509.33 13.4001 509.95 13.5501C509.96 13.9401 510.04 14.6201 510.49 15.2001C511.75 16.8701 514.37 15.3501 516.18 16.7201Z" fill="url(#paint10_linear_1375_10)"/>
        <path d="M502.13 2.5203C501.41 3.2803 500.99 4.2803 500.94 5.3203L500.91 5.9203C500.91 5.9203 500.94 6.2603 500.11 7.3903C499.86 7.7403 501.21 8.1003 501.21 8.1003C501.15 8.8203 501.23 9.3703 501.32 9.7403C501.37 9.97029 501.41 10.0303 501.52 10.4703C501.75 11.3903 501.71 11.5203 501.82 11.7003C502 12.0003 502.52 12.2703 504.08 12.0603C505.96 11.4403 507.27 11.3903 508.15 11.4803C508.44 11.5103 509.08 11.5903 509.71 11.2603C510.3 10.9503 510.63 10.4003 510.82 9.9703C511.24 9.4803 511.58 8.9103 511.81 8.3003C512.45 6.6003 512.33 4.6703 511.34 3.1503C511.1 2.7803 510.83 2.4403 510.52 2.1303C509.5 1.1103 508.02 0.690296 506.59 0.900296L504.65 1.1903C503.68 1.3403 502.8 1.8103 502.13 2.5203Z" fill="#E0ADA6"/>
        <path d="M500.58 31.7002C490.3 27.7702 479.64 24.7302 468.87 22.6602C451.84 19.3902 434.37 18.5002 416.95 20.0002L416.79 18.1502C434.38 16.6302 452.02 17.5302 469.22 20.8302C480.09 22.9202 490.87 25.9902 501.24 29.9502L500.58 31.7002Z" fill="#0052CC"/>
        <path d="M478.93 23.8405C478.77 23.9305 478.71 24.3505 479.22 25.9105L483.67 27.0305C483.16 26.2805 482.64 25.5305 482.13 24.7905C482.02 24.6605 481.42 23.9105 481.22 24.0205C481.06 24.1105 481.23 24.6805 481.3 24.9205C481.15 24.6905 481 24.5205 480.89 24.4005C480.76 24.2505 480.68 24.1805 480.58 24.1205C480.46 24.0405 480.3 23.9405 480.16 23.9805C479.98 24.0305 479.87 24.3405 479.91 24.7305C479.64 24.5405 479.52 24.3405 479.47 24.1905C479.42 24.0605 479.41 23.9405 479.3 23.8705C479.19 23.7805 479.01 23.7905 478.93 23.8405Z" fill="#C99F9B"/>
        <path d="M481.47 26.1104H482.02C482.89 26.1104 483.72 26.4204 484.38 26.9904L484.97 27.5004H482.73L481.47 26.1104Z" fill="#C99F9B"/>
        <path d="M497.91 28.0704L496.31 26.7604L494.53 26.6304L493.21 26.1104L492.84 26.7504L494.24 27.7304L493.07 28.4104L491.79 28.2304L492.18 28.9004L495.58 29.9204L498.01 30.4904L498.68 28.4404L497.91 28.0704Z" fill="#E0ADA6"/>
        <path d="M509.07 30.4904C508.24 30.1304 507.51 29.9004 506.94 29.7604C504.64 29.1804 503.41 29.5204 500.86 29.0204C499.97 28.8504 499.23 28.6304 498.68 28.4404C498.46 29.1204 498.24 29.8104 498.01 30.4904C499.23 31.2404 500.6 32.0104 502.13 32.7304C504.65 33.9204 507.04 34.7204 509.15 35.2704C509.81 35.4404 510.51 35.2104 510.95 34.6804C512.75 32.4704 513.92 30.4304 514.68 28.9004C517.58 22.9904 517.85 19.5404 516.57 18.3504C515.89 17.7204 514.76 17.6104 513.98 17.9004C513.33 18.1404 512.91 18.6604 511.84 21.2204C510.94 23.3704 510.24 25.0904 509.61 27.8204C509.34 28.9104 509.17 29.8304 509.07 30.4904Z" fill="#E0ADA6"/>
        <path d="M500.24 4.6301C501.04 4.6801 501.86 4.7501 502.7 4.8301C503.54 4.9101 504.36 5.0001 505.16 5.1001C505.07 5.8601 504.98 6.6201 505.01 7.3901C505.08 8.8701 505.61 10.2901 505.95 11.7301C506.3 13.1701 506.44 14.7601 505.78 16.0801C505.05 17.5401 504.69 17.8301 504.73 18.8601C504.78 20.2301 505.93 21.7601 507.32 22.0401C509.19 22.4201 510.99 20.4701 511.74 19.6501C513.28 17.9801 513.59 16.4101 514.81 16.2901C515.41 16.2301 515.94 16.5501 516.29 16.8301C516.64 16.0801 517.32 14.3301 516.95 12.2001C516.72 10.8901 516.19 9.9501 516.05 9.7101C515.42 8.6401 515.06 8.5901 514.3 7.6001C513.54 6.6101 513.21 5.3501 512.81 4.1701C512.4 2.9801 511.85 1.7601 510.8 1.0701C510.15 0.640096 509.37 0.450096 508.61 0.310096C507.24 0.0400965 505.82 -0.119904 504.45 0.150096C503.79 0.280096 502.6 0.620096 501.58 1.7101C500.55 2.8201 500.31 4.1201 500.24 4.6301Z" fill="#253858"/>
        <path d="M203.8 226.8C204.38 227.19 205.56 227.88 207.22 228.08C209.12 228.31 210.6 227.77 211.25 227.48C210.99 226.85 210.58 225.61 210.69 224.02C210.82 222.3 211.49 221.07 211.86 220.49C209.29 220.1 206.72 219.7 204.14 219.31C204.03 221.81 203.91 224.3 203.8 226.8Z" fill="#B5917C"/>
        <path d="M210.3 221.18C211.05 220.87 212.33 220.19 213.16 218.82C214.81 216.09 213.95 211.77 210.98 209.95C207.67 207.92 202.88 209.71 202.25 211.82C202.17 212.08 202.17 212.29 202.18 212.46C202.27 214.81 203.45 217.2 204.54 218.94C206.46 219.69 208.38 220.43 210.3 221.18Z" fill="url(#paint11_linear_1375_10)"/>
        <path d="M202.25 211.82C202.12 212.39 201.9 213.17 201.54 214.08C201.34 214.58 201.17 214.93 201.13 215.02C200.84 215.62 200.37 216.46 199.65 217.38C200.06 217.56 200.46 217.74 200.87 217.92C200.91 219.35 200.95 220.79 200.99 222.22C203.13 223.3 205 223.6 206.16 223.69C207.69 223.81 209.25 223.93 210.2 222.96C210.6 222.55 210.62 222.23 211.41 221.11C211.93 220.38 212.4 219.82 212.72 219.47C211.64 220 210.49 220.05 209.77 219.49C209.3 219.12 209.1 218.65 209.1 218.65C208.81 217.95 209.11 217.42 208.77 217.11C208.54 216.91 208.17 216.91 207.96 217C207.2 217.31 207.06 218.96 207.06 218.96H207.04C207.03 218.96 206.75 218.89 205.92 218.67C206.06 217.67 205.91 216.96 205.75 216.49C205.38 215.41 204.82 215.27 204.61 214.25C204.4 213.23 204.84 212.81 204.5 212.31C204.26 211.98 203.71 211.67 202.25 211.82Z" fill="#B5917C"/>
        <path d="M166.93 218.27C166.53 219.05 168.9 221.39 164.1 218.61C163.81 218.44 162.46 218 161.85 216.62C161.22 215.18 162.36 214.25 161.6 212.99C161.19 212.31 160.63 212.21 160.42 211.39C160.27 210.81 160.34 210.08 160.62 209.98C160.94 209.87 161.28 210.67 162.43 211.86C163.57 213.04 163.8 212.85 164.63 213.89C164.97 214.32 165.14 214.61 165.88 215.54C166.27 216.03 166.31 216.06 166.43 216.25C166.69 216.68 167.26 217.64 166.93 218.27Z" fill="url(#paint12_linear_1375_10)"/>
        <path d="M198.99 252.74L226.66 310.63L232.18 309.88C230.6 302.75 228.34 294.87 225.09 286.55C223.77 283.19 222.4 280.01 220.99 277.01C220.32 270.51 218.99 263.55 216.7 256.33C216.4 255.38 216.09 254.45 215.77 253.53C210.17 253.27 204.58 253.01 198.99 252.74Z" fill="url(#paint13_linear_1375_10)"/>
        <path d="M163.25 218.24C162.43 217.93 160.75 217.18 159.46 215.49C158.85 214.68 158.61 214.04 158.13 212.74C157.86 212.01 157.77 211.57 157.99 211.27C158.24 210.93 158.78 210.94 159.17 210.94C160.12 210.95 160.83 211.33 160.97 211.41C162.45 212.24 163.34 213.75 164.62 215.43C166.48 217.89 167.56 218.57 167.32 218.98C167.18 219.24 166.54 219.46 163.25 218.24Z" fill="url(#paint14_linear_1375_10)"/>
        <path d="M198.99 252.461C199.09 259.781 199.12 267.191 199.08 274.701C199.01 289.041 198.7 303.051 198.17 316.701C200.24 316.701 202.31 316.701 204.38 316.701C206.21 310.981 207.91 303.781 208.55 295.381C208.89 290.881 208.88 286.731 208.67 283.011C209.8 275.811 211.54 270.931 212.98 267.731C213.65 266.231 215.26 262.871 215.72 258.131C215.9 256.221 215.85 254.631 215.77 253.571C210.17 253.201 204.58 252.831 198.99 252.461Z" fill="url(#paint15_linear_1375_10)"/>
        <path d="M199.16 316.361C199.16 316.371 199.15 316.381 199.14 316.391C199.03 316.441 198.72 315.471 198.28 315.271C197.44 314.891 196.05 317.411 193.59 319.031C192.48 319.761 191.38 320.161 190.51 320.381C190.18 320.461 189.95 320.761 189.95 321.101V321.801H204.9C204.93 320.911 204.87 319.761 204.57 318.461C204.38 317.661 204.14 316.951 203.89 316.371H199.16V316.361Z" fill="#42526E"/>
        <path d="M204.83 319.08C203.19 319.08 201.86 320.4 201.82 322.03C202.85 322.03 203.88 322.03 204.91 322.03V319.08C204.88 319.08 204.85 319.08 204.83 319.08Z" fill="#B3BAC5"/>
        <path d="M176.37 244.37C175.57 244.67 173.85 245.2 171.82 244.78C170.85 244.58 170.26 244.26 169.08 243.61C168.41 243.24 168.06 242.98 168.03 242.62C168 242.21 168.4 241.86 168.69 241.62C169.39 241.02 170.16 240.85 170.32 240.81C171.94 240.47 173.56 241.01 175.58 241.43C178.53 242.04 179.76 241.86 179.84 242.31C179.9 242.58 179.57 243.16 176.37 244.37Z" fill="url(#paint16_linear_1375_10)"/>
        <path d="M179.1 242.029C179.31 242.859 182.55 243.069 177.24 244.099C176.91 244.159 175.64 244.699 174.31 244.079C172.92 243.429 173.16 241.999 171.79 241.569C171.05 241.329 170.58 241.619 169.89 241.149C169.41 240.819 168.99 240.239 169.13 239.979C169.29 239.689 170.06 240.059 171.67 240.199C173.27 240.339 173.32 240.049 174.59 240.279C175.12 240.379 175.43 240.479 176.57 240.689C177.17 240.799 177.23 240.799 177.43 240.859C177.9 241.019 178.93 241.359 179.1 242.029Z" fill="#A27F68"/>
        <path d="M210.67 227.52C207.53 227.76 205.27 228.87 203.84 229.52C200.78 230.92 197.6 232.07 194.62 233.64C190.97 235.57 185.3 238.04 176.59 240.27C176.98 241.64 177.38 243.01 177.77 244.39C179.62 244.43 182.3 244.37 185.49 243.91C186.63 243.74 188.62 243.41 194.48 241.7C201.75 239.58 202.37 239.01 204.36 238.27C205.77 237.74 206.47 237.6 207.82 237.2C211.04 236.25 212.66 235.75 213.66 234.77C214.19 234.25 214.9 233.35 215.33 231.8C215.57 231.28 216.22 229.73 215.53 228.61C214.68 227.22 212.29 227.4 210.67 227.52Z" fill="#00875A"/>
        <path d="M227.3 310.15C227.3 310.16 227.3 310.17 227.29 310.18C227.2 310.26 226.65 309.39 226.18 309.31C225.27 309.15 224.55 311.93 222.56 314.11C221.66 315.1 220.69 315.75 219.91 316.18C219.61 316.34 219.46 316.68 219.55 317.01L219.72 317.69L234.21 314C234.02 313.13 233.68 312.03 233.07 310.84C232.69 310.11 232.28 309.49 231.89 308.98L227.3 310.15Z" fill="#42526E"/>
        <path d="M233.46 311.381C231.87 311.791 230.9 313.391 231.28 314.981C232.28 314.731 233.27 314.471 234.27 314.221L233.54 311.371C233.51 311.371 233.49 311.371 233.46 311.381Z" fill="#B3BAC5"/>
        <path d="M166.25 215.43C170.79 219.53 174.13 221.47 176.9 222.57C178.97 223.39 180.72 223.78 183.02 224.29C187.85 225.38 191.96 225.81 194.9 226.01C197.63 225.73 199.95 225.62 201.7 225.56C203.07 225.52 204.61 225.55 207.67 225.61C208.19 225.62 210.48 225.67 212.72 226.2C213.12 226.29 213.64 226.43 214.27 226.7C214.28 226.7 214.29 226.71 214.3 226.71C215.73 227.33 216.66 228.73 216.85 230.28C217.03 231.8 217.16 233.65 217.12 235.74C217.06 238.84 216.66 238.87 216.6 241.94C216.55 244.54 216.81 245.47 217.33 251.69C217.49 253.56 217.6 255.09 217.67 256.06C213.16 256.17 208.56 256.35 203.89 256.6C201.95 256.7 200.02 256.82 198.11 256.94C198.7 248.28 197.97 244.36 197.09 242.42C197.07 242.37 196.99 242.21 196.89 241.98C195.97 239.9 195.88 238.71 195.36 237.2C195.14 236.56 194.75 235.63 194.05 234.54C187.02 234.28 181.9 232.4 178.9 231.01C174.32 228.89 170.79 226.12 168.41 224.25C166.15 222.48 164.36 220.84 163.07 219.59C164.12 218.21 165.19 216.82 166.25 215.43Z" fill="url(#paint17_linear_1375_10)"/>
    </g>
    <defs>
        <linearGradient id="paint0_linear_1375_10" x1="101.349" y1="299.996" x2="105.751" y2="316.425" gradientUnits="userSpaceOnUse">
            <stop stop-color="#091E42" stop-opacity="0"/>
            <stop offset="1" stop-color="#091E42"/>
        </linearGradient>
        <linearGradient id="paint1_linear_1375_10" x1="499.832" y1="299.853" x2="495.372" y2="316.381" gradientUnits="userSpaceOnUse">
            <stop stop-color="#091E42" stop-opacity="0"/>
            <stop offset="1" stop-color="#091E42"/>
        </linearGradient>
        <linearGradient id="paint2_linear_1375_10" x1="311.67" y1="291.35" x2="373.737" y2="291.35" gradientUnits="userSpaceOnUse">
            <stop stop-color="#091E42" stop-opacity="0"/>
            <stop offset="1" stop-color="#091E42"/>
        </linearGradient>
        <linearGradient id="paint3_linear_1375_10" x1="181.676" y1="318.512" x2="243.744" y2="318.512" gradientUnits="userSpaceOnUse">
            <stop stop-color="#091E42" stop-opacity="0"/>
            <stop offset="1" stop-color="#091E42"/>
        </linearGradient>
        <linearGradient id="paint4_linear_1375_10" x1="395.965" y1="254.78" x2="578.017" y2="72.7282" gradientUnits="userSpaceOnUse">
            <stop stop-color="#FFAB00"/>
            <stop offset="1" stop-color="#FFE380"/>
        </linearGradient>
        <linearGradient id="paint5_linear_1375_10" x1="407.455" y1="130.034" x2="441.706" y2="95.7826" gradientUnits="userSpaceOnUse">
            <stop offset="0.4301" stop-color="#FFE380"/>
            <stop offset="0.5282" stop-color="#FFE895"/>
            <stop offset="0.6433" stop-color="#FFEDA5"/>
            <stop offset="0.7712" stop-color="#FFEFAF"/>
            <stop offset="0.9363" stop-color="#FFF0B2"/>
        </linearGradient>
        <linearGradient id="paint6_linear_1375_10" x1="217.666" y1="246.445" x2="383.048" y2="81.0629" gradientUnits="userSpaceOnUse">
            <stop stop-color="#DFE1E5"/>
            <stop offset="1" stop-color="white"/>
        </linearGradient>
        <linearGradient id="paint7_linear_1375_10" x1="361.522" y1="236.868" x2="361.522" y2="181.696" gradientUnits="userSpaceOnUse">
            <stop offset="0.2509" stop-color="#344563"/>
            <stop offset="0.3615" stop-color="#3D4E6A"/>
            <stop offset="0.7815" stop-color="#5E6C84"/>
            <stop offset="0.8481" stop-color="#5A6881"/>
            <stop offset="0.917" stop-color="#4D5D77"/>
            <stop offset="0.9866" stop-color="#394A67"/>
            <stop offset="1" stop-color="#344563"/>
        </linearGradient>
        <linearGradient id="paint8_linear_1375_10" x1="493.887" y1="73.385" x2="493.887" y2="37.2021" gradientUnits="userSpaceOnUse">
            <stop offset="0.5467" stop-color="#0052CC"/>
            <stop offset="0.83" stop-color="#2684FF"/>
            <stop offset="0.8841" stop-color="#2481FC"/>
            <stop offset="0.9271" stop-color="#1C77F2"/>
            <stop offset="0.9663" stop-color="#1067E1"/>
            <stop offset="1" stop-color="#0052CC"/>
        </linearGradient>
        <linearGradient id="paint9_linear_1375_10" x1="504.628" y1="70.9059" x2="504.628" y2="37.0437" gradientUnits="userSpaceOnUse">
            <stop offset="0.4806" stop-color="#0052CC"/>
            <stop offset="0.9257" stop-color="#2684FF"/>
            <stop offset="0.9451" stop-color="#227FFA"/>
            <stop offset="0.9685" stop-color="#1771EB"/>
            <stop offset="0.9939" stop-color="#0559D3"/>
            <stop offset="1" stop-color="#0052CC"/>
        </linearGradient>
        <linearGradient id="paint10_linear_1375_10" x1="500.139" y1="26.0689" x2="517.915" y2="26.0689" gradientUnits="userSpaceOnUse">
            <stop offset="0.5373" stop-color="#0065FF"/>
            <stop offset="0.6894" stop-color="#0060F0"/>
            <stop offset="0.9682" stop-color="#0052CC"/>
        </linearGradient>
        <linearGradient id="paint11_linear_1375_10" x1="208.087" y1="221.184" x2="208.087" y2="209.064" gradientUnits="userSpaceOnUse">
            <stop offset="0.3124" stop-color="#8C715D"/>
            <stop offset="1" stop-color="#42526E"/>
        </linearGradient>
        <linearGradient id="paint12_linear_1375_10" x1="167.17" y1="214.952" x2="160.343" y2="214.952" gradientUnits="userSpaceOnUse">
            <stop stop-color="#A27F68"/>
            <stop offset="0.8025" stop-color="#8C715D"/>
        </linearGradient>
        <linearGradient id="paint13_linear_1375_10" x1="210.11" y1="283.306" x2="224.669" y2="278.008" gradientUnits="userSpaceOnUse">
            <stop stop-color="#00875A"/>
            <stop offset="0.799" stop-color="#36B37E"/>
        </linearGradient>
        <linearGradient id="paint14_linear_1375_10" x1="157.898" y1="215.1" x2="167.382" y2="215.1" gradientUnits="userSpaceOnUse">
            <stop offset="0.1975" stop-color="#8C715D"/>
            <stop offset="1" stop-color="#A27F68"/>
        </linearGradient>
        <linearGradient id="paint15_linear_1375_10" x1="198.17" y1="284.586" x2="215.832" y2="284.586" gradientUnits="userSpaceOnUse">
            <stop stop-color="#00875A"/>
            <stop offset="1" stop-color="#36B37E"/>
        </linearGradient>
        <linearGradient id="paint16_linear_1375_10" x1="170.271" y1="245.521" x2="177.249" y2="239.434" gradientUnits="userSpaceOnUse">
            <stop offset="0.1975" stop-color="#9C7761"/>
            <stop offset="1" stop-color="#A27F68"/>
        </linearGradient>
        <linearGradient id="paint17_linear_1375_10" x1="190.369" y1="256.944" x2="190.369" y2="215.432" gradientUnits="userSpaceOnUse">
            <stop stop-color="#36B37E"/>
            <stop offset="0.2267" stop-color="#39B681"/>
            <stop offset="0.4211" stop-color="#42C18C"/>
            <stop offset="0.603" stop-color="#51D39D"/>
            <stop offset="0.6546" stop-color="#57D9A3"/>
        </linearGradient>
        <clipPath id="clip0_1375_10">
            <rect width="600.49" height="324.08" fill="white" transform="translate(0.320068)"/>
        </clipPath>
    </defs>
</svg>
