<svg width="108" height="32" viewBox="0 0 108 32" fill="none" xmlns="http://www.w3.org/2000/svg">
    <g opacity="0.6">
        <path d="M1.14941 12C1.14941 11.7239 1.37327 11.5 1.64941 11.5H47.0168C47.1252 11.5 47.2307 11.5352 47.3173 11.6004L52.6367 15.6004C52.9027 15.8004 52.9027 16.1996 52.6367 16.3996L47.3173 20.3996C47.2307 20.4648 47.1252 20.5 47.0168 20.5H1.64941C1.37327 20.5 1.14941 20.2761 1.14941 20V12Z" fill="url(#paint0_linear_1396_9166)" stroke="url(#paint1_linear_1396_9166)"/>
    </g>
    <g opacity="0.6">
        <path d="M106.851 12C106.851 11.7239 106.627 11.5 106.351 11.5H60.9832C60.8748 11.5 60.7693 11.5352 60.6827 11.6004L55.3633 15.6004C55.0973 15.8004 55.0973 16.1996 55.3633 16.3996L60.6827 20.3996C60.7693 20.4648 60.8748 20.5 60.9832 20.5H106.351C106.627 20.5 106.851 20.2761 106.851 20V12Z" fill="url(#paint2_linear_1396_9166)" stroke="url(#paint3_linear_1396_9166)"/>
    </g>
    <rect x="44" y="4" width="22" height="22" rx="12" fill="white"/>
    <path fill-rule="evenodd" clip-rule="evenodd" d="M67.3332 16.0001C67.3332 23.3639 61.3636 29.3334 53.9998 29.3334C46.636 29.3334 40.6665 23.3639 40.6665 16.0001C40.6665 8.63628 46.636 2.66675 53.9998 2.66675C61.3636 2.66675 67.3332 8.63628 67.3332 16.0001ZM50.5097 14.7586C50.6724 14.8285 50.8195 14.9301 50.9425 15.0574L52.6665 16.7814L57.0572 12.3908C57.1802 12.2634 57.3273 12.1619 57.49 12.092C57.6526 12.0221 57.8276 11.9853 58.0046 11.9838C58.1817 11.9822 58.3572 12.016 58.5211 12.083C58.685 12.1501 58.8338 12.2491 58.959 12.3742C59.0842 12.4994 59.1832 12.6483 59.2503 12.8122C59.3173 12.976 59.351 13.1516 59.3495 13.3286C59.348 13.5057 59.3112 13.6806 59.2413 13.8433C59.1714 14.006 59.0698 14.1531 58.9425 14.2761L53.6092 19.6094C53.3591 19.8594 53.0201 19.9998 52.6665 19.9998C52.3129 19.9998 51.9739 19.8594 51.7238 19.6094L49.0572 16.9428C48.9298 16.8198 48.8282 16.6727 48.7584 16.51C48.6885 16.3473 48.6517 16.1723 48.6502 15.9953C48.6486 15.8183 48.6824 15.6427 48.7494 15.4788C48.8164 15.315 48.9155 15.1661 49.0406 15.0409C49.1658 14.9157 49.3147 14.8167 49.4786 14.7497C49.6424 14.6826 49.818 14.6489 49.995 14.6504C50.1721 14.652 50.347 14.6888 50.5097 14.7586Z" fill="#22A06B"/>
    <defs>
        <linearGradient id="paint0_linear_1396_9166" x1="62.6817" y1="16" x2="17.9918" y2="16" gradientUnits="userSpaceOnUse">
            <stop stop-color="#57D9A3"/>
            <stop offset="1" stop-color="#57D9A3" stop-opacity="0"/>
        </linearGradient>
        <linearGradient id="paint1_linear_1396_9166" x1="54.001" y1="16" x2="34.501" y2="16" gradientUnits="userSpaceOnUse">
            <stop stop-color="#57D9A3"/>
            <stop offset="1" stop-color="#57D9A3" stop-opacity="0"/>
        </linearGradient>
        <linearGradient id="paint2_linear_1396_9166" x1="45.3183" y1="16" x2="90.0082" y2="16" gradientUnits="userSpaceOnUse">
            <stop stop-color="#57D9A3"/>
            <stop offset="1" stop-color="#57D9A3" stop-opacity="0"/>
        </linearGradient>
        <linearGradient id="paint3_linear_1396_9166" x1="53.999" y1="16" x2="73.499" y2="16" gradientUnits="userSpaceOnUse">
            <stop stop-color="#57D9A3"/>
            <stop offset="1" stop-color="#57D9A3" stop-opacity="0"/>
        </linearGradient>
    </defs>
</svg>
