<svg width="233" height="181" viewBox="0 0 233 181" fill="none" xmlns="http://www.w3.org/2000/svg">
<g clip-path="url(#clip0_1088_507)">
<rect width="232.6" height="180.3" transform="translate(0.100098 0.599609)" fill="white" fill-opacity="0.01"/>
<path d="M197.7 63.5003C195.384 63.525 193.074 63.7593 190.8 64.2003V63.5003C190.152 47.239 183.236 31.8595 171.502 20.5835C159.767 9.30742 144.124 3.00977 127.85 3.00977C111.576 3.00977 95.9331 9.30742 84.1986 20.5835C72.4641 31.8595 65.5483 47.239 64.9001 63.5003C64.8837 63.8698 64.9173 64.2398 65.0001 64.6003C59.8409 63.2681 54.4446 63.1384 49.2273 64.2213C44.01 65.3042 39.1111 67.5706 34.9082 70.846C30.7052 74.1214 27.3106 78.3182 24.9859 83.1128C22.6613 87.9075 21.4687 93.1719 21.5001 98.5003V112.2C21.5001 115.006 20.9459 117.784 19.8692 120.375C18.7925 122.965 17.2147 125.318 15.2262 127.297C13.2377 129.276 10.8778 130.843 8.28197 131.908C5.68618 132.972 2.90566 133.513 0.100098 133.5H197.7C206.983 133.5 215.885 129.813 222.449 123.249C229.013 116.685 232.7 107.783 232.7 98.5003C232.7 89.2177 229.013 80.3153 222.449 73.7515C215.885 67.1878 206.983 63.5003 197.7 63.5003Z" fill="#0065FF"/>
<path style="mix-blend-mode:multiply" d="M146.8 122.1L100.6 75.9004L60.2002 116.4C59.7102 116.862 59.3729 117.462 59.2336 118.12C59.0943 118.778 59.1596 119.464 59.4207 120.084C59.6819 120.704 60.1264 121.23 60.6947 121.59C61.263 121.95 61.9279 122.129 62.6002 122.1H80.6002V133.5H120.7V122.1H146.8Z" fill="url(#paint0_linear_1088_507)"/>
<path d="M103.2 102.9H83.7002C82.8896 102.874 82.1039 102.613 81.4381 102.15C80.7723 101.687 80.2547 101.041 79.9481 100.29C79.6414 99.5397 79.5587 98.7161 79.7099 97.9193C79.8611 97.1224 80.2398 96.3864 80.8002 95.8002L123 53.6002C123.381 53.2192 123.833 52.917 124.331 52.7108C124.828 52.5046 125.362 52.3984 125.9 52.3984C126.439 52.3984 126.972 52.5046 127.47 52.7108C127.967 52.917 128.419 53.2192 128.8 53.6002L171 95.8002C171.561 96.3864 171.939 97.1224 172.091 97.9193C172.242 98.7161 172.159 99.5397 171.852 100.29C171.546 101.041 171.028 101.687 170.362 102.15C169.697 102.613 168.911 102.874 168.1 102.9H148.6V180.9H103.2V102.9Z" fill="url(#paint1_linear_1088_507)"/>
<path d="M103.2 102.9H83.7002C82.8896 102.874 82.1039 102.613 81.4381 102.15C80.7723 101.687 80.2547 101.041 79.9481 100.29C79.6414 99.5397 79.5587 98.7161 79.7099 97.9193C79.8611 97.1224 80.2398 96.3864 80.8002 95.8002L123 53.6002C123.381 53.2192 123.833 52.917 124.331 52.7108C124.828 52.5046 125.362 52.3984 125.9 52.3984C126.439 52.3984 126.972 52.5046 127.47 52.7108C127.967 52.917 128.419 53.2192 128.8 53.6002L171 95.8002C171.561 96.3864 171.939 97.1224 172.091 97.9193C172.242 98.7161 172.159 99.5397 171.852 100.29C171.546 101.041 171.028 101.687 170.362 102.15C169.697 102.613 168.911 102.874 168.1 102.9H148.6V180.9H103.2V102.9Z" fill="url(#paint2_linear_1088_507)"/>
</g>
<defs>
<linearGradient id="paint0_linear_1088_507" x1="59.2202" y1="104.73" x2="146.78" y2="104.73" gradientUnits="userSpaceOnUse">
<stop stop-color="#6C798F" stop-opacity="0.1"/>
<stop offset="1" stop-color="#6C798F"/>
</linearGradient>
<linearGradient id="paint1_linear_1088_507" x1="125.92" y1="52.4402" x2="125.92" y2="180.94" gradientUnits="userSpaceOnUse">
<stop stop-color="#3DC7DC"/>
<stop offset="0.09" stop-color="#3DC7DC"/>
<stop offset="0.61" stop-color="#3DC7DC"/>
<stop offset="0.67" stop-color="#3FC8DC" stop-opacity="0.98"/>
<stop offset="0.72" stop-color="#46CADE" stop-opacity="0.94"/>
<stop offset="0.77" stop-color="#52CDE0" stop-opacity="0.85"/>
<stop offset="0.82" stop-color="#62D2E3" stop-opacity="0.74"/>
<stop offset="0.87" stop-color="#78D8E6" stop-opacity="0.59"/>
<stop offset="0.92" stop-color="#92E0EB" stop-opacity="0.41"/>
<stop offset="0.96" stop-color="#B0E9F0" stop-opacity="0.2"/>
<stop offset="1" stop-color="#CDF1F5" stop-opacity="0"/>
</linearGradient>
<linearGradient id="paint2_linear_1088_507" x1="125.92" y1="52.4402" x2="125.92" y2="180.94" gradientUnits="userSpaceOnUse">
<stop stop-color="#3DC7DC"/>
<stop offset="0.09" stop-color="#3DC7DC"/>
<stop offset="0.61" stop-color="#3DC7DC"/>
<stop offset="0.67" stop-color="#3FC8DC" stop-opacity="0.98"/>
<stop offset="0.72" stop-color="#46CADE" stop-opacity="0.94"/>
<stop offset="0.77" stop-color="#52CDE0" stop-opacity="0.85"/>
<stop offset="0.82" stop-color="#62D2E3" stop-opacity="0.74"/>
<stop offset="0.87" stop-color="#78D8E6" stop-opacity="0.59"/>
<stop offset="0.92" stop-color="#92E0EB" stop-opacity="0.41"/>
<stop offset="0.96" stop-color="#B0E9F0" stop-opacity="0.2"/>
<stop offset="1" stop-color="#CDF1F5" stop-opacity="0"/>
</linearGradient>
<clipPath id="clip0_1088_507">
<rect width="232.6" height="180.3" fill="white" transform="translate(0.100098 0.599609)"/>
</clipPath>
</defs>
</svg>
