<svg width="24" height="24" viewBox="0 0 24 24" fill="none" xmlns="http://www.w3.org/2000/svg">
    <path fill-rule="evenodd" clip-rule="evenodd" d="M11.9778 0C5.3635 0 0 5.45261 0 12.179C0 17.5601 3.432 22.1253 8.19114 23.7357C8.78975 23.8484 9.00952 23.4715 9.00952 23.1498C9.00952 22.8594 8.99841 21.9 8.99326 20.8823C5.66103 21.6191 4.95789 19.4454 4.95789 19.4454C4.41303 18.0376 3.62796 17.6633 3.62796 17.6633C2.54122 16.9074 3.70988 16.923 3.70988 16.923C4.91266 17.0089 5.54598 18.178 5.54598 18.178C6.61428 20.0399 8.34803 19.5016 9.03154 19.1904C9.13904 18.4033 9.44945 17.866 9.792 17.5619C7.13157 17.2539 4.33487 16.2096 4.33487 11.5429C4.33487 10.2133 4.80278 9.12682 5.56899 8.27391C5.44463 7.96716 5.03464 6.72844 5.68502 5.05087C5.68502 5.05087 6.69084 4.72354 8.97976 6.29927C9.9352 6.02942 10.9599 5.89409 11.9778 5.88945C12.9957 5.89409 14.0212 6.02942 14.9784 6.29927C17.2645 4.72354 18.269 5.05087 18.269 5.05087C18.9209 6.72844 18.5107 7.96716 18.3864 8.27391C19.1544 9.12682 19.6191 10.2133 19.6191 11.5429C19.6191 16.2207 16.8171 17.2507 14.1499 17.5522C14.5795 17.9301 14.9623 18.6713 14.9623 19.8076C14.9623 21.4371 14.9484 22.7487 14.9484 23.1498C14.9484 23.4739 15.164 23.8537 15.7712 23.7341C20.5277 22.1219 23.9554 17.5582 23.9554 12.179C23.9554 5.45261 18.5927 0 11.9778 0Z" fill="#091E42"/>
</svg>
