<svg width="294" height="191" viewBox="0 0 294 191" fill="none" xmlns="http://www.w3.org/2000/svg">
    <rect x="1.29268" y="1.29268" width="291.415" height="188.146" rx="3.53659" fill="white"/>
    <rect x="55.6777" y="50.0996" width="184.038" height="14.6394" rx="1.41463" fill="#E3E6FD" stroke="#8A96DB" stroke-width="0.707317"/>
    <rect x="59.8623" y="53.5845" width="7.66827" height="7.66827" rx="1.39423" fill="#C7CCE5"/>
    <path d="M215.318 39.6646C215.318 38.8834 215.952 38.25 216.733 38.25H237.953C238.734 38.25 239.367 38.8834 239.367 39.6646V45.3232C239.367 46.1045 238.734 46.7378 237.953 46.7378H216.733C215.952 46.7378 215.318 46.1045 215.318 45.3232V39.6646Z" fill="white"/>
    <path d="M215.318 39.6646C215.318 38.8834 215.534 38.25 215.799 38.25H238.886C239.152 38.25 239.367 38.8834 239.367 39.6646V45.3232C239.367 46.1045 239.152 46.7378 238.886 46.7378H215.799C215.534 46.7378 215.318 46.1045 215.318 45.3232V39.6646Z" fill="white"/>
    <path d="M215.318 39.6646C215.318 38.8834 215.952 38.25 216.733 38.25H237.953C238.734 38.25 239.367 38.8834 239.367 39.6646V45.3232C239.367 46.1045 238.734 46.7378 237.953 46.7378H216.733C215.952 46.7378 215.318 46.1045 215.318 45.3232V39.6646Z" stroke="#EBECF0" stroke-width="0.707317"/>
    <path d="M215.318 39.6646C215.318 38.8834 215.534 38.25 215.799 38.25H238.886C239.152 38.25 239.367 38.8834 239.367 39.6646V45.3232C239.367 46.1045 239.152 46.7378 238.886 46.7378H215.799C215.534 46.7378 215.318 46.1045 215.318 45.3232V39.6646Z" stroke="#EBECF0" stroke-width="0.707317"/>
    <rect x="219.422" y="41.2021" width="15.561" height="2.82927" rx="1.41463" fill="#091E42" fill-opacity="0.13"/>
    <path d="M218.106 54.3043C218.106 53.523 218.74 52.8896 219.521 52.8896H233.769C234.551 52.8896 235.184 53.523 235.184 54.3043V59.9628C235.184 60.7441 234.551 61.3775 233.769 61.3775H219.521C218.74 61.3775 218.106 60.7441 218.106 59.9628V54.3043Z" fill="white"/>
    <path d="M218.106 54.3043C218.106 53.523 218.259 52.8896 218.448 52.8896H234.843C235.031 52.8896 235.184 53.523 235.184 54.3043V59.9628C235.184 60.7441 235.031 61.3775 234.843 61.3775H218.448C218.259 61.3775 218.106 60.7441 218.106 59.9628V54.3043Z" fill="white"/>
    <path d="M218.106 54.3043C218.106 53.523 218.74 52.8896 219.521 52.8896H233.769C234.551 52.8896 235.184 53.523 235.184 54.3043V59.9628C235.184 60.7441 234.551 61.3775 233.769 61.3775H219.521C218.74 61.3775 218.106 60.7441 218.106 59.9628V54.3043Z" stroke="#EBECF0" stroke-width="0.707317"/>
    <path d="M218.106 54.3043C218.106 53.523 218.259 52.8896 218.448 52.8896H234.843C235.031 52.8896 235.184 53.523 235.184 54.3043V59.9628C235.184 60.7441 235.031 61.3775 234.843 61.3775H218.448C218.259 61.3775 218.106 60.7441 218.106 59.9628V54.3043Z" stroke="#EBECF0" stroke-width="0.707317"/>
    <rect x="221.021" y="55.8418" width="11.0502" height="2.82927" rx="1.41463" fill="#091E42" fill-opacity="0.13"/>
    <path d="M197.89 54.3043C197.89 53.523 198.523 52.8896 199.304 52.8896H213.553C214.334 52.8896 214.967 53.523 214.967 54.3043V59.9628C214.967 60.7441 214.334 61.3775 213.553 61.3775H199.304C198.523 61.3775 197.89 60.7441 197.89 59.9628V54.3043Z" fill="white"/>
    <path d="M197.89 54.3043C197.89 53.523 198.043 52.8896 198.231 52.8896H214.626C214.814 52.8896 214.967 53.523 214.967 54.3043V59.9628C214.967 60.7441 214.814 61.3775 214.626 61.3775H198.231C198.043 61.3775 197.89 60.7441 197.89 59.9628V54.3043Z" fill="white"/>
    <path d="M197.89 54.3043C197.89 53.523 198.523 52.8896 199.304 52.8896H213.553C214.334 52.8896 214.967 53.523 214.967 54.3043V59.9628C214.967 60.7441 214.334 61.3775 213.553 61.3775H199.304C198.523 61.3775 197.89 60.7441 197.89 59.9628V54.3043Z" stroke="#EBECF0" stroke-width="0.707317"/>
    <path d="M197.89 54.3043C197.89 53.523 198.043 52.8896 198.231 52.8896H214.626C214.814 52.8896 214.967 53.523 214.967 54.3043V59.9628C214.967 60.7441 214.814 61.3775 214.626 61.3775H198.231C198.043 61.3775 197.89 60.7441 197.89 59.9628V54.3043Z" stroke="#EBECF0" stroke-width="0.707317"/>
    <rect x="200.804" y="55.8418" width="11.0502" height="2.82927" rx="1.41463" fill="#091E42" fill-opacity="0.13"/>
    <path d="M177.673 54.3043C177.673 53.523 178.306 52.8896 179.087 52.8896H193.336C194.117 52.8896 194.75 53.523 194.75 54.3043V59.9628C194.75 60.7441 194.117 61.3775 193.336 61.3775H179.087C178.306 61.3775 177.673 60.7441 177.673 59.9628V54.3043Z" fill="white"/>
    <path d="M177.673 54.3043C177.673 53.523 177.826 52.8896 178.014 52.8896H194.409C194.598 52.8896 194.75 53.523 194.75 54.3043V59.9628C194.75 60.7441 194.598 61.3775 194.409 61.3775H178.014C177.826 61.3775 177.673 60.7441 177.673 59.9628V54.3043Z" fill="white"/>
    <path d="M177.673 54.3043C177.673 53.523 178.306 52.8896 179.087 52.8896H193.336C194.117 52.8896 194.75 53.523 194.75 54.3043V59.9628C194.75 60.7441 194.117 61.3775 193.336 61.3775H179.087C178.306 61.3775 177.673 60.7441 177.673 59.9628V54.3043Z" stroke="#EBECF0" stroke-width="0.707317"/>
    <path d="M177.673 54.3043C177.673 53.523 177.826 52.8896 178.014 52.8896H194.409C194.598 52.8896 194.75 53.523 194.75 54.3043V59.9628C194.75 60.7441 194.598 61.3775 194.409 61.3775H178.014C177.826 61.3775 177.673 60.7441 177.673 59.9628V54.3043Z" stroke="#EBECF0" stroke-width="0.707317"/>
    <rect x="180.587" y="55.8418" width="11.0502" height="2.82927" rx="1.41463" fill="#091E42" fill-opacity="0.13"/>
    <rect width="193.805" height="35.7902" transform="translate(50.1045 71.6743)" fill="white"/>
    <rect x="55.7627" y="77.333" width="42.439" height="4.2439" rx="1.41463" fill="#091E42" fill-opacity="0.31"/>
    <rect x="55.7627" y="84.4062" width="182.488" height="0.42439" rx="0.212195" fill="#091E42" fill-opacity="0.04"/>
    <rect x="55.7627" y="87.6597" width="182.488" height="2.82927" rx="1.41463" fill="#091E42" fill-opacity="0.13"/>
    <path d="M55.7646 94.731C55.7646 93.9498 56.398 93.3164 57.1793 93.3164H78.3988C79.1801 93.3164 79.8134 93.9498 79.8134 94.731V100.39C79.8134 101.171 79.1801 101.804 78.3988 101.804H57.1793C56.398 101.804 55.7646 101.171 55.7646 100.39V94.731Z" fill="white"/>
    <path d="M55.7646 94.731C55.7646 93.9498 55.98 93.3164 56.2456 93.3164H79.3325C79.5981 93.3164 79.8134 93.9498 79.8134 94.731V100.39C79.8134 101.171 79.5981 101.804 79.3325 101.804H56.2456C55.98 101.804 55.7646 101.171 55.7646 100.39V94.731Z" fill="white"/>
    <path d="M55.7646 94.731C55.7646 93.9498 56.398 93.3164 57.1793 93.3164H78.3988C79.1801 93.3164 79.8134 93.9498 79.8134 94.731V100.39C79.8134 101.171 79.1801 101.804 78.3988 101.804H57.1793C56.398 101.804 55.7646 101.171 55.7646 100.39V94.731Z" stroke="#EBECF0" stroke-width="0.707317"/>
    <path d="M55.7646 94.731C55.7646 93.9498 55.98 93.3164 56.2456 93.3164H79.3325C79.5981 93.3164 79.8134 93.9498 79.8134 94.731V100.39C79.8134 101.171 79.5981 101.804 79.3325 101.804H56.2456C55.98 101.804 55.7646 101.171 55.7646 100.39V94.731Z" stroke="#EBECF0" stroke-width="0.707317"/>
    <rect x="59.8682" y="96.2715" width="15.561" height="2.82927" rx="1.41463" fill="#091E42" fill-opacity="0.13"/>
    <rect x="25.0059" y="23.6099" width="42.439" height="4.2439" rx="1.41463" fill="#091E42" fill-opacity="0.31"/>
    <path d="M57.8881 40.2544C59.0485 40.2544 59.7724 41.0584 59.7724 42.346C59.7724 43.6307 59.0513 44.4403 57.8881 44.4403C56.7194 44.4403 56.001 43.6307 56.001 42.346C56.001 41.0584 56.7304 40.2544 57.8881 40.2544ZM57.8881 40.8705C57.1808 40.8705 56.7304 41.4425 56.7304 42.346C56.7304 43.2439 57.1697 43.8241 57.8881 43.8241C58.5982 43.8241 59.0458 43.2439 59.0458 42.346C59.0458 41.4425 58.5954 40.8705 57.8881 40.8705ZM60.5184 44.3408V41.3209H61.1788V41.7906H61.2258C61.3086 41.4922 61.6347 41.2712 62.0242 41.2712C62.1237 41.2712 62.2453 41.2822 62.3088 41.2988V41.9232C62.2563 41.9039 62.074 41.8846 61.9579 41.8846C61.5131 41.8846 61.2036 42.1608 61.2036 42.5863V44.3408H60.5184ZM64.0937 45.4902C63.3173 45.4902 62.8089 45.1504 62.7537 44.6309H63.4416C63.4859 44.8437 63.729 44.9791 64.1048 44.9791C64.5745 44.9791 64.848 44.7525 64.848 44.3684V43.7938H64.801C64.627 44.1198 64.2982 44.2966 63.8782 44.2966C63.1156 44.2966 62.6404 43.7053 62.6404 42.7991C62.6404 41.8735 63.1184 41.2712 63.8892 41.2712C64.3009 41.2712 64.6601 41.4756 64.8259 41.8044H64.8729V41.3209H65.5332V44.3574C65.5332 45.0509 64.9751 45.4902 64.0937 45.4902ZM64.0937 43.7523C64.5717 43.7523 64.859 43.3821 64.859 42.7991C64.859 42.2133 64.5689 41.8431 64.0937 41.8431C63.6157 41.8431 63.3449 42.2133 63.3449 42.7963C63.3449 43.3821 63.6157 43.7523 64.0937 43.7523ZM67.2076 44.3906C66.6246 44.3906 66.2074 44.0369 66.2074 43.4843C66.2074 42.9428 66.619 42.625 67.354 42.5836L68.1331 42.5366V42.2769C68.1331 41.9757 67.9342 41.8072 67.564 41.8072C67.249 41.8072 67.0335 41.9205 66.9699 42.1277H66.3234C66.3787 41.6 66.8788 41.2629 67.5971 41.2629C68.3735 41.2629 68.8101 41.6386 68.8101 42.2769V44.3408H68.1497V43.9264H68.1028C67.9342 44.2193 67.6027 44.3906 67.2076 44.3906ZM67.4093 43.8628C67.8237 43.8628 68.1331 43.5921 68.1331 43.2329V42.987L67.4507 43.0339C67.0666 43.0588 66.8871 43.1997 66.8871 43.4511C66.8871 43.7109 67.1053 43.8628 67.4093 43.8628ZM69.6362 44.3408V41.3209H70.2965V41.8044H70.3435C70.4872 41.4673 70.7911 41.2629 71.2415 41.2629C71.9156 41.2629 72.2831 41.669 72.2831 42.3874V44.3408H71.5979V42.5477C71.5979 42.078 71.4045 41.8431 70.9873 41.8431C70.5784 41.8431 70.3214 42.1277 70.3214 42.5808V44.3408H69.6362ZM73.4436 40.8153C73.2198 40.8153 73.0346 40.6357 73.0346 40.4091C73.0346 40.1853 73.2198 40.003 73.4436 40.003C73.6701 40.003 73.8552 40.1853 73.8552 40.4091C73.8552 40.6357 73.6701 40.8153 73.4436 40.8153ZM73.1037 44.3408V41.3209H73.7862V44.3408H73.1037ZM74.5681 44.3408V43.9209L76.1734 41.9094V41.8597H74.5819V41.3209H76.9912V41.7796L75.4439 43.7551V43.802H77.0161V44.3408H74.5681ZM78.6186 44.3906C78.0356 44.3906 77.6184 44.0369 77.6184 43.4843C77.6184 42.9428 78.0301 42.625 78.765 42.5836L79.5442 42.5366V42.2769C79.5442 41.9757 79.3452 41.8072 78.975 41.8072C78.66 41.8072 78.4445 41.9205 78.381 42.1277H77.7344C77.7897 41.6 78.2898 41.2629 79.0081 41.2629C79.7845 41.2629 80.2211 41.6386 80.2211 42.2769V44.3408H79.5607V43.9264H79.5138C79.3452 44.2193 79.0137 44.3906 78.6186 44.3906ZM78.8203 43.8628C79.2347 43.8628 79.5442 43.5921 79.5442 43.2329V42.987L78.8617 43.0339C78.4777 43.0588 78.2981 43.1997 78.2981 43.4511C78.2981 43.7109 78.5163 43.8628 78.8203 43.8628ZM81.2655 40.5804H81.9479V41.3402H82.5945V41.8735H81.9479V43.3765C81.9479 43.6777 82.075 43.8131 82.3624 43.8131C82.4591 43.8131 82.5116 43.8076 82.5945 43.7993V44.3242C82.495 44.3436 82.3679 44.3546 82.2353 44.3546C81.5418 44.3546 81.2655 44.1225 81.2655 43.5396V41.8735H80.7875V41.3402H81.2655V40.5804ZM83.6278 40.8153C83.404 40.8153 83.2189 40.6357 83.2189 40.4091C83.2189 40.1853 83.404 40.003 83.6278 40.003C83.8544 40.003 84.0395 40.1853 84.0395 40.4091C84.0395 40.6357 83.8544 40.8153 83.6278 40.8153ZM83.288 44.3408V41.3209H83.9704V44.3408H83.288ZM86.1255 44.4016C85.2193 44.4016 84.6722 43.8103 84.6722 42.8295C84.6722 41.8569 85.2276 41.2629 86.1255 41.2629C87.0262 41.2629 87.5788 41.8542 87.5788 42.8295C87.5788 43.8103 87.029 44.4016 86.1255 44.4016ZM86.1255 43.8407C86.6035 43.8407 86.8743 43.4705 86.8743 42.8322C86.8743 42.194 86.6008 41.8238 86.1255 41.8238C85.6475 41.8238 85.374 42.194 85.374 42.8322C85.374 43.4705 85.6475 43.8407 86.1255 43.8407ZM88.2696 44.3408V41.3209H88.9299V41.8044H88.9769C89.1206 41.4673 89.4245 41.2629 89.8749 41.2629C90.549 41.2629 90.9165 41.669 90.9165 42.3874V44.3408H90.2313V42.5477C90.2313 42.078 90.0379 41.8431 89.6207 41.8431C89.2117 41.8431 88.9548 42.1277 88.9548 42.5808V44.3408H88.2696ZM91.6597 42.183C91.6597 41.6414 92.1571 41.2629 92.8699 41.2629C93.5883 41.2629 94.0386 41.5779 94.0884 42.1222H93.4446C93.3949 41.9094 93.1932 41.7713 92.8727 41.7713C92.5605 41.7713 92.3256 41.9232 92.3256 42.147C92.3256 42.3183 92.4693 42.4261 92.7732 42.4979L93.3065 42.6167C93.8839 42.7494 94.1519 42.9953 94.1519 43.4401C94.1519 44.0176 93.6187 44.4016 92.8644 44.4016C92.1101 44.4016 91.6349 44.0756 91.5824 43.5313H92.2593C92.3256 43.7551 92.5384 43.8932 92.881 43.8932C93.2263 43.8932 93.4667 43.7357 93.4667 43.5064C93.4667 43.3351 93.3368 43.2246 93.0495 43.1583L92.5135 43.0339C91.9333 42.9013 91.6597 42.6361 91.6597 42.183Z" fill="#091E42"/>
    <rect x="2" y="2" width="290" height="11.3171" fill="#25292E"/>
    <rect x="2" y="82.8657" width="42.439" height="12.7317" fill="#F4F5F7"/>
    <rect x="6.24512" y="40.1958" width="19.8049" height="4.2439" rx="1.41463" fill="#EBEDF0"/>
    <rect x="6.24512" y="55.7568" width="19.8049" height="4.2439" rx="1.41463" fill="#EBEDF0"/>
    <rect x="6.24512" y="71.3179" width="19.8049" height="4.2439" rx="1.41463" fill="#EBEDF0"/>
    <path d="M7.87898 87.8583C8.73676 87.8583 9.27185 88.4526 9.27185 89.4043C9.27185 90.354 8.7388 90.9524 7.87898 90.9524C7.01508 90.9524 6.48407 90.354 6.48407 89.4043C6.48407 88.4526 7.02325 87.8583 7.87898 87.8583ZM7.87898 88.3137C7.35615 88.3137 7.02325 88.7365 7.02325 89.4043C7.02325 90.0681 7.34798 90.497 7.87898 90.497C8.40386 90.497 8.73472 90.0681 8.73472 89.4043C8.73472 88.7365 8.40182 88.3137 7.87898 88.3137ZM9.82328 90.8789V88.6466H10.3114V88.9938H10.3461C10.4074 88.7733 10.6484 88.6099 10.9364 88.6099C11.0099 88.6099 11.0997 88.618 11.1467 88.6303V89.0919C11.1079 89.0776 10.9731 89.0633 10.8873 89.0633C10.5585 89.0633 10.3298 89.2675 10.3298 89.582V90.8789H9.82328ZM12.4661 91.7285C11.8922 91.7285 11.5164 91.4773 11.4755 91.0934H11.9841C12.0167 91.2506 12.1965 91.3507 12.4742 91.3507C12.8214 91.3507 13.0236 91.1832 13.0236 90.8993V90.4745H12.9889C12.8602 90.7155 12.6172 90.8462 12.3068 90.8462C11.7431 90.8462 11.3918 90.4092 11.3918 89.7393C11.3918 89.0551 11.7451 88.6099 12.3149 88.6099C12.6192 88.6099 12.8847 88.761 13.0073 89.004H13.042V88.6466H13.5301V90.8912C13.5301 91.4038 13.1176 91.7285 12.4661 91.7285ZM12.4661 90.4439C12.8194 90.4439 13.0318 90.1702 13.0318 89.7393C13.0318 89.3063 12.8173 89.0326 12.4661 89.0326C12.1127 89.0326 11.9126 89.3063 11.9126 89.7372C11.9126 90.1702 12.1127 90.4439 12.4661 90.4439ZM14.7678 90.9157C14.3368 90.9157 14.0284 90.6542 14.0284 90.2458C14.0284 89.8455 14.3327 89.6106 14.876 89.58L15.4519 89.5453V89.3533C15.4519 89.1307 15.3049 89.0061 15.0312 89.0061C14.7984 89.0061 14.6391 89.0898 14.5921 89.243H14.1142C14.1551 88.8529 14.5247 88.6037 15.0557 88.6037C15.6296 88.6037 15.9523 88.8815 15.9523 89.3533V90.8789H15.4642V90.5726H15.4295C15.3049 90.789 15.0598 90.9157 14.7678 90.9157ZM14.9169 90.5256C15.2232 90.5256 15.4519 90.3254 15.4519 90.0599V89.8782L14.9475 89.9129C14.6636 89.9313 14.5309 90.0354 14.5309 90.2213C14.5309 90.4133 14.6922 90.5256 14.9169 90.5256ZM16.563 90.8789V88.6466H17.0511V89.004H17.0858C17.192 88.7549 17.4167 88.6037 17.7496 88.6037C18.2479 88.6037 18.5195 88.904 18.5195 89.435V90.8789H18.013V89.5534C18.013 89.2062 17.8701 89.0326 17.5617 89.0326C17.2594 89.0326 17.0695 89.243 17.0695 89.5779V90.8789H16.563ZM19.3773 88.2729C19.2119 88.2729 19.075 88.1401 19.075 87.9727C19.075 87.8072 19.2119 87.6724 19.3773 87.6724C19.5448 87.6724 19.6816 87.8072 19.6816 87.9727C19.6816 88.1401 19.5448 88.2729 19.3773 88.2729ZM19.1261 90.8789V88.6466H19.6306V90.8789H19.1261ZM20.2085 90.8789V90.5685L21.3951 89.0817V89.0449H20.2187V88.6466H21.9997V88.9857L20.8559 90.4459V90.4807H22.018V90.8789H20.2085ZM23.2026 90.9157C22.7717 90.9157 22.4633 90.6542 22.4633 90.2458C22.4633 89.8455 22.7676 89.6106 23.3108 89.58L23.8868 89.5453V89.3533C23.8868 89.1307 23.7397 89.0061 23.466 89.0061C23.2332 89.0061 23.0739 89.0898 23.0269 89.243H22.549C22.5899 88.8529 22.9596 88.6037 23.4906 88.6037C24.0645 88.6037 24.3871 88.8815 24.3871 89.3533V90.8789H23.899V90.5726H23.8643C23.7397 90.789 23.4946 90.9157 23.2026 90.9157ZM23.3517 90.5256C23.658 90.5256 23.8868 90.3254 23.8868 90.0599V89.8782L23.3823 89.9129C23.0984 89.9313 22.9657 90.0354 22.9657 90.2213C22.9657 90.4133 23.127 90.5256 23.3517 90.5256ZM25.1591 88.0993H25.6636V88.6609H26.1415V89.0551H25.6636V90.1661C25.6636 90.3887 25.7575 90.4888 25.9699 90.4888C26.0414 90.4888 26.0802 90.4847 26.1415 90.4786V90.8667C26.068 90.8809 25.974 90.8891 25.876 90.8891C25.3634 90.8891 25.1591 90.7176 25.1591 90.2866V89.0551H24.8058V88.6609H25.1591V88.0993ZM26.9053 88.2729C26.7399 88.2729 26.6031 88.1401 26.6031 87.9727C26.6031 87.8072 26.7399 87.6724 26.9053 87.6724C27.0728 87.6724 27.2096 87.8072 27.2096 87.9727C27.2096 88.1401 27.0728 88.2729 26.9053 88.2729ZM26.6541 90.8789V88.6466H27.1586V90.8789H26.6541ZM28.7516 90.9238C28.0817 90.9238 27.6773 90.4868 27.6773 89.7618C27.6773 89.0429 28.0878 88.6037 28.7516 88.6037C29.4174 88.6037 29.8259 89.0408 29.8259 89.7618C29.8259 90.4868 29.4194 90.9238 28.7516 90.9238ZM28.7516 90.5092C29.1049 90.5092 29.3051 90.2356 29.3051 89.7638C29.3051 89.292 29.1029 89.0183 28.7516 89.0183C28.3983 89.0183 28.1961 89.292 28.1961 89.7638C28.1961 90.2356 28.3983 90.5092 28.7516 90.5092ZM30.3364 90.8789V88.6466H30.8246V89.004H30.8593C30.9655 88.7549 31.1901 88.6037 31.523 88.6037C32.0214 88.6037 32.293 88.904 32.293 89.435V90.8789H31.7865V89.5534C31.7865 89.2062 31.6435 89.0326 31.3351 89.0326C31.0329 89.0326 30.8429 89.243 30.8429 89.5779V90.8789H30.3364ZM32.8424 89.2838C32.8424 88.8835 33.21 88.6037 33.7369 88.6037C34.2679 88.6037 34.6008 88.8366 34.6376 89.2389H34.1617C34.125 89.0817 33.9759 88.9795 33.739 88.9795C33.5082 88.9795 33.3346 89.0919 33.3346 89.2573C33.3346 89.3839 33.4408 89.4636 33.6654 89.5167L34.0596 89.6045C34.4865 89.7025 34.6846 89.8843 34.6846 90.2131C34.6846 90.64 34.2904 90.9238 33.7328 90.9238C33.1753 90.9238 32.824 90.6828 32.7852 90.2805H33.2856C33.3346 90.4459 33.4918 90.548 33.7451 90.548C34.0004 90.548 34.1781 90.4316 34.1781 90.2621C34.1781 90.1355 34.0821 90.0538 33.8697 90.0048L33.4735 89.9129C33.0446 89.8149 32.8424 89.6188 32.8424 89.2838Z" fill="#091E42"/>
    <rect x="6.24512" y="102.378" width="19.8049" height="4.2439" rx="1.41463" fill="#EBEDF0"/>
    <rect x="6.24512" y="117.939" width="19.8049" height="4.2439" rx="1.41463" fill="#EBEDF0"/>
    <rect x="6.24512" y="133.5" width="19.8049" height="4.2439" rx="1.41463" fill="#EBEDF0"/>
    <rect x="70.3184" y="55.6782" width="25.7933" height="4.18269" rx="1.41463" fill="#C7CCE5"/>
    <g clip-path="url(#clip0_48_3870)">
        <path fill-rule="evenodd" clip-rule="evenodd" d="M13.1632 3.88623C11.1139 3.88623 9.45215 5.57562 9.45215 7.65967C9.45215 9.32687 10.5155 10.7413 11.99 11.2403C12.1755 11.2752 12.2436 11.1584 12.2436 11.0587C12.2436 10.9688 12.2401 10.6715 12.2385 10.3562C11.2061 10.5845 10.9882 9.91099 10.9882 9.91099C10.8194 9.47484 10.5762 9.35886 10.5762 9.35886C10.2395 9.12466 10.6016 9.12948 10.6016 9.12948C10.9742 9.1561 11.1705 9.51833 11.1705 9.51833C11.5014 10.0952 12.0386 9.92843 12.2504 9.83201C12.2837 9.58813 12.3799 9.42166 12.486 9.32743C11.6617 9.23202 10.7952 8.90846 10.7952 7.46258C10.7952 7.05061 10.9402 6.714 11.1776 6.44974C11.1391 6.3547 11.012 5.97091 11.2135 5.45114C11.2135 5.45114 11.5252 5.34973 12.2343 5.83793C12.5304 5.75433 12.8478 5.7124 13.1632 5.71096C13.4786 5.7124 13.7963 5.75433 14.0929 5.83793C14.8012 5.34973 15.1124 5.45114 15.1124 5.45114C15.3144 5.97091 15.1873 6.3547 15.1488 6.44974C15.3867 6.714 15.5307 7.05061 15.5307 7.46258C15.5307 8.9119 14.6626 9.23102 13.8362 9.32443C13.9693 9.44153 14.0879 9.67117 14.0879 10.0232C14.0879 10.5281 14.0836 10.9345 14.0836 11.0587C14.0836 11.1592 14.1504 11.2768 14.3385 11.2398C15.8122 10.7403 16.8742 9.32631 16.8742 7.65967C16.8742 5.57562 15.2127 3.88623 13.1632 3.88623Z" fill="white"/>
    </g>
    <circle cx="12.8042" cy="26.0508" r="6.6226" fill="#EBEDF0"/>
    <rect x="1.29268" y="1.29268" width="291.415" height="188.146" rx="3.53659" stroke="#EBECF0" stroke-width="1.41463"/>
    <defs>
        <clipPath id="clip0_48_3870">
            <rect width="7.4359" height="7.4359" fill="white" transform="translate(9.43652 3.85938)"/>
        </clipPath>
    </defs>
</svg>
