<svg width="449" height="144" viewBox="0 0 449 144" fill="none" xmlns="http://www.w3.org/2000/svg">
    <g clip-path="url(#clip0_3689_74468)">
        <rect width="144" height="144" fill="white" fill-opacity="0.01"/>
        <path d="M129.601 64.0092L77.074 9.81926L71.9179 4.5L32.4417 45.2256L14.3955 64.0092C12.4619 66.004 12.4619 69.1623 14.3955 70.9908L50.488 108.226L71.9179 130.334L111.394 89.6082L112.039 88.9433L129.601 70.9908C131.535 68.996 131.535 65.8377 129.601 64.0092ZM71.9179 86.1174L53.8716 67.5L71.9179 48.8826L89.9642 67.5L71.9179 86.1174Z" fill="#2684FF"/>
        <path d="M71.9195 48.8821C60.1572 36.7476 59.9961 16.9666 71.7584 4.66577L32.4434 45.3914L53.8733 67.4995L71.9195 48.8821Z" fill="url(#paint0_linear_3689_74468)"/>
        <path d="M90.1234 67.3335L71.916 86.1171C83.8394 98.4179 83.8394 118.199 71.916 130.5L111.553 89.6079L90.1234 67.3335Z" fill="url(#paint1_linear_3689_74468)"/>
    </g>
    <path d="M158.6 72H290" stroke="#36B37E" stroke-width="4"/>
    <circle cx="224" cy="72" r="20" fill="white"/>
    <rect width="42" height="42" transform="translate(203 51)" fill="white" fill-opacity="0.01"/>
    <path fill-rule="evenodd" clip-rule="evenodd" d="M241.5 72C241.5 81.665 233.665 89.5 224 89.5C214.335 89.5 206.5 81.665 206.5 72C206.5 62.335 214.335 54.5 224 54.5C233.665 54.5 241.5 62.335 241.5 72ZM219.419 70.3706C219.633 70.4623 219.826 70.5956 219.987 70.7628L222.25 73.0255L228.013 67.2628C228.174 67.0956 228.367 66.9623 228.581 66.8706C228.794 66.7789 229.024 66.7306 229.256 66.7286C229.489 66.7266 229.719 66.7709 229.934 66.8588C230.149 66.9468 230.345 67.0768 230.509 67.2411C230.673 67.4054 230.803 67.6008 230.891 67.8159C230.979 68.0309 231.023 68.2614 231.021 68.4937C231.019 68.7261 230.971 68.9557 230.879 69.1692C230.788 69.3828 230.654 69.5759 230.487 69.7373L223.487 76.7373C223.159 77.0654 222.714 77.2497 222.25 77.2497C221.786 77.2497 221.341 77.0654 221.013 76.7373L217.513 73.2373C217.346 73.0759 217.212 72.8828 217.121 72.6692C217.029 72.4557 216.981 72.2261 216.979 71.9937C216.977 71.7614 217.021 71.5309 217.109 71.3159C217.197 71.1008 217.327 70.9054 217.491 70.7411C217.655 70.5768 217.851 70.4468 218.066 70.3588C218.281 70.2709 218.511 70.2266 218.744 70.2286C218.976 70.2306 219.206 70.2789 219.419 70.3706Z" fill="#36B37E"/>
    <path fill-rule="evenodd" clip-rule="evenodd" d="M376.594 18.0011C346.779 18.0011 322.6 42.7884 322.6 73.3695C322.6 97.8312 338.071 118.581 359.529 125.903C362.23 126.413 363.215 124.704 363.215 123.235C363.215 121.923 363.168 118.438 363.142 113.82C348.123 117.165 344.954 106.396 344.954 106.396C342.498 99.9991 338.957 98.2965 338.957 98.2965C334.054 94.8644 339.329 94.9311 339.329 94.9311C344.749 95.3218 347.6 100.638 347.6 100.638C352.416 109.098 360.24 106.654 363.317 105.235C363.807 101.66 365.203 99.2193 366.745 97.8359C354.754 96.4383 342.147 91.688 342.147 70.471C342.147 64.4278 344.252 59.4821 347.706 55.6148C347.149 54.214 345.296 48.5822 348.237 40.9619C348.237 40.9619 352.768 39.4738 363.085 46.6382C367.391 45.4074 372.012 44.7959 376.603 44.7721C381.192 44.7959 385.81 45.4074 390.122 46.6382C400.431 39.4738 404.956 40.9619 404.956 40.9619C407.903 48.5822 406.05 54.214 405.496 55.6148C408.957 59.4821 411.046 64.4278 411.046 70.471C411.046 91.7404 398.419 96.4208 386.393 97.7915C388.329 99.5004 390.055 102.88 390.055 108.047C390.055 115.446 389.989 121.418 389.989 123.233C389.989 124.715 390.964 126.438 393.701 125.898C415.142 118.561 430.6 97.8232 430.6 73.3679C430.6 42.7884 406.42 17.9995 376.596 17.9995" fill="#42526E"/>
    <defs>
        <linearGradient id="paint0_linear_3689_74468" x1="68.76" y1="30.0072" x2="42.7709" y2="55.199" gradientUnits="userSpaceOnUse">
            <stop offset="0.176" stop-color="#0052CC"/>
            <stop offset="1" stop-color="#2684FF"/>
        </linearGradient>
        <linearGradient id="paint1_linear_3689_74468" x1="75.4276" y1="104.7" x2="101.365" y2="79.5589" gradientUnits="userSpaceOnUse">
            <stop offset="0.176" stop-color="#0052CC"/>
            <stop offset="1" stop-color="#2684FF"/>
        </linearGradient>
        <clipPath id="clip0_3689_74468">
            <rect width="144" height="144" fill="white"/>
        </clipPath>
    </defs>
</svg>
