<svg width="208" height="96" viewBox="0 0 208 96" fill="none" xmlns="http://www.w3.org/2000/svg">
    <rect width="56" height="49" transform="translate(20 24)" fill="white" fill-opacity="0.01"/>
    <path d="M70.4012 47.1425L49.9738 26.0686L47.9687 24L32.6168 39.8377L25.5989 47.1425C24.8469 47.9182 24.8469 49.1464 25.5989 49.8575L39.6348 64.3377L47.9687 72.9353L63.3205 57.0976L63.5712 56.839L70.4012 49.8575C71.1531 49.0818 71.1531 47.8536 70.4012 47.1425ZM47.9687 55.7401L40.9507 48.5L47.9687 41.2599L54.9867 48.5L47.9687 55.7401Z" fill="#2684FF"/>
    <path d="M47.9687 41.2599C43.3944 36.5409 43.3318 28.8483 47.906 24.0647L32.6168 39.9024L40.9507 48.5001L47.9687 41.2599Z" fill="url(#paint0_linear_515_26570)"/>
    <path d="M55.0493 48.4353L47.9686 55.7401C52.6055 60.5237 52.6055 68.2163 47.9686 72.9999L63.3831 57.0976L55.0493 48.4353Z" fill="url(#paint1_linear_515_26570)"/>
    <circle cx="103.5" cy="47.5" r="9.5" fill="white"/>
    <mask id="path-7-inside-1_515_26570" fill="white">
        <path fill-rule="evenodd" clip-rule="evenodd" d="M119.203 53C119.72 51.4269 120 49.7461 120 48C120 46.2539 119.72 44.5731 119.203 43H156.351C156.903 43 157.351 43.4477 157.351 44V52C157.351 52.5523 156.903 53 156.351 53H119.203Z"/>
    </mask>
    <path fill-rule="evenodd" clip-rule="evenodd" d="M119.203 53C119.72 51.4269 120 49.7461 120 48C120 46.2539 119.72 44.5731 119.203 43H156.351C156.903 43 157.351 43.4477 157.351 44V52C157.351 52.5523 156.903 53 156.351 53H119.203Z" fill="url(#paint2_linear_515_26570)"/>
    <path d="M119.203 53L118.253 52.6878L117.822 54H119.203V53ZM119.203 43V42H117.822L118.253 43.3122L119.203 43ZM119 48C119 49.6387 118.738 51.2142 118.253 52.6878L120.153 53.3122C120.703 51.6396 121 49.8535 121 48H119ZM118.253 43.3122C118.738 44.7858 119 46.3613 119 48H121C121 46.1465 120.703 44.3604 120.153 42.6878L118.253 43.3122ZM156.351 42H119.203V44H156.351V42ZM158.351 44C158.351 42.8954 157.455 42 156.351 42V44V44H158.351ZM158.351 52V44H156.351V52H158.351ZM156.351 54C157.455 54 158.351 53.1046 158.351 52H156.351V54ZM119.203 54H156.351V52H119.203V54Z" fill="url(#paint3_linear_515_26570)" mask="url(#path-7-inside-1_515_26570)"/>
    <mask id="path-9-inside-2_515_26570" fill="white">
        <path fill-rule="evenodd" clip-rule="evenodd" d="M88.7968 43H51.6494C51.0971 43 50.6494 43.4477 50.6494 44V52C50.6494 52.5523 51.0971 53 51.6494 53H88.7968C88.2797 51.4269 88 49.7461 88 48C88 46.2539 88.2797 44.5731 88.7968 43Z"/>
    </mask>
    <path fill-rule="evenodd" clip-rule="evenodd" d="M88.7968 43H51.6494C51.0971 43 50.6494 43.4477 50.6494 44V52C50.6494 52.5523 51.0971 53 51.6494 53H88.7968C88.2797 51.4269 88 49.7461 88 48C88 46.2539 88.2797 44.5731 88.7968 43Z" fill="url(#paint4_linear_515_26570)"/>
    <path d="M88.7968 43L89.7468 43.3122L90.1781 42H88.7968V43ZM88.7968 53V54H90.1781L89.7468 52.6877L88.7968 53ZM51.6494 44H88.7968V42H51.6494V44ZM51.6494 44V44V42C50.5448 42 49.6494 42.8954 49.6494 44H51.6494ZM51.6494 52V44H49.6494V52H51.6494ZM51.6494 52H51.6494H49.6494C49.6494 53.1046 50.5448 54 51.6494 54V52ZM88.7968 52H51.6494V54H88.7968V52ZM89.7468 52.6877C89.2624 51.2142 89 49.6387 89 48H87C87 49.8535 87.297 51.6396 87.8468 53.3123L89.7468 52.6877ZM89 48C89 46.3613 89.2624 44.7858 89.7468 43.3122L87.8468 42.6878C87.297 44.3604 87 46.1465 87 48H89Z" fill="url(#paint5_linear_515_26570)" mask="url(#path-9-inside-2_515_26570)"/>
    <path fill-rule="evenodd" clip-rule="evenodd" d="M117.333 48.0001C117.333 55.3639 111.364 61.3334 104 61.3334C96.6362 61.3334 90.6666 55.3639 90.6666 48.0001C90.6666 40.6363 96.6362 34.6667 104 34.6667C111.364 34.6667 117.333 40.6363 117.333 48.0001ZM100.51 46.7586C100.673 46.8285 100.82 46.9301 100.943 47.0574L102.667 48.7814L107.057 44.3908C107.18 44.2634 107.327 44.1619 107.49 44.092C107.653 44.0221 107.828 43.9853 108.005 43.9838C108.182 43.9822 108.357 44.016 108.521 44.083C108.685 44.1501 108.834 44.2491 108.959 44.3742C109.084 44.4994 109.183 44.6483 109.25 44.8122C109.317 44.976 109.351 45.1516 109.35 45.3286C109.348 45.5057 109.311 45.6806 109.241 45.8433C109.172 46.006 109.07 46.1531 108.943 46.2761L103.609 51.6094C103.359 51.8594 103.02 51.9998 102.667 51.9998C102.313 51.9998 101.974 51.8594 101.724 51.6094L99.0573 48.9428C98.9299 48.8198 98.8284 48.6727 98.7585 48.51C98.6886 48.3473 98.6518 48.1723 98.6503 47.9953C98.6487 47.8183 98.6825 47.6427 98.7495 47.4788C98.8166 47.315 98.9156 47.1661 99.0408 47.0409C99.166 46.9157 99.3148 46.8167 99.4787 46.7497C99.6425 46.6826 99.8181 46.6489 99.9952 46.6504C100.172 46.652 100.347 46.6888 100.51 46.7586Z" fill="#22A06B"/>
    <g clip-path="url(#clip0_515_26570)">
        <path fill-rule="evenodd" clip-rule="evenodd" d="M159.998 21.6653C145.09 21.6653 133 33.7537 133 48.6665C133 60.5941 140.736 70.715 151.465 74.2869C152.816 74.5341 153.308 73.7002 153.308 72.9841C153.308 72.3426 153.285 70.6453 153.271 68.3927C145.76 70.0237 144.176 64.7728 144.176 64.7728C142.947 61.6533 141.177 60.8229 141.177 60.8229C138.726 59.1488 141.363 59.1818 141.363 59.1818C144.073 59.3726 145.498 61.9648 145.498 61.9648C147.907 66.0904 151.818 64.8987 153.357 64.2075C153.602 62.4638 154.3 61.2737 155.071 60.5991C149.075 59.9162 142.772 57.6006 142.772 47.2543C142.772 44.3056 143.824 41.8971 145.551 40.0092C145.273 39.3263 144.346 36.5814 145.817 32.8635C145.817 32.8635 148.083 32.1376 153.241 35.63C155.394 35.0316 157.705 34.7333 160 34.7217C162.294 34.7311 164.603 35.0318 166.76 35.63C171.915 32.1376 174.177 32.8635 174.177 32.8635C175.651 36.5814 174.724 39.3263 174.447 40.0092C176.178 41.8971 177.222 44.3056 177.222 47.2543C177.222 57.6271 170.908 59.9095 164.895 60.5774C165.863 61.4112 166.726 63.0588 166.726 65.5783C166.726 69.1867 166.694 72.099 166.694 72.9841C166.694 73.7068 167.181 74.5472 168.55 74.2837C179.271 70.7051 187 60.5925 187 48.6665C187 33.7537 174.91 21.6653 159.997 21.6653" fill="#e3e6e6"/>
    </g>
    <defs>
        <linearGradient id="paint0_linear_515_26570" x1="46.74" y1="33.9197" x2="36.6331" y2="43.7165" gradientUnits="userSpaceOnUse">
            <stop offset="0.176" stop-color="#0052CC"/>
            <stop offset="1" stop-color="#2684FF"/>
        </linearGradient>
        <linearGradient id="paint1_linear_515_26570" x1="49.3343" y1="62.9669" x2="59.421" y2="53.1896" gradientUnits="userSpaceOnUse">
            <stop offset="0.176" stop-color="#0052CC"/>
            <stop offset="1" stop-color="#2684FF"/>
        </linearGradient>
        <linearGradient id="paint2_linear_515_26570" x1="95.3184" y1="48" x2="140.008" y2="48" gradientUnits="userSpaceOnUse">
            <stop stop-color="#57D9A3"/>
            <stop offset="1" stop-color="#57D9A3" stop-opacity="0"/>
        </linearGradient>
        <linearGradient id="paint3_linear_515_26570" x1="103.999" y1="48" x2="123.499" y2="48" gradientUnits="userSpaceOnUse">
            <stop stop-color="#57D9A3"/>
            <stop offset="1" stop-color="#57D9A3" stop-opacity="0"/>
        </linearGradient>
        <linearGradient id="paint4_linear_515_26570" x1="112.682" y1="48" x2="67.9918" y2="48" gradientUnits="userSpaceOnUse">
            <stop stop-color="#57D9A3"/>
            <stop offset="1" stop-color="#57D9A3" stop-opacity="0"/>
        </linearGradient>
        <linearGradient id="paint5_linear_515_26570" x1="104.001" y1="48" x2="84.501" y2="48" gradientUnits="userSpaceOnUse">
            <stop stop-color="#57D9A3"/>
            <stop offset="1" stop-color="#57D9A3" stop-opacity="0"/>
        </linearGradient>
        <clipPath id="clip0_515_26570">
            <rect width="54" height="54" fill="white" transform="translate(133 21)"/>
        </clipPath>
    </defs>
</svg>
