<svg width="122" height="40" viewBox="0 0 122 40" fill="none" xmlns="http://www.w3.org/2000/svg">
<g clip-path="url(#clip0_787_24626)">
<rect width="40" height="40" transform="translate(0.131165)" fill="white" fill-opacity="0.01"/>
<path d="M36.132 17.7803L21.5411 2.72757L20.1088 1.25L9.14321 12.5627L4.13036 17.7803C3.59327 18.3344 3.59327 19.2117 4.13036 19.7197L14.1561 30.0627L20.1088 36.2038L31.0744 24.8912L31.2534 24.7065L36.132 19.7197C36.6691 19.1656 36.6691 18.2883 36.132 17.7803ZM20.1088 23.9215L15.096 18.75L20.1088 13.5785L25.1217 18.75L20.1088 23.9215Z" fill="#2684FF"/>
<path d="M20.1088 13.5787C16.8415 10.208 16.7967 4.71327 20.064 1.29639L9.14319 12.6091L15.0959 18.7502L20.1088 13.5787Z" fill="url(#paint0_linear_787_24626)"/>
<path d="M25.1664 18.7036L20.1088 23.9213C23.4208 27.3382 23.4208 32.8329 20.1088 36.2498L31.1191 24.8909L25.1664 18.7036Z" fill="url(#paint1_linear_787_24626)"/>
</g>
<rect width="19.9708" height="19.9708" transform="translate(52.1312 10.0146)" fill="white" fill-opacity="0.01"/>
<path fill-rule="evenodd" clip-rule="evenodd" d="M70.4377 19.9999C70.4377 24.5955 66.7122 28.321 62.1166 28.321C57.5209 28.321 53.7954 24.5955 53.7954 19.9999C53.7954 15.4042 57.5209 11.6787 62.1166 11.6787C66.7122 11.6787 70.4377 15.4042 70.4377 19.9999ZM59.9384 19.2251C60.04 19.2687 60.1318 19.3321 60.2085 19.4116L61.2845 20.4875L64.0246 17.7474C64.1014 17.6679 64.1932 17.6045 64.2947 17.5609C64.3962 17.5173 64.5054 17.4943 64.6159 17.4934C64.7264 17.4924 64.836 17.5134 64.9382 17.5553C65.0405 17.5971 65.1334 17.6589 65.2115 17.737C65.2897 17.8152 65.3515 17.9081 65.3933 18.0103C65.4351 18.1126 65.4562 18.2222 65.4552 18.3327C65.4543 18.4432 65.4313 18.5523 65.3877 18.6539C65.3441 18.7554 65.2807 18.8472 65.2012 18.924L61.8728 22.2524C61.7167 22.4084 61.5051 22.4961 61.2845 22.4961C61.0638 22.4961 60.8522 22.4084 60.6962 22.2524L59.0319 20.5882C58.9524 20.5114 58.8891 20.4196 58.8454 20.3181C58.8018 20.2166 58.7789 20.1074 58.7779 19.9969C58.777 19.8864 58.798 19.7768 58.8398 19.6746C58.8817 19.5723 58.9435 19.4794 59.0216 19.4013C59.0997 19.3231 59.1926 19.2614 59.2949 19.2195C59.3972 19.1777 59.5067 19.1566 59.6172 19.1576C59.7277 19.1585 59.8369 19.1815 59.9384 19.2251Z" fill="#36B37E"/>
<path d="M44.1312 19.0146H52.1312V21.0146H44.1312V19.0146Z" fill="#36B37E"/>
<path d="M72.1312 19.0146H80.1312V21.0146H72.1312V19.0146Z" fill="#36B37E"/>
<g clip-path="url(#clip1_787_24626)">
<rect width="29.7377" height="32" transform="translate(88.1312 4)" fill="white" fill-opacity="0.01"/>
<path d="M89.1148 4H116.885C117.146 4 117.396 4.10363 117.581 4.28809C117.765 4.47255 117.869 4.72274 117.869 4.98361V11.7869H88.1312V4.98361C88.1312 4.72274 88.2348 4.47255 88.4193 4.28809C88.6037 4.10363 88.8539 4 89.1148 4V4ZM88.1312 22.2951H117.869V14.4918H88.1312V22.2951ZM88.1312 32.7869H117.869V25H88.1312V32.7869Z" fill="#E5E8EC"/>
<path d="M113.967 35.9999H116.344L117.164 34.1475H113.918L113.967 35.9999Z" fill="#A5ADBA"/>
<path d="M92.0328 35.9999H89.6394L88.8197 34.1475H92.0656L92.0328 35.9999Z" fill="#A5ADBA"/>
<path opacity="0.4" d="M88.1312 4.98373V11.787H97.8361C94.6722 10.0657 91.6722 8.18045 89.1476 5.19684C88.9017 4.90176 88.6558 4.60668 88.4262 4.27881C88.3325 4.37068 88.2581 4.48038 88.2075 4.60144C88.1568 4.7225 88.1308 4.85248 88.1312 4.98373Z" fill="url(#paint2_linear_787_24626)"/>
<path opacity="0.4" d="M114.623 25H88.1312V32.7869H117.82C117.227 30.0215 116.144 27.3845 114.623 25Z" fill="url(#paint3_linear_787_24626)"/>
<path opacity="0.4" d="M88.1312 22.295H112.656C112.18 21.7376 111.689 21.1638 111.131 20.6065C108.492 17.9179 105.672 16.0819 102.852 14.4917H88.1312V22.295Z" fill="url(#paint4_linear_787_24626)"/>
<path d="M88.8361 13.1478H117.164L117.869 11.7871H88.1312L88.8361 13.1478Z" fill="#A5ADBA"/>
<path d="M117.164 13.1475H88.8361L88.1312 14.4917H117.869L117.164 13.1475Z" fill="#CFD4DB"/>
<path d="M88.8361 23.6392H117.164L117.869 22.2949H88.1312L88.8361 23.6392Z" fill="#A5ADBA"/>
<path d="M88.8361 34.1478H117.164L117.869 32.7871H88.1312L88.8361 34.1478Z" fill="#A5ADBA"/>
<path d="M117.164 23.6392H88.8361L88.1312 24.9998H117.869L117.164 23.6392Z" fill="#CFD4DB"/>
<path d="M113.918 9.26224C114.597 9.26224 115.148 8.71177 115.148 8.03273C115.148 7.35369 114.597 6.80322 113.918 6.80322C113.239 6.80322 112.689 7.35369 112.689 8.03273C112.689 8.71177 113.239 9.26224 113.918 9.26224Z" fill="#0065FF"/>
<path d="M110.607 8.57367C110.905 8.57367 111.148 8.33146 111.148 8.03268C111.148 7.73391 110.905 7.4917 110.607 7.4917C110.308 7.4917 110.066 7.73391 110.066 8.03268C110.066 8.33146 110.308 8.57367 110.607 8.57367Z" fill="#FFAB00"/>
<path d="M108.656 8.57367C108.955 8.57367 109.197 8.33146 109.197 8.03268C109.197 7.73391 108.955 7.4917 108.656 7.4917C108.357 7.4917 108.115 7.73391 108.115 8.03268C108.115 8.33146 108.357 8.57367 108.656 8.57367Z" fill="#FF991F"/>
<path d="M110.607 18.9345C110.905 18.9345 111.148 18.6923 111.148 18.3935C111.148 18.0947 110.905 17.8525 110.607 17.8525C110.308 17.8525 110.066 18.0947 110.066 18.3935C110.066 18.6923 110.308 18.9345 110.607 18.9345Z" fill="#FFAB00"/>
<path d="M108.656 18.9345C108.955 18.9345 109.197 18.6923 109.197 18.3935C109.197 18.0947 108.955 17.8525 108.656 17.8525C108.357 17.8525 108.115 18.0947 108.115 18.3935C108.115 18.6923 108.357 18.9345 108.656 18.9345Z" fill="#FF991F"/>
<path d="M110.607 29.4428C110.905 29.4428 111.148 29.2006 111.148 28.9018C111.148 28.603 110.905 28.3608 110.607 28.3608C110.308 28.3608 110.066 28.603 110.066 28.9018C110.066 29.2006 110.308 29.4428 110.607 29.4428Z" fill="#FFAB00"/>
<path d="M108.656 29.4428C108.955 29.4428 109.197 29.2006 109.197 28.9018C109.197 28.603 108.955 28.3608 108.656 28.3608C108.357 28.3608 108.115 28.603 108.115 28.9018C108.115 29.2006 108.357 29.4428 108.656 29.4428Z" fill="#FF991F"/>
<path d="M113.918 19.6231C114.597 19.6231 115.148 19.0726 115.148 18.3936C115.148 17.7145 114.597 17.1641 113.918 17.1641C113.239 17.1641 112.689 17.7145 112.689 18.3936C112.689 19.0726 113.239 19.6231 113.918 19.6231Z" fill="#0065FF"/>
<path d="M113.918 30.1314C114.597 30.1314 115.148 29.5809 115.148 28.9019C115.148 28.2228 114.597 27.6724 113.918 27.6724C113.239 27.6724 112.689 28.2228 112.689 28.9019C112.689 29.5809 113.239 30.1314 113.918 30.1314Z" fill="#0065FF"/>
<path d="M94.8361 16.0327H94.5082V21.0721H94.8361V16.0327Z" fill="white"/>
<path d="M93.4755 16.0327H93.1476V21.0721H93.4755V16.0327Z" fill="white"/>
<path d="M92.1148 16.0327H91.7869V21.0721H92.1148V16.0327Z" fill="white"/>
<path d="M90.7541 16.0327H90.4263V21.0721H90.7541V16.0327Z" fill="white"/>
<path d="M94.8361 5.52441H94.5082V10.5638H94.8361V5.52441Z" fill="white"/>
<path d="M93.4755 5.52441H93.1476V10.5638H93.4755V5.52441Z" fill="white"/>
<path d="M92.1148 5.52441H91.7869V10.5638H92.1148V5.52441Z" fill="white"/>
<path d="M90.7541 5.52441H90.4263V10.5638H90.7541V5.52441Z" fill="white"/>
<path d="M94.8361 26.377H94.5082V31.4163H94.8361V26.377Z" fill="white"/>
<path d="M93.4755 26.377H93.1476V31.4163H93.4755V26.377Z" fill="white"/>
<path d="M92.1148 26.377H91.7869V31.4163H92.1148V26.377Z" fill="white"/>
<path d="M90.7541 26.377H90.4263V31.4163H90.7541V26.377Z" fill="white"/>
</g>
<defs>
<linearGradient id="paint0_linear_787_24626" x1="19.2311" y1="8.33568" x2="12.0119" y2="15.3334" gradientUnits="userSpaceOnUse">
<stop offset="0.176" stop-color="#0052CC"/>
<stop offset="1" stop-color="#2684FF"/>
</linearGradient>
<linearGradient id="paint1_linear_787_24626" x1="21.0842" y1="29.0833" x2="28.289" y2="22.0996" gradientUnits="userSpaceOnUse">
<stop offset="0.176" stop-color="#0052CC"/>
<stop offset="1" stop-color="#2684FF"/>
</linearGradient>
<linearGradient id="paint2_linear_787_24626" x1="92.9836" y1="35.0706" x2="92.9836" y2="-10.5277" gradientUnits="userSpaceOnUse">
<stop stop-color="#B3BAC5"/>
<stop offset="0.75" stop-color="#B3BAC5" stop-opacity="0.1"/>
</linearGradient>
<linearGradient id="paint3_linear_787_24626" x1="2776.72" y1="1500.85" x2="2776.72" y2="-665.074" gradientUnits="userSpaceOnUse">
<stop stop-color="#B3BAC5"/>
<stop offset="0.75" stop-color="#B3BAC5" stop-opacity="0.1"/>
</linearGradient>
<linearGradient id="paint4_linear_787_24626" x1="1922.33" y1="1493.45" x2="1922.33" y2="-677.035" gradientUnits="userSpaceOnUse">
<stop stop-color="#B3BAC5"/>
<stop offset="0.75" stop-color="#B3BAC5" stop-opacity="0.1"/>
</linearGradient>
<clipPath id="clip0_787_24626">
<rect width="40" height="40" fill="white" transform="translate(0.131165)"/>
</clipPath>
<clipPath id="clip1_787_24626">
<rect width="29.7377" height="32" fill="white" transform="translate(88.1312 4)"/>
</clipPath>
</defs>
</svg>
