<svg width="24" height="24" viewBox="0 0 24 24" fill="none" xmlns="http://www.w3.org/2000/svg">
    <rect width="24" height="24" fill="white" fill-opacity="0.01"/>
    <path fill-rule="evenodd" clip-rule="evenodd" d="M3 6.99991H6V8.99991H3V6.99991ZM3 14.9999H14V16.9999H3V14.9999ZM10 6.99991H21V8.99991H10V6.99991ZM18 14.9999H21V16.9999H18V14.9999Z" fill="#42526E"/>
    <path fill-rule="evenodd" clip-rule="evenodd" d="M11 7.99991C11.0073 8.39842 10.9352 8.79439 10.7878 9.1647C10.6404 9.53502 10.4207 9.87224 10.1415 10.1567C9.86225 10.4411 9.52917 10.6671 9.16166 10.8214C8.79415 10.9756 8.39958 11.0551 8.00101 11.0552C7.60243 11.0552 7.20784 10.9759 6.84028 10.8217C6.47272 10.6676 6.13956 10.4417 5.86026 10.1574C5.58097 9.87305 5.36113 9.5359 5.2136 9.16563C5.06606 8.79537 4.99379 8.39942 5.001 8.00091C5.01522 7.21487 5.33742 6.46583 5.89828 5.91493C6.45915 5.36403 7.21384 5.05531 8.00001 5.05518C8.78617 5.05504 9.54098 5.36352 10.102 5.91423C10.6631 6.46494 10.9855 7.21388 11 7.99991ZM9 7.99991C9.0043 7.86599 8.98165 7.73258 8.93339 7.60759C8.88513 7.4826 8.81224 7.36859 8.71906 7.27231C8.62588 7.17604 8.5143 7.09947 8.39095 7.04716C8.2676 6.99485 8.135 6.96786 8.00102 6.96779C7.86703 6.96773 7.7344 6.99458 7.611 7.04677C7.4876 7.09896 7.37595 7.17542 7.28267 7.27159C7.18939 7.36777 7.11639 7.48172 7.068 7.60666C7.01962 7.7316 6.99683 7.86499 7.001 7.99891C7.00908 8.25852 7.11786 8.50481 7.30432 8.68564C7.49077 8.86647 7.74027 8.96766 8.00002 8.96779C8.25976 8.96792 8.50936 8.86698 8.696 8.68634C8.88263 8.50569 8.99166 8.25952 9 7.99991ZM19 15.9999C19.0073 16.3984 18.9352 16.7944 18.7878 17.1647C18.6404 17.535 18.4207 17.8722 18.1415 18.1567C17.8623 18.4411 17.5292 18.6671 17.1617 18.8214C16.7942 18.9756 16.3996 19.0551 16.001 19.0552C15.6024 19.0552 15.2078 18.9759 14.8403 18.8217C14.4727 18.6676 14.1396 18.4417 13.8603 18.1574C13.581 17.8731 13.3611 17.5359 13.2136 17.1656C13.0661 16.7954 12.9938 16.3994 13.001 16.0009C13.0152 15.2149 13.3374 14.4658 13.8983 13.9149C14.4591 13.364 15.2138 13.0553 16 13.0552C16.7862 13.055 17.541 13.3635 18.102 13.9142C18.6631 14.4649 18.9855 15.2139 19 15.9999ZM17 15.9999C17.0043 15.866 16.9817 15.7326 16.9334 15.6076C16.8851 15.4826 16.8122 15.3686 16.7191 15.2723C16.6259 15.176 16.5143 15.0995 16.391 15.0472C16.2676 14.9949 16.135 14.9679 16.001 14.9678C15.867 14.9677 15.7344 14.9946 15.611 15.0468C15.4876 15.099 15.3759 15.1754 15.2827 15.2716C15.1894 15.3678 15.1164 15.4817 15.068 15.6067C15.0196 15.7316 14.9968 15.865 15.001 15.9989C15.0091 16.2585 15.1179 16.5048 15.3043 16.6856C15.4908 16.8665 15.7403 16.9677 16 16.9678C16.2598 16.9679 16.5094 16.867 16.696 16.6863C16.8826 16.5057 16.9917 16.2595 17 15.9999Z" fill="#42526E"/>
</svg>
