<svg width="24" height="24" viewBox="0 0 24 24" fill="none" xmlns="http://www.w3.org/2000/svg">
    <rect width="24" height="24" fill="white" fill-opacity="0.01"/>
    <path fill-rule="evenodd" clip-rule="evenodd" d="M12 18C11.7348 18 11.4804 17.8946 11.2929 17.7071C11.1054 17.5196 11 17.2652 11 17C11 16.7348 11.1054 16.4804 11.2929 16.2929C11.4804 16.1054 11.7348 16 12 16C12.2652 16 12.5196 16.1054 12.7071 16.2929C12.8946 16.4804 13 16.7348 13 17C13 17.2652 12.8946 17.5196 12.7071 17.7071C12.5196 17.8946 12.2652 18 12 18ZM9.99999 9.00001C9.99999 9.26522 9.89464 9.51958 9.7071 9.70711C9.51956 9.89465 9.26521 10 8.99999 10C8.73478 10 8.48042 9.89465 8.29289 9.70711C8.10535 9.51958 7.99999 9.26522 7.99999 9.00001C7.99999 8.73479 8.10535 8.48044 8.29289 8.2929C8.48042 8.10536 8.73478 8.00001 8.99999 8.00001C9.26521 8.00001 9.51956 8.10536 9.7071 8.2929C9.89464 8.48044 9.99999 8.73479 9.99999 9.00001Z" fill="#42526E"/>
    <path fill-rule="evenodd" clip-rule="evenodd" d="M15.89 8.04801C15.7186 7.33274 15.352 6.67911 14.8309 6.16C14.3099 5.64089 13.6549 5.27669 12.939 5.10801C12.3433 4.965 11.7228 4.96056 11.1251 5.09501C10.5274 5.22947 9.96856 5.49923 9.49151 5.88356C9.01445 6.26789 8.63192 6.75653 8.37335 7.31189C8.11477 7.86726 7.98705 8.47453 7.99999 9.08701C8.00277 9.08992 8.00578 9.09259 8.00899 9.09501L9.88699 9.11701L9.99899 9.00101C9.99926 8.47039 10.2102 7.96158 10.5854 7.58638C10.9606 7.21117 11.4694 7.00027 12 7.00001C13.103 7.00001 14 7.89701 14 9.00001C14 10.102 13.103 11 12 11H12.008C11.7454 11.0005 11.4935 11.1043 11.3067 11.289C11.12 11.4737 11.0134 11.7244 11.01 11.987V14.001C11.01 14.2662 11.1154 14.5206 11.3029 14.7081C11.4904 14.8956 11.7448 15.001 12.01 15.001C12.2752 15.001 12.5296 14.8956 12.7171 14.7081C12.9046 14.5206 13.01 14.2662 13.01 14.001V13.219C13.01 13.002 13.155 12.82 13.359 12.747C14.2864 12.4142 15.0578 11.7501 15.5249 10.8826C15.992 10.0151 16.1217 9.00541 15.889 8.04801" fill="#42526E"/>
</svg>
