<svg width="182" height="196" viewBox="0 0 182 196" fill="none" xmlns="http://www.w3.org/2000/svg">
    <g clip-path="url(#clip0_1088_482)">
        <rect width="181.4" height="195.2" transform="translate(0.500244 0.0996094)" fill="white" fill-opacity="0.01"/>
        <path d="M6.50024 0.0996094H175.9C177.492 0.0996094 179.018 0.73175 180.143 1.85697C181.268 2.98219 181.9 4.50831 181.9 6.09961V47.5996H0.500244V6.09961C0.500244 4.50831 1.13239 2.98219 2.2576 1.85697C3.38282 0.73175 4.90895 0.0996094 6.50024 0.0996094V0.0996094ZM0.500244 111.7H181.9V64.0996H0.500244V111.7ZM0.500244 175.7H181.9V128.2H0.500244V175.7Z" fill="#E5E8EC"/>
        <path d="M158.1 195.3H172.6L177.6 184H157.8L158.1 195.3Z" fill="#A5ADBA"/>
        <path d="M24.3002 195.3H9.7002L4.7002 184H24.5002L24.3002 195.3Z" fill="#A5ADBA"/>
        <path opacity="0.4" d="M0.500263 6.09883V47.5988H59.7003C40.4003 37.0988 22.1003 25.5988 6.70026 7.39883C5.20026 5.59883 3.70026 3.79883 2.30026 1.79883C1.72853 2.35923 1.27473 3.02839 0.965598 3.76688C0.656464 4.50536 0.498245 5.29825 0.500263 6.09883Z" fill="url(#paint0_linear_1088_482)"/>
        <path opacity="0.4" d="M162.1 128.199H0.500244V175.699H181.6C177.982 158.831 171.378 142.744 162.1 128.199Z" fill="url(#paint1_linear_1088_482)"/>
        <path opacity="0.4" d="M0.500244 111.7H150.1C147.2 108.3 144.2 104.8 140.8 101.4C124.7 84.9996 107.5 73.7996 90.3002 64.0996H0.500244V111.7Z" fill="url(#paint2_linear_1088_482)"/>
        <path d="M4.80024 55.8996H177.6L181.9 47.5996H0.500244L4.80024 55.8996Z" fill="#A5ADBA"/>
        <path d="M177.6 55.9004H4.80024L0.500244 64.1004H181.9L177.6 55.9004Z" fill="#CFD4DB"/>
        <path d="M4.80024 119.899H177.6L181.9 111.699H0.500244L4.80024 119.899Z" fill="#A5ADBA"/>
        <path d="M4.80024 183.999H177.6L181.9 175.699H0.500244L4.80024 183.999Z" fill="#A5ADBA"/>
        <path d="M177.6 119.9H4.80024L0.500244 128.2H181.9L177.6 119.9Z" fill="#CFD4DB"/>
        <path d="M157.8 32.1992C161.942 32.1992 165.3 28.8414 165.3 24.6992C165.3 20.5571 161.942 17.1992 157.8 17.1992C153.658 17.1992 150.3 20.5571 150.3 24.6992C150.3 28.8414 153.658 32.1992 157.8 32.1992Z" fill="#0065FF"/>
        <path d="M137.6 28.0004C139.423 28.0004 140.9 26.5229 140.9 24.7004C140.9 22.8779 139.423 21.4004 137.6 21.4004C135.778 21.4004 134.3 22.8779 134.3 24.7004C134.3 26.5229 135.778 28.0004 137.6 28.0004Z" fill="#FFAB00"/>
        <path d="M125.7 28.0004C127.523 28.0004 129 26.5229 129 24.7004C129 22.8779 127.523 21.4004 125.7 21.4004C123.878 21.4004 122.4 22.8779 122.4 24.7004C122.4 26.5229 123.878 28.0004 125.7 28.0004Z" fill="#FF991F"/>
        <path d="M137.6 91.1996C139.423 91.1996 140.9 89.7222 140.9 87.8996C140.9 86.0771 139.423 84.5996 137.6 84.5996C135.778 84.5996 134.3 86.0771 134.3 87.8996C134.3 89.7222 135.778 91.1996 137.6 91.1996Z" fill="#FFAB00"/>
        <path d="M125.7 91.1996C127.523 91.1996 129 89.7222 129 87.8996C129 86.0771 127.523 84.5996 125.7 84.5996C123.878 84.5996 122.4 86.0771 122.4 87.8996C122.4 89.7222 123.878 91.1996 125.7 91.1996Z" fill="#FF991F"/>
        <path d="M137.6 155.299C139.423 155.299 140.9 153.822 140.9 151.999C140.9 150.177 139.423 148.699 137.6 148.699C135.778 148.699 134.3 150.177 134.3 151.999C134.3 153.822 135.778 155.299 137.6 155.299Z" fill="#FFAB00"/>
        <path d="M125.7 155.299C127.523 155.299 129 153.822 129 151.999C129 150.177 127.523 148.699 125.7 148.699C123.878 148.699 122.4 150.177 122.4 151.999C122.4 153.822 123.878 155.299 125.7 155.299Z" fill="#FF991F"/>
        <path d="M157.8 95.4004C161.942 95.4004 165.3 92.0425 165.3 87.9004C165.3 83.7583 161.942 80.4004 157.8 80.4004C153.658 80.4004 150.3 83.7583 150.3 87.9004C150.3 92.0425 153.658 95.4004 157.8 95.4004Z" fill="#0065FF"/>
        <path d="M157.8 159.5C161.942 159.5 165.3 156.142 165.3 152C165.3 147.858 161.942 144.5 157.8 144.5C153.658 144.5 150.3 147.858 150.3 152C150.3 156.142 153.658 159.5 157.8 159.5Z" fill="#0065FF"/>
        <path d="M41.4001 73.5H39.4001V104.24H41.4001V73.5Z" fill="white"/>
        <path d="M33.1003 73.5H31.1003V104.24H33.1003V73.5Z" fill="white"/>
        <path d="M24.8003 73.5H22.8003V104.24H24.8003V73.5Z" fill="white"/>
        <path d="M16.5002 73.5H14.5002V104.24H16.5002V73.5Z" fill="white"/>
        <path d="M41.4001 9.40039H39.4001V40.1404H41.4001V9.40039Z" fill="white"/>
        <path d="M33.1003 9.40039H31.1003V40.1404H33.1003V9.40039Z" fill="white"/>
        <path d="M24.8003 9.40039H22.8003V40.1404H24.8003V9.40039Z" fill="white"/>
        <path d="M16.5002 9.40039H14.5002V40.1404H16.5002V9.40039Z" fill="white"/>
        <path d="M41.4001 136.6H39.4001V167.34H41.4001V136.6Z" fill="white"/>
        <path d="M33.1003 136.6H31.1003V167.34H33.1003V136.6Z" fill="white"/>
        <path d="M24.8003 136.6H22.8003V167.34H24.8003V136.6Z" fill="white"/>
        <path d="M16.5002 136.6H14.5002V167.34H16.5002V136.6Z" fill="white"/>
    </g>
    <defs>
        <linearGradient id="paint0_linear_1088_482" x1="30.1003" y1="189.629" x2="30.1003" y2="-88.5212" gradientUnits="userSpaceOnUse">
            <stop stop-color="#B3BAC5"/>
            <stop offset="0.75" stop-color="#B3BAC5" stop-opacity="0.1"/>
        </linearGradient>
        <linearGradient id="paint1_linear_1088_482" x1="16400.9" y1="9130.87" x2="16400.9" y2="-4081.25" gradientUnits="userSpaceOnUse">
            <stop stop-color="#B3BAC5"/>
            <stop offset="0.75" stop-color="#B3BAC5" stop-opacity="0.1"/>
        </linearGradient>
        <linearGradient id="paint2_linear_1088_482" x1="11189.1" y1="9085.73" x2="11189.1" y2="-4154.21" gradientUnits="userSpaceOnUse">
            <stop stop-color="#B3BAC5"/>
            <stop offset="0.75" stop-color="#B3BAC5" stop-opacity="0.1"/>
        </linearGradient>
        <clipPath id="clip0_1088_482">
            <rect width="181.4" height="195.2" fill="white" transform="translate(0.500244 0.0996094)"/>
        </clipPath>
    </defs>
</svg>
