<svg width="469" height="559" viewBox="0 0 469 559" fill="none" xmlns="http://www.w3.org/2000/svg">
<g clip-path="url(#clip0_1375_263)">
<rect width="468.37" height="558.91" fill="white" fill-opacity="0.01"/>
<path d="M229.69 103.77C228.75 103.8 228.07 102.29 227.88 101.29C227.81 100.93 227.6 99.4297 228.57 98.1397C229.45 96.9697 230.3 97.3097 231.86 95.9997C233.38 94.7097 233.75 93.3797 234.18 93.4997C234.55 93.5997 234.59 94.6697 234.37 95.5697C233.96 97.2497 232.86 97.3297 232.16 99.0797C231.6 100.48 232.1 100.93 231.33 102.26C231.06 102.71 230.45 103.74 229.69 103.77Z" fill="#A17F68"/>
<path d="M229.52 97.7502C229.52 97.7502 235.17 97.0303 236.19 95.9403C237.21 94.8403 237.34 93.7602 237.95 93.8802C238.56 94.0002 237.87 96.1402 238.11 96.4502C238.36 96.7602 238.84 96.6203 238.74 97.3003C238.64 97.9803 238.65 98.7902 238.23 99.5002C237.81 100.21 235.11 102.76 233.8 103.16C232.5 103.56 229.84 104.53 228.5 104.02C227.15 103.51 228.81 98.7402 228.81 98.7402L229.52 97.7502Z" fill="#A17F68"/>
<path d="M201.23 92.9102C202.16 94.3602 203.08 95.8101 204.02 97.2701C206.47 101.08 208.91 104.86 211.36 108.61C216.85 105.27 222.35 101.93 227.84 98.5901C228.85 101.06 229.86 103.52 230.87 105.99C228.21 108.05 224.27 110.96 219.26 114.19C214.26 117.41 211.91 119.65 208.87 119.02C207.21 118.68 206.18 117.72 204.34 115.98C202.47 114.21 199.76 111.17 197.53 106.4C198.77 101.9 200 97.4002 201.23 92.9102Z" fill="url(#paint0_linear_1375_263)"/>
<path d="M205.17 149.6H168.89L173.89 119.43H199.17L205.17 149.6Z" fill="#172B4D"/>
<path d="M192.42 89.7795C192.22 90.0595 190.28 92.7395 186.78 92.8195C183.48 92.8895 181.47 90.5995 181.21 90.2995C181.47 90.1095 181.84 89.7995 182.18 89.3395C182.18 89.3395 182.47 88.9495 182.69 88.4595C183.05 87.6495 183.16 85.9395 182.72 83.8395C185.7 83.6495 188.68 83.4595 191.66 83.2695C191.56 84.0895 191.43 85.2295 191.29 86.6695C191.21 87.4595 191.16 88.0895 191.5 88.7595C191.76 89.2695 192.14 89.5895 192.42 89.7795Z" fill="url(#paint1_linear_1375_263)"/>
<path d="M186.89 223.279C187.03 222.759 187.18 222.229 187.32 221.709C189.21 220.909 191.46 219.779 193.83 218.149C195.85 216.769 197.49 215.339 198.79 214.059C200.68 214.199 202.57 214.329 204.46 214.469C204.74 215.559 205 216.799 205.19 218.159C205.38 219.499 205.46 220.729 205.49 221.839C204.33 221.849 203.17 221.859 202.01 221.869C201.69 221.649 201.37 221.429 201.05 221.209C200.82 221.469 200.58 221.739 200.35 221.999C197.93 222.629 194.99 223.169 191.61 223.319C189.91 223.409 188.33 223.379 186.89 223.279Z" fill="#091E42"/>
<path d="M163.06 220.4C163.27 219.88 163.47 219.36 163.68 218.84C165.21 218.26 167.03 217.43 168.94 216.22C171.61 214.54 173.59 212.69 174.96 211.18C176.77 211.45 178.58 211.73 180.39 212C180.75 212.89 181.11 214 181.35 215.28C181.68 216.99 181.71 218.49 181.65 219.66C180.51 219.77 179.38 219.89 178.24 220C177.9 219.62 177.56 219.25 177.22 218.87C176.81 219.22 176.4 219.56 175.98 219.91C174.9 220.06 173.83 220.2 172.75 220.35C171.47 220.35 170.19 220.34 168.9 220.35C166.95 220.36 165 220.38 163.06 220.4Z" fill="#091E42"/>
<path d="M181.59 89.3887C179.97 89.6587 177.68 90.2887 175.54 91.9087C173.24 93.6487 172.18 95.7487 171.62 96.7587C170.02 99.6387 167.34 103.689 162.63 108.909C159.89 106.549 157.15 104.189 154.41 101.839C152.38 105.169 150.34 108.499 148.31 111.839C150.99 114.159 153.55 115.399 155.24 116.069C157.58 116.999 159.77 117.859 162.48 117.459C163.44 117.319 165.19 117.029 168.9 114.049C171.02 112.339 173.8 109.899 176.79 106.599C178.38 100.869 179.99 95.1287 181.59 89.3887Z" fill="url(#paint2_linear_1375_263)"/>
<path d="M177.08 117.53C176.81 119.25 176.42 121.85 176.03 125.03C173.96 142.08 174.53 154.95 174.72 160.55C175.09 171.18 175.16 187.29 173.96 211.84C174.73 211.87 175.53 211.89 176.33 211.89C180.35 211.89 184.05 211.49 187.37 210.86C187.56 192.72 187.75 174.58 187.94 156.44C190.39 175.74 192.84 195.05 195.29 214.35C196.9 214.85 199.18 215.37 201.96 215.41C204.98 215.45 207.45 214.91 209.13 214.4C208.45 204.07 207.52 193.4 206.31 182.42C205.62 176.18 204.86 170.06 204.04 164.07C203.89 159.81 203.64 156.32 203.45 153.94C202.86 146.76 201.95 136.16 198.57 123.41C197.86 120.73 197.2 118.57 196.79 117.27C190.29 117.4 183.59 117.39 177.08 117.53Z" fill="#0049B0"/>
<path d="M191.24 87.7793C190.99 88.0493 189.43 89.6793 186.92 89.6693C184.62 89.6593 183.15 88.2793 182.86 87.9893C182.64 88.4393 182.42 88.8893 182.2 89.3293C183.16 91.1493 185.02 92.3093 187.05 92.3593C189.18 92.4093 191.18 91.2393 192.18 89.3293C191.86 88.8193 191.55 88.2993 191.24 87.7793Z" fill="#2684FF"/>
<path d="M178.62 90.1498C180.07 89.5598 181.36 89.3898 182.19 89.3398C182.36 89.6498 183.59 91.8298 186.12 92.2898C188.41 92.6998 190.82 91.5298 192.11 89.3398C192.83 89.4298 194.73 90.2598 196.22 90.4698C196.84 90.5598 197.46 90.6698 198.05 90.8898C198.05 90.8898 200.02 91.4298 201.54 93.3498C203.19 95.4498 202.91 99.6598 200.27 103.35C198.98 107.32 196.7 109.29 195.41 113.26C195.94 114.65 196.47 116.04 197 117.43C193.29 117.48 189.55 117.52 185.78 117.53C182.86 117.54 179.96 117.54 177.08 117.53C176.39 113.04 176.23 112.44 175.24 110.86C175.24 110.86 173.76 108.36 173.07 105.5C172.97 105.08 172.91 104.61 172.9 104.03C172.84 100.84 174.38 100.55 174.69 95.8699C174.78 94.4599 174.72 93.3298 175.54 92.1998C176.35 91.0798 177.59 90.5698 178.62 90.1498Z" fill="#2684FF"/>
<path d="M163.49 109.209H151.94C150.99 109.209 150.15 108.619 149.83 107.719L144.26 92.209C144 91.479 144.54 90.709 145.32 90.709H156.87C157.82 90.709 158.66 91.299 158.98 92.199L164.55 107.709C164.81 108.439 164.27 109.209 163.49 109.209Z" fill="#091E42"/>
<path d="M150.62 102.769C150.44 103.919 149.35 105.169 148.49 104.999C148 104.909 147.59 104.359 147.45 103.899C147.31 103.429 147.51 103.279 147.32 102.839C147.09 102.329 146.72 102.369 146.56 101.869C146.47 101.609 146.56 101.559 146.56 100.929C146.56 100.099 146.4 100.059 146.48 99.7593C146.68 99.0493 147.77 98.5093 148.49 98.7393C148.74 98.8193 148.7 98.9193 149.12 99.1193C149.8 99.4493 150.09 99.2893 150.34 99.5493C150.57 99.7893 150.5 100.099 150.49 100.849C150.48 102.189 150.71 102.179 150.62 102.769Z" fill="#A17F68"/>
<path d="M201.35 119.43C201.79 120.29 202.2 121.17 202.61 122.09C206.86 131.75 207.72 141.39 207.23 149.6C202.87 149.6 198.52 149.6 194.16 149.6L192.21 119.43C195.25 119.43 198.3 119.43 201.35 119.43Z" fill="#172B4D"/>
<path d="M190.3 84.4097C191.01 84.0297 191.58 83.6697 191.96 83.4197C192.51 82.9297 193.95 81.5197 194.39 79.2097C194.62 77.9697 194.48 76.9197 194.33 76.2497L194.15 75.3797C193.59 72.6397 191.67 70.3697 189.05 69.3697L188.86 69.2997C188.1 69.0097 187.31 68.8397 186.5 68.7797C186.24 68.7597 185.21 68.6997 184.09 68.9697C182.64 69.3197 180 70.5297 179.04 72.9197C178.8 73.5197 178.61 74.8997 178.23 77.6597C178.2 77.8797 178.13 78.4097 177.95 79.1097C177.75 79.8997 177.52 80.5297 177.35 80.9397C177.76 81.1197 178.17 81.2997 178.58 81.4797C178.68 83.0397 179.06 84.2197 179.38 84.9897C179.68 85.7197 179.86 86.1297 180.28 86.4597C180.77 86.8397 181.47 87.0097 183.84 86.5497C185.63 86.2197 187.72 85.7997 190.3 84.4097Z" fill="#A17F68"/>
<path d="M177.3 74.5001C178.7 74.7001 180.19 74.8601 181.76 74.9701C183.86 75.1201 185.83 75.1601 187.64 75.1201C187.71 80.2601 187.77 85.3901 187.84 90.5301C189.02 89.8001 194.12 86.4601 195.34 80.2201C195.63 78.7501 196.54 74.1201 193.68 70.5601C192.2 68.7201 190.37 67.9801 189.69 67.7101C188.77 67.3501 184.24 65.7301 180.6 68.5001C177.83 70.6101 177.38 73.8101 177.3 74.5001Z" fill="#091E42"/>
<path d="M177.46 78.4799C178.068 78.4799 178.56 77.7949 178.56 76.9499C178.56 76.1049 178.068 75.4199 177.46 75.4199C176.853 75.4199 176.36 76.1049 176.36 76.9499C176.36 77.7949 176.853 78.4799 177.46 78.4799Z" stroke="#DFE1E5" stroke-width="0.4772" stroke-miterlimit="10"/>
<path d="M181.37 78.4799C181.978 78.4799 182.47 77.7949 182.47 76.9499C182.47 76.1049 181.978 75.4199 181.37 75.4199C180.762 75.4199 180.27 76.1049 180.27 76.9499C180.27 77.7949 180.762 78.4799 181.37 78.4799Z" stroke="#DFE1E5" stroke-width="0.4772" stroke-miterlimit="10"/>
<path d="M178.56 76.9492H180.27" stroke="#DFE1E5" stroke-width="0.4772" stroke-miterlimit="10"/>
<path d="M182.48 76.9492H188.69" stroke="#DFE1E5" stroke-width="0.4771" stroke-miterlimit="10" stroke-linecap="round"/>
<path d="M171.83 96.0994C170.72 98.0494 169.29 100.339 167.27 103.339C169.48 108.699 171.68 114.069 173.89 119.429C174.34 119.519 174.81 119.609 175.3 119.679C176.22 119.819 177.09 119.889 177.89 119.929C178.28 118.299 178.77 115.879 178.99 112.909C179.34 108.129 178.71 105.589 178.66 102.219C178.61 99.1395 179.04 94.7895 181.21 89.4395C180.84 89.5095 180.46 89.5994 180.06 89.6994C179.62 89.8194 179.14 89.9595 178.62 90.1395C177.65 90.4395 176.9 90.8094 176.5 91.0194C176.5 91.0194 176.37 91.0895 176.2 91.1795C174.86 91.9595 172 95.8694 171.83 96.0994Z" fill="url(#paint3_linear_1375_263)"/>
<path d="M206.35 102.22C205.07 105.37 201.47 117.42 201.35 119.43C199.51 119.43 194.05 119.43 192.21 119.43C190.78 113.8 191.07 109.48 191.65 106.49C192.27 103.32 193.29 101.24 193.37 97.3898C193.44 94.0098 192.74 91.2198 192.11 89.3398C192.85 89.4198 193.62 89.5398 194.42 89.6498C195.43 89.7898 196.5 89.9598 197.02 90.1398C198.84 90.8498 200.13 91.6698 200.41 91.8498C201.54 92.6298 205.64 100.06 206.35 102.22Z" fill="url(#paint4_linear_1375_263)"/>
<path d="M170.34 149.6C172.23 149.57 174.13 149.54 176.02 149.5C176.64 139.64 177.89 119.93 177.89 119.93L175.3 119.68C175.3 119.68 172.03 139.4 170.34 149.6Z" fill="#172B4D"/>
<path opacity="0.38" d="M231.33 414.229C284.637 414.229 327.85 371.016 327.85 317.709C327.85 264.403 284.637 221.189 231.33 221.189C178.024 221.189 134.81 264.403 134.81 317.709C134.81 371.016 178.024 414.229 231.33 414.229Z" fill="url(#paint5_radial_1375_263)"/>
<path d="M156.12 355.76H78.0601V446.6H156.12V355.76Z" fill="#0052CC"/>
<path opacity="0.7" d="M128.73 419.35C119.85 403.09 124.6 395.76 114.58 380.96C107.56 370.6 96.3698 361.13 84.7698 355.77H78.0698V446.61H156.01C146.21 440.85 135.92 432.51 128.73 419.35Z" fill="url(#paint6_linear_1375_263)"/>
<path d="M234.18 355.76H156.12V446.6H234.18V355.76Z" fill="#0065FF"/>
<path d="M312.25 355.76H234.19V446.6H312.25V355.76Z" fill="#00B8D9"/>
<path opacity="0.7" d="M312.25 440.5C299.64 435 280.53 426.22 269.18 405.45C260.3 389.19 265.05 381.86 255.03 367.06C252.35 363.1 249.06 359.28 245.37 355.77H234.18V446.61H312.24V440.5H312.25Z" fill="url(#paint7_linear_1375_263)"/>
<path d="M390.31 355.76H312.25V446.6H390.31V355.76Z" fill="url(#paint8_linear_1375_263)"/>
<path d="M342.58 390.39C342.6 397.12 342.86 403.84 343.21 410.56C348.13 410.48 356.69 410.45 364.83 410.45C364.88 403.45 365.04 396.44 365.05 389.44C365.05 389.24 378.05 389.16 390.3 389.18V355.75H312.24V390.13C325.68 390.09 342.58 390.16 342.58 390.39Z" fill="url(#paint9_linear_1375_263)"/>
<path d="M234.18 220H156.12V310.84H234.18V220Z" fill="#C1C7D0"/>
<path d="M234.19 309.71C221.96 304.05 206.24 295.06 196.37 277C187.49 260.74 192.24 253.41 182.22 238.61C177.53 231.69 170.98 225.17 163.69 220H156.12V310.84H234.18V309.71H234.19Z" fill="url(#paint10_linear_1375_263)"/>
<path d="M312.25 220H234.19V310.84H312.25V220Z" fill="url(#paint11_linear_1375_263)"/>
<path d="M120.43 340.131H90.3901V355.761H120.43V340.131Z" fill="#0052CC"/>
<path d="M171.15 340.131H141.11V355.761H171.15V340.131Z" fill="#0052CC"/>
<path d="M221.86 340.131H191.82V355.761H221.86V340.131Z" fill="#0052CC"/>
<path d="M78.06 446.6H0V537.44H78.06V446.6Z" fill="#0052CC"/>
<path opacity="0.7" d="M49.71 510.189C40.83 493.929 45.58 486.599 35.56 471.799C28.54 461.439 17.35 451.969 5.75 446.609H0V537.449H76.99C67.2 531.689 56.9 523.349 49.71 510.189Z" fill="url(#paint12_linear_1375_263)"/>
<path d="M156.12 446.6H78.0601V537.44H156.12V446.6Z" fill="#0065FF"/>
<path d="M42.3701 430.971H12.3301V446.601H42.3701V430.971Z" fill="#0052CC"/>
<path d="M93.08 430.971H63.04V446.601H93.08V430.971Z" fill="#0052CC"/>
<path d="M143.8 430.971H113.76V446.601H143.8V430.971Z" fill="#0052CC"/>
<path d="M276.56 340.131H246.52V355.761H276.56V340.131Z" fill="#00C7E5"/>
<path d="M327.27 340.131H297.23V355.761H327.27V340.131Z" fill="#00C7E5"/>
<path d="M377.98 340.131H347.94V355.761H377.98V340.131Z" fill="#00C7E5"/>
<path d="M234.18 446.6H156.12V537.44H234.18V446.6Z" fill="#0052CC"/>
<path opacity="0.7" d="M205.99 510.189C197.11 493.929 201.86 486.599 191.84 471.799C184.82 461.439 173.63 451.969 162.03 446.609H156.13V537.449H233.27C223.48 531.689 213.18 523.349 205.99 510.189Z" fill="url(#paint13_linear_1375_263)"/>
<path d="M312.25 446.6H234.19V537.44H312.25V446.6Z" fill="#0065FF"/>
<path d="M390.31 446.6H312.25V537.44H390.31V446.6Z" fill="#0052CC"/>
<path opacity="0.7" d="M362.51 510.189C353.63 493.929 358.38 486.599 348.36 471.799C341.34 461.439 330.15 451.969 318.55 446.609H312.26V537.449H389.8C380 531.689 369.7 523.349 362.51 510.189Z" fill="url(#paint14_linear_1375_263)"/>
<path d="M468.37 446.6H390.31V537.44H468.37V446.6Z" fill="url(#paint15_linear_1375_263)"/>
<path d="M198.49 430.971H168.45V446.601H198.49V430.971Z" fill="#0052CC"/>
<path d="M249.21 430.971H219.17V446.601H249.21V430.971Z" fill="#0052CC"/>
<path d="M299.92 430.971H269.88V446.601H299.92V430.971Z" fill="#0052CC"/>
<path d="M354.62 430.971H324.58V446.601H354.62V430.971Z" fill="#0052CC"/>
<path d="M405.33 430.971H375.29V446.601H405.33V430.971Z" fill="#0052CC"/>
<path d="M456.05 430.971H426.01V446.601H456.05V430.971Z" fill="#0052CC"/>
<path d="M249.21 204.369H219.17V219.999H249.21V204.369Z" fill="#C1C7D0"/>
<path d="M350.56 328.759L371.23 315.959C371.71 315.659 371.46 314.919 370.9 314.969L348.63 317.209L348.11 312.059C348.07 311.669 347.63 311.449 347.3 311.659L326.63 324.459C326.15 324.759 326.4 325.499 326.96 325.449L349.23 323.209L349.75 328.359C349.79 328.749 350.22 328.959 350.56 328.759Z" fill="url(#paint16_linear_1375_263)"/>
<path d="M334.41 304.86L338.01 293.28C338.08 293.04 337.79 292.87 337.61 293.05L329.97 301.15L328.09 299.37C327.96 299.25 327.76 299.31 327.7 299.47L324.1 311.05C324.03 311.29 324.32 311.46 324.5 311.28L332.14 303.18L334.02 304.96C334.15 305.08 334.36 305.03 334.41 304.86Z" fill="url(#paint17_linear_1375_263)"/>
<path d="M127.95 314.161L103.69 315.701C103.12 315.741 103 316.511 103.52 316.731L124.21 325.251L122.24 330.031C122.09 330.401 122.37 330.791 122.77 330.771L147.03 329.231C147.6 329.191 147.72 328.421 147.2 328.201L126.51 319.681L128.48 314.901C128.62 314.531 128.34 314.141 127.95 314.161Z" fill="url(#paint18_linear_1375_263)"/>
<path d="M234.19 117.42V0" stroke="url(#paint19_linear_1375_263)" stroke-width="4.8539" stroke-miterlimit="10"/>
<path d="M234.19 166.27L156.12 220V308.56" stroke="#DFE1E5" stroke-width="4.8539" stroke-miterlimit="10" stroke-linecap="round" stroke-linejoin="round"/>
<path d="M225.59 162.93C225.59 168.24 230.41 172.43 235.91 171.36C239.26 170.71 241.96 168.01 242.61 164.66C243.56 159.79 240.39 155.46 235.97 154.53C234.93 154.31 234.18 153.4 234.18 152.34V145.15" stroke="#0065FF" stroke-width="4.021" stroke-miterlimit="10" stroke-linecap="round" stroke-linejoin="round"/>
<path d="M234.19 130.18C237.714 130.18 240.57 127.324 240.57 123.8C240.57 120.276 237.714 117.42 234.19 117.42C230.666 117.42 227.81 120.276 227.81 123.8C227.81 127.324 230.666 130.18 234.19 130.18Z" stroke="#0065FF" stroke-width="4.021" stroke-miterlimit="10" stroke-linecap="round" stroke-linejoin="round"/>
<path d="M235.88 146.101H232.5C230.35 146.101 228.54 144.471 228.32 142.331L227.19 131.451C226.93 128.971 228.88 126.811 231.37 126.811H237.02C239.51 126.811 241.46 128.971 241.2 131.451L240.07 142.331C239.83 144.471 238.03 146.101 235.88 146.101Z" fill="#0065FF"/>
<path d="M198.49 204.369H168.45V219.999H198.49V204.369Z" fill="#C1C7D0"/>
<path d="M312.25 308.56V220L234.19 166.27" stroke="#DFE1E5" stroke-width="4.8539" stroke-miterlimit="10" stroke-linecap="round" stroke-linejoin="round"/>
<path d="M299.92 204.369H269.88V219.999H299.92V204.369Z" fill="#C1C7D0"/>
<path d="M325.66 384.85V375.83H315.75V369.51H339.7" stroke="#CFD4DB" stroke-width="2.1306" stroke-miterlimit="10" stroke-linecap="round" stroke-linejoin="round"/>
<path d="M337.64 372.81H319.7C318.61 372.81 317.73 371.93 317.73 370.84V368.72C317.73 367.63 318.61 366.75 319.7 366.75H337.64C338.73 366.75 339.61 367.63 339.61 368.72V370.84C339.61 371.93 338.73 372.81 337.64 372.81Z" fill="#344563"/>
<path d="M325.26 389.78C326.21 390.03 327.39 389.81 328.25 389.17C331.29 386.91 328.54 378.11 327.59 378.22C327.44 378.24 325.49 377.95 325.33 377.97C325.16 377.99 323.21 379.07 323.08 379.19C322.34 379.87 322.41 381.27 322.35 382.51C322.3 383.68 322.56 384.83 323.12 385.86L325.26 389.78Z" fill="#72594B"/>
<path d="M383.89 424.569C384.02 424.979 384.2 425.609 384.39 426.379C384.95 428.609 385.3 430.899 385.6 437.249C385.85 442.589 385.6 440.979 385.79 443.679C385.99 446.559 386.28 448.499 385.22 450.639C384.82 451.439 384.35 452.029 384.02 452.399L365.54 469.659C363.95 468.589 362.36 467.529 360.77 466.459C366.73 459.949 372.68 453.449 378.64 446.949L375.65 424.509L379.95 423.369L383.89 424.569Z" fill="#FFAB00"/>
<path d="M377.94 453.999C377.78 453.329 377.57 452.569 377.27 451.769C376.92 450.819 376.52 449.999 376.14 449.309C375.68 449.449 374.93 449.669 373.99 449.849C373.18 450.009 372.56 450.069 372.23 450.119C370.33 450.389 366.71 450.829 356.94 451.569C356.47 452.149 355.81 453.029 355.1 454.149C352.55 458.179 351.62 461.869 351.23 463.459C344.61 490.699 344.13 491.619 344.13 491.619C343.21 496.859 342.32 502.159 341.46 507.549C339.77 518.189 337.47 538.349 336.21 548.539C336.46 549.269 336.9 549.889 337.45 550.369C337.45 550.369 338.32 551.109 339.4 551.259C341.91 551.609 346.29 538.399 346.29 538.399C349.9 527.519 350.89 513.169 350.91 511.669C350.95 508.839 350.69 506.489 350.44 504.859C353.3 499.439 356.16 493.979 359.01 488.499C361.23 484.229 363.43 479.979 365.62 475.729C365.56 485.939 365.57 496.259 365.65 506.689C365.75 519.419 365.95 531.969 366.25 544.359C366.5 544.569 366.9 544.849 367.46 544.999C367.69 545.059 368.37 545.209 369.65 544.769C371.88 543.999 372.62 542.979 372.62 542.979C373.63 537.699 374.93 529.629 375.57 519.689C376.28 508.629 375.25 509.419 375.87 500.479C376.81 486.899 380.41 467.579 379.46 461.299C379.32 460.259 378.46 456.279 377.94 453.999Z" fill="#72594B"/>
<path d="M366.96 398.91C366.23 397.79 365.29 396.09 365.9 395.24C366.43 394.5 367.72 395.02 370.84 395.13C375.33 395.3 375.82 394.53 378.1 395.26C378.79 395.48 381.08 396.21 382.62 398.39C384.78 401.46 383.79 405.3 383.47 406.47C382.24 411.02 378.61 413.33 377.62 413.92C376.81 414.44 375.99 414.96 375.18 415.48C372.88 411.52 370.58 407.56 368.28 403.59L366.96 398.91Z" fill="#172B4D"/>
<path d="M374.87 419.649C371.76 419.649 368.65 419.649 365.55 419.649C366.06 418.459 366.67 416.659 366.88 414.409C367.08 412.219 366.83 410.389 366.56 409.139C368.46 409.049 370.35 408.959 372.25 408.869C372.32 409.199 372.43 409.689 372.59 410.269C372.84 411.169 372.97 411.619 373.21 411.849C373.86 412.459 375.09 412.099 375.46 411.979C375.26 414.539 375.06 417.099 374.87 419.649Z" fill="#543E36"/>
<path d="M376.9 500.469C376.91 500.289 376.92 500.129 376.93 499.939C377.3 494.529 378.1 488.229 378.87 482.129C380.02 473.029 381.11 464.439 380.51 460.529C380.35 459.439 379.46 455.379 378.95 453.169C378.77 452.369 378.53 451.579 378.24 450.809C377.91 449.919 377.51 449.039 377.05 448.209L376.64 447.459L375.82 447.719C375.15 447.929 374.47 448.099 373.78 448.239C373.2 448.349 372.71 448.409 372.38 448.459L372.07 448.499C370.28 448.759 366.76 449.189 356.85 449.939L356.4 449.969L356.12 450.329C355.44 451.179 354.8 452.079 354.22 452.999C351.52 457.269 350.58 461.159 350.22 462.619C344.32 486.919 343.31 490.189 343.18 490.599L343.13 490.689L343.1 490.849C342.71 493.049 342.33 495.279 341.95 497.519C344.92 499.949 349.32 500.649 353.67 500.369C355.76 496.389 357.86 492.409 359.94 488.389C361.48 485.419 363.02 482.459 364.55 479.499C364.52 486.069 364.54 492.669 364.57 499.239C368.51 500.859 372.84 501.179 376.9 500.469Z" fill="url(#paint20_linear_1375_263)"/>
<path d="M376.43 467.669C377.89 465.829 379.02 463.759 379.48 461.279C380.09 457.969 379.39 454.999 378.96 453.169C378.67 451.959 378.28 450.879 378.25 450.809C377.92 449.919 377.52 449.039 377.06 448.209L376.65 447.459L375.83 447.719C375.16 447.929 374.48 448.099 373.79 448.239C373.21 448.349 372.72 448.409 372.39 448.459L372.08 448.499C370.29 448.759 366.77 449.189 356.86 449.939L356.41 449.969L356.13 450.329C355.45 451.179 354.81 452.079 354.23 452.999C350.82 458.399 349.63 465.519 347.97 471.669C346.73 476.269 345.56 480.899 344.47 485.539C344.2 486.699 341.08 496.789 341.97 497.519C344.94 499.949 349.34 500.649 353.69 500.369C355.78 496.389 357.88 492.409 359.96 488.389C362.49 483.519 364.64 478.929 368.69 475.139C371.28 472.709 374.23 470.439 376.43 467.669Z" fill="url(#paint21_linear_1375_263)"/>
<path d="M366.96 398.908C366.52 399.928 366.08 400.958 365.64 401.978C364.32 402.798 363 403.608 361.68 404.428C362 404.998 362.33 405.558 362.65 406.128C362.54 408.158 362.42 410.198 362.31 412.228C363.14 412.828 364.45 413.658 366.2 414.278C366.74 414.468 366.97 414.458 371.75 414.628C373.8 414.698 374.83 414.728 375.29 414.168C375.83 413.518 375.76 412.388 375.45 411.638C375.14 410.878 374.75 410.938 374.4 410.198C373.84 409.038 374.53 408.368 374.18 407.278C373.83 406.198 373.01 406.418 371.73 405.078C370.28 403.568 370.58 402.568 369.14 400.778C368.37 399.828 367.53 399.248 366.96 398.908Z" fill="#72594B"/>
<path d="M332.07 419.639C335.37 421.769 339.47 424.049 344.35 426.059C348.23 427.659 351.85 428.779 355.05 429.579C355.03 432.299 354.92 435.159 354.7 438.159C354.31 443.429 353.62 448.289 352.78 452.679C355.53 453.939 359.54 455.399 364.57 455.989C371.22 456.779 376.68 455.689 379.99 454.759C380.14 448.779 380.87 441.699 382.81 433.949C383.23 432.259 383.69 430.639 384.16 429.089C384.99 426.399 383.99 423.449 381.64 421.899C381.62 421.889 381.61 421.879 381.59 421.869C381.59 421.869 381.2 421.609 380.6 421.249C380.6 421.249 379.5 420.589 378.36 420.019C373.57 417.629 364.82 416.819 364.82 416.819C352.87 415.709 353.28 415.919 350.97 415.549C345.5 414.669 341.17 413.159 338.36 412.019C335.58 403.549 332.8 395.079 330.01 386.619C325.86 387.699 327.54 387.259 323.39 388.339C324.45 393.779 325.81 399.599 327.56 405.709C328.99 410.669 330.51 415.309 332.07 419.639Z" fill="url(#paint22_linear_1375_263)"/>
<path d="M373.05 547.23C370.65 547.23 368.24 547.23 365.84 547.23C365.94 545.99 366.01 544.68 366.03 543.3C366.04 542.44 366.03 541.6 366.01 540.79C367 540.62 368.22 540.49 369.6 540.52C370.84 540.54 371.94 540.68 372.85 540.86C372.71 541.92 372.63 543.18 372.72 544.61C372.78 545.57 372.9 546.45 373.05 547.23Z" fill="#DFE1E5"/>
<path d="M342.15 552.519C339.75 552.519 337.34 552.519 334.94 552.519C335 551.239 336.17 547.339 336.22 546.059C337.53 545.909 338.85 545.749 340.19 545.579C341.38 545.429 342.56 545.269 343.72 545.109C343.4 546.279 343.1 547.519 342.83 548.829C342.56 550.099 342.34 551.339 342.15 552.519Z" fill="#DFE1E5"/>
<path d="M371.73 550.02C369.73 550.02 368.1 551.63 368.06 553.62C369.31 553.62 370.57 553.62 371.82 553.62V550.03C371.79 550.03 371.76 550.02 371.73 550.02Z" fill="#B3BAC5"/>
<path d="M371.46 550.02C373.46 550.02 375.09 551.63 375.13 553.62C373.88 553.62 372.62 553.62 371.37 553.62V550.03C371.4 550.03 371.43 550.02 371.46 550.02Z" fill="#B3BAC5"/>
<path d="M367.33 546.709C367.33 546.719 367.32 546.738 367.31 546.738C367.18 546.798 366.8 545.608 366.26 545.378C365.23 544.918 366.17 547.979 363.89 549.959C362.86 550.849 361.85 551.338 361.05 551.608C360.75 551.708 360.54 552.068 360.54 552.478V553.329H374.33C374.36 552.239 374.3 550.838 373.93 549.248C373.7 548.268 373.4 547.408 373.1 546.698H367.33V546.709Z" fill="#42526E"/>
<path d="M343.34 555.309C341.34 555.309 339.71 556.919 339.67 558.909C340.92 558.909 342.18 558.909 343.43 558.909V555.319C343.41 555.319 343.38 555.309 343.34 555.309Z" fill="#B3BAC5"/>
<path d="M336.43 551.99C336.43 552 336.42 552.02 336.41 552.02C336.28 552.08 335.9 550.89 335.36 550.66C334.33 550.2 332.64 553.26 329.64 555.24C328.28 556.13 326.94 556.62 325.88 556.89C325.48 556.99 325.2 557.35 325.2 557.76V558.61H343.43C343.46 557.52 343.4 556.12 343.03 554.53C342.8 553.55 342.5 552.69 342.2 551.98H336.43V551.99Z" fill="#42526E"/>
<path d="M362.64 406.119C362.53 406.199 362.27 406.419 362.13 406.799C361.97 407.229 362.06 407.609 362.09 407.729C362.47 407.919 362.99 408.139 363.63 408.269C364.08 408.359 364.48 408.389 364.82 408.389C364.79 408.699 364.74 409.119 364.67 409.629C364.49 410.959 364.38 411.089 364.27 411.149C363.85 411.389 362.97 410.889 362.62 410.189C362.46 409.869 362.44 409.569 362.45 409.369C362.25 409.539 361.74 410.019 361.55 410.819C361.3 411.869 361.75 412.729 361.91 412.909C362.51 413.599 363.41 414.369 364.63 414.549C364.8 414.579 364.93 414.579 365.01 414.589C370.2 414.849 370.55 414.849 370.87 414.749C373.8 413.869 373.6 404.899 373.59 404.509C372.51 403.859 371.42 403.199 370.34 402.549C370.46 402.749 371.46 404.389 370.74 406.209C370.63 406.479 370.03 407.999 368.82 408.239C367.56 408.479 366.9 407.099 364.45 406.419C363.69 406.209 363.05 406.149 362.64 406.119Z" fill="#172B4D"/>
</g>
<defs>
<linearGradient id="paint0_linear_1375_263" x1="197.534" y1="106.014" x2="230.872" y2="106.014" gradientUnits="userSpaceOnUse">
<stop stop-color="#344563"/>
<stop offset="0.5204" stop-color="#172B4D"/>
</linearGradient>
<linearGradient id="paint1_linear_1375_263" x1="186.82" y1="92.8257" x2="186.82" y2="83.2744" gradientUnits="userSpaceOnUse">
<stop stop-color="#A17F68"/>
<stop offset="1" stop-color="#916D5A"/>
</linearGradient>
<linearGradient id="paint2_linear_1375_263" x1="148.302" y1="103.48" x2="181.589" y2="103.48" gradientUnits="userSpaceOnUse">
<stop stop-color="#344563"/>
<stop offset="0.5204" stop-color="#091E42"/>
</linearGradient>
<linearGradient id="paint3_linear_1375_263" x1="168.495" y1="114.029" x2="187.149" y2="95.3749" gradientUnits="userSpaceOnUse">
<stop offset="0.4796" stop-color="#172B4D"/>
<stop offset="1" stop-color="#344563"/>
</linearGradient>
<linearGradient id="paint4_linear_1375_263" x1="198.761" y1="119.427" x2="198.761" y2="89.3407" gradientUnits="userSpaceOnUse">
<stop offset="0.4796" stop-color="#172B4D"/>
<stop offset="1" stop-color="#344563"/>
</linearGradient>
<radialGradient id="paint5_radial_1375_263" cx="0" cy="0" r="1" gradientUnits="userSpaceOnUse" gradientTransform="translate(231.328 317.705) scale(96.5182)">
<stop stop-color="#FFF0B2"/>
<stop offset="0.1584" stop-color="#FFE587" stop-opacity="0.8416"/>
<stop offset="0.3589" stop-color="#FFDA57" stop-opacity="0.6411"/>
<stop offset="0.5498" stop-color="#FFD031" stop-opacity="0.4502"/>
<stop offset="0.7256" stop-color="#FFC916" stop-opacity="0.2744"/>
<stop offset="0.8811" stop-color="#FFC506" stop-opacity="0.1189"/>
<stop offset="1" stop-color="#FFC400" stop-opacity="0"/>
</radialGradient>
<linearGradient id="paint6_linear_1375_263" x1="123.676" y1="360.56" x2="103.604" y2="478.272" gradientUnits="userSpaceOnUse">
<stop stop-color="#0747A6"/>
<stop offset="1" stop-color="#0747A6" stop-opacity="0.1"/>
</linearGradient>
<linearGradient id="paint7_linear_1375_263" x1="281.73" y1="349.653" x2="261.657" y2="467.365" gradientUnits="userSpaceOnUse">
<stop stop-color="#008DA6"/>
<stop offset="1" stop-color="#008DA6" stop-opacity="0.1"/>
</linearGradient>
<linearGradient id="paint8_linear_1375_263" x1="309.054" y1="443.404" x2="393.505" y2="358.953" gradientUnits="userSpaceOnUse">
<stop stop-color="#C1C7D0"/>
<stop offset="1" stop-color="#DFE1E5"/>
</linearGradient>
<linearGradient id="paint9_linear_1375_263" x1="294.7" y1="429.05" x2="379.152" y2="344.599" gradientUnits="userSpaceOnUse">
<stop stop-color="#00B8D9"/>
<stop offset="1" stop-color="#79E2F2"/>
</linearGradient>
<linearGradient id="paint10_linear_1375_263" x1="202.587" y1="220.133" x2="182.515" y2="337.845" gradientUnits="userSpaceOnUse">
<stop stop-color="#A5ADBA"/>
<stop offset="1" stop-color="#A5ADBA" stop-opacity="0.1"/>
</linearGradient>
<linearGradient id="paint11_linear_1375_263" x1="230.992" y1="307.644" x2="315.443" y2="223.193" gradientUnits="userSpaceOnUse">
<stop stop-color="#C1C7D0"/>
<stop offset="1" stop-color="#DFE1E5"/>
</linearGradient>
<linearGradient id="paint12_linear_1375_263" x1="45.1299" y1="451.48" x2="25.0574" y2="569.192" gradientUnits="userSpaceOnUse">
<stop stop-color="#0747A6"/>
<stop offset="1" stop-color="#0747A6" stop-opacity="0.1"/>
</linearGradient>
<linearGradient id="paint13_linear_1375_263" x1="201.323" y1="451.471" x2="181.251" y2="569.183" gradientUnits="userSpaceOnUse">
<stop stop-color="#0747A6"/>
<stop offset="1" stop-color="#0747A6" stop-opacity="0.1"/>
</linearGradient>
<linearGradient id="paint14_linear_1375_263" x1="357.645" y1="451.441" x2="337.573" y2="569.153" gradientUnits="userSpaceOnUse">
<stop stop-color="#0747A6"/>
<stop offset="1" stop-color="#0747A6" stop-opacity="0.1"/>
</linearGradient>
<linearGradient id="paint15_linear_1375_263" x1="429.342" y1="537.438" x2="429.342" y2="446.598" gradientUnits="userSpaceOnUse">
<stop stop-color="#0065FF"/>
<stop offset="1" stop-color="#4C9AFF"/>
</linearGradient>
<linearGradient id="paint16_linear_1375_263" x1="326.373" y1="320.21" x2="371.481" y2="320.21" gradientUnits="userSpaceOnUse">
<stop stop-color="#FFF0B2"/>
<stop offset="1" stop-color="#FFC400"/>
</linearGradient>
<linearGradient id="paint17_linear_1375_263" x1="324.096" y1="302.168" x2="338.021" y2="302.168" gradientUnits="userSpaceOnUse">
<stop stop-color="#FFF0B2"/>
<stop offset="1" stop-color="#FFC400"/>
</linearGradient>
<linearGradient id="paint18_linear_1375_263" x1="103.185" y1="322.469" x2="147.527" y2="322.469" gradientUnits="userSpaceOnUse">
<stop stop-color="#FFC400"/>
<stop offset="1" stop-color="#FFF0B2"/>
</linearGradient>
<linearGradient id="paint19_linear_1375_263" x1="-nan" y1="-nan" x2="-nan" y2="-nan" gradientUnits="userSpaceOnUse">
<stop offset="0.5364" stop-color="#C1C7D0"/>
<stop offset="1" stop-color="#C1C7D0" stop-opacity="0"/>
</linearGradient>
<linearGradient id="paint20_linear_1375_263" x1="361.322" y1="500.828" x2="361.322" y2="447.458" gradientUnits="userSpaceOnUse">
<stop stop-color="#FF991F"/>
<stop offset="1" stop-color="#FFC400"/>
</linearGradient>
<linearGradient id="paint21_linear_1375_263" x1="341.802" y1="473.936" x2="379.718" y2="473.936" gradientUnits="userSpaceOnUse">
<stop stop-color="#FF991F"/>
<stop offset="1" stop-color="#FFC400"/>
</linearGradient>
<linearGradient id="paint22_linear_1375_263" x1="320.875" y1="390.862" x2="382.382" y2="452.369" gradientUnits="userSpaceOnUse">
<stop stop-color="#FFF0B2"/>
<stop offset="1" stop-color="#FFC400"/>
</linearGradient>
<clipPath id="clip0_1375_263">
<rect width="468.37" height="558.91" fill="white"/>
</clipPath>
</defs>
</svg>
