<svg width="469" height="559" viewBox="0 0 469 559" fill="none" xmlns="http://www.w3.org/2000/svg">
<g clip-path="url(#clip0)">
<rect width="468.37" height="558.91" fill="white" fill-opacity="0.01"/>
<path d="M229.69 103.77C228.75 103.8 228.07 102.29 227.88 101.29C227.81 100.93 227.6 99.43 228.57 98.14C229.45 96.97 230.3 97.31 231.86 96C233.38 94.71 233.75 93.38 234.18 93.5C234.55 93.6 234.59 94.67 234.37 95.57C233.96 97.25 232.86 97.33 232.16 99.08C231.6 100.48 232.1 100.93 231.33 102.26C231.06 102.71 230.45 103.74 229.69 103.77Z" fill="#A17F68"/>
<path d="M229.52 97.75C229.52 97.75 235.17 97.03 236.19 95.94C237.21 94.84 237.34 93.76 237.95 93.88C238.56 94 237.87 96.14 238.11 96.45C238.36 96.76 238.84 96.62 238.74 97.3C238.64 97.98 238.65 98.79 238.23 99.5C237.81 100.21 235.11 102.76 233.8 103.16C232.5 103.56 229.84 104.53 228.5 104.02C227.15 103.51 228.81 98.74 228.81 98.74L229.52 97.75Z" fill="#A17F68"/>
<path d="M201.23 92.9099C202.16 94.3599 203.08 95.8099 204.02 97.2699C206.47 101.08 208.91 104.86 211.36 108.61C216.85 105.27 222.35 101.93 227.84 98.5899C228.85 101.06 229.86 103.52 230.87 105.99C228.21 108.05 224.27 110.96 219.26 114.19C214.26 117.41 211.91 119.65 208.87 119.02C207.21 118.68 206.18 117.72 204.34 115.98C202.47 114.21 199.76 111.17 197.53 106.4C198.77 101.9 200 97.3999 201.23 92.9099Z" fill="url(#paint0_linear)"/>
<path d="M205.17 149.6H168.89L173.89 119.43H199.17L205.17 149.6Z" fill="#172B4D"/>
<path d="M192.42 89.78C192.22 90.06 190.28 92.74 186.78 92.82C183.48 92.89 181.47 90.6 181.21 90.3C181.47 90.11 181.84 89.8 182.18 89.34C182.18 89.34 182.47 88.95 182.69 88.46C183.05 87.65 183.16 85.94 182.72 83.84C185.7 83.65 188.68 83.46 191.66 83.27C191.56 84.09 191.43 85.23 191.29 86.67C191.21 87.46 191.16 88.09 191.5 88.76C191.76 89.27 192.14 89.59 192.42 89.78Z" fill="url(#paint1_linear)"/>
<path d="M186.89 223.28C187.03 222.76 187.18 222.23 187.32 221.71C189.21 220.91 191.46 219.78 193.83 218.15C195.85 216.77 197.49 215.34 198.79 214.06C200.68 214.2 202.57 214.33 204.46 214.47C204.74 215.56 205 216.8 205.19 218.16C205.38 219.5 205.46 220.73 205.49 221.84C204.33 221.85 203.17 221.86 202.01 221.87C201.69 221.65 201.37 221.43 201.05 221.21C200.82 221.47 200.58 221.74 200.35 222C197.93 222.63 194.99 223.17 191.61 223.32C189.91 223.41 188.33 223.38 186.89 223.28Z" fill="#091E42"/>
<path d="M163.06 220.4C163.27 219.88 163.47 219.36 163.68 218.84C165.21 218.26 167.03 217.43 168.94 216.22C171.61 214.54 173.59 212.69 174.96 211.18C176.77 211.45 178.58 211.73 180.39 212C180.75 212.89 181.11 214 181.35 215.28C181.68 216.99 181.71 218.49 181.65 219.66C180.51 219.77 179.38 219.89 178.24 220C177.9 219.62 177.56 219.25 177.22 218.87C176.81 219.22 176.4 219.56 175.98 219.91C174.9 220.06 173.83 220.2 172.75 220.35C171.47 220.35 170.19 220.34 168.9 220.35C166.95 220.36 165 220.38 163.06 220.4Z" fill="#091E42"/>
<path d="M181.59 89.3901C179.97 89.6601 177.68 90.2901 175.54 91.9101C173.24 93.6501 172.18 95.7501 171.62 96.7601C170.02 99.6401 167.34 103.69 162.63 108.91C159.89 106.55 157.15 104.19 154.41 101.84C152.38 105.17 150.34 108.5 148.31 111.84C150.99 114.16 153.55 115.4 155.24 116.07C157.58 117 159.77 117.86 162.48 117.46C163.44 117.32 165.19 117.03 168.9 114.05C171.02 112.34 173.8 109.9 176.79 106.6C178.38 100.87 179.99 95.1301 181.59 89.3901Z" fill="url(#paint2_linear)"/>
<path d="M177.08 117.53C176.81 119.25 176.42 121.85 176.03 125.03C173.96 142.08 174.53 154.95 174.72 160.55C175.09 171.18 175.16 187.29 173.96 211.84C174.73 211.87 175.53 211.89 176.33 211.89C180.35 211.89 184.05 211.49 187.37 210.86C187.56 192.72 187.75 174.58 187.94 156.44C190.39 175.74 192.84 195.05 195.29 214.35C196.9 214.85 199.18 215.37 201.96 215.41C204.98 215.45 207.45 214.91 209.13 214.4C208.45 204.07 207.52 193.4 206.31 182.42C205.62 176.18 204.86 170.06 204.04 164.07C203.89 159.81 203.64 156.32 203.45 153.94C202.86 146.76 201.95 136.16 198.57 123.41C197.86 120.73 197.2 118.57 196.79 117.27C190.29 117.4 183.59 117.39 177.08 117.53Z" fill="#0049B0"/>
<path d="M191.24 87.78C190.99 88.05 189.43 89.68 186.92 89.67C184.62 89.66 183.15 88.28 182.86 87.99C182.64 88.44 182.42 88.89 182.2 89.33C183.16 91.15 185.02 92.31 187.05 92.36C189.18 92.41 191.18 91.24 192.18 89.33C191.86 88.82 191.55 88.3 191.24 87.78Z" fill="#2684FF"/>
<path d="M178.62 90.1501C180.07 89.5601 181.36 89.3901 182.19 89.3401C182.36 89.6501 183.59 91.8301 186.12 92.2901C188.41 92.7001 190.82 91.5301 192.11 89.3401C192.83 89.4301 194.73 90.2601 196.22 90.4701C196.84 90.5601 197.46 90.6701 198.05 90.8901C198.05 90.8901 200.02 91.4301 201.54 93.3501C203.19 95.4501 202.91 99.6601 200.27 103.35C198.98 107.32 196.7 109.29 195.41 113.26C195.94 114.65 196.47 116.04 197 117.43C193.29 117.48 189.55 117.52 185.78 117.53C182.86 117.54 179.96 117.54 177.08 117.53C176.39 113.04 176.23 112.44 175.24 110.86C175.24 110.86 173.76 108.36 173.07 105.5C172.97 105.08 172.91 104.61 172.9 104.03C172.84 100.84 174.38 100.55 174.69 95.8701C174.78 94.4601 174.72 93.3301 175.54 92.2001C176.35 91.0801 177.59 90.5701 178.62 90.1501Z" fill="#2684FF"/>
<path d="M163.49 109.21H151.94C150.99 109.21 150.15 108.62 149.83 107.72L144.26 92.21C144 91.48 144.54 90.71 145.32 90.71H156.87C157.82 90.71 158.66 91.3 158.98 92.2L164.55 107.71C164.81 108.44 164.27 109.21 163.49 109.21Z" fill="#091E42"/>
<path d="M150.62 102.77C150.44 103.92 149.35 105.17 148.49 105C148 104.91 147.59 104.36 147.45 103.9C147.31 103.43 147.51 103.28 147.32 102.84C147.09 102.33 146.72 102.37 146.56 101.87C146.47 101.61 146.56 101.56 146.56 100.93C146.56 100.1 146.4 100.06 146.48 99.76C146.68 99.05 147.77 98.51 148.49 98.74C148.74 98.82 148.7 98.92 149.12 99.12C149.8 99.45 150.09 99.29 150.34 99.55C150.57 99.79 150.5 100.1 150.49 100.85C150.48 102.19 150.71 102.18 150.62 102.77Z" fill="#A17F68"/>
<path d="M201.35 119.43C201.79 120.29 202.2 121.17 202.61 122.09C206.86 131.75 207.72 141.39 207.23 149.6C202.87 149.6 198.52 149.6 194.16 149.6L192.21 119.43C195.25 119.43 198.3 119.43 201.35 119.43Z" fill="#172B4D"/>
<path d="M190.3 84.4102C191.01 84.0302 191.58 83.6701 191.96 83.4201C192.51 82.9301 193.95 81.5201 194.39 79.2101C194.62 77.9701 194.48 76.9201 194.33 76.2501L194.15 75.3801C193.59 72.6401 191.67 70.3702 189.05 69.3702L188.86 69.3002C188.1 69.0102 187.31 68.8401 186.5 68.7801C186.24 68.7601 185.21 68.7002 184.09 68.9702C182.64 69.3202 180 70.5301 179.04 72.9201C178.8 73.5201 178.61 74.9002 178.23 77.6602C178.2 77.8802 178.13 78.4102 177.95 79.1102C177.75 79.9002 177.52 80.5302 177.35 80.9402C177.76 81.1202 178.17 81.3002 178.58 81.4802C178.68 83.0402 179.06 84.2201 179.38 84.9901C179.68 85.7201 179.86 86.1301 180.28 86.4601C180.77 86.8401 181.47 87.0102 183.84 86.5502C185.63 86.2202 187.72 85.8002 190.3 84.4102Z" fill="#A17F68"/>
<path d="M177.3 74.5001C178.7 74.7001 180.19 74.8601 181.76 74.9701C183.86 75.1201 185.83 75.1601 187.64 75.1201C187.71 80.2601 187.77 85.3901 187.84 90.5301C189.02 89.8001 194.12 86.4601 195.34 80.2201C195.63 78.7501 196.54 74.1201 193.68 70.5601C192.2 68.7201 190.37 67.9801 189.69 67.7101C188.77 67.3501 184.24 65.7301 180.6 68.5001C177.83 70.6101 177.38 73.8101 177.3 74.5001Z" fill="#091E42"/>
<path d="M177.46 78.4802C178.068 78.4802 178.56 77.7952 178.56 76.9502C178.56 76.1052 178.068 75.4202 177.46 75.4202C176.852 75.4202 176.36 76.1052 176.36 76.9502C176.36 77.7952 176.852 78.4802 177.46 78.4802Z" stroke="#DFE1E5" stroke-width="0.4772" stroke-miterlimit="10"/>
<path d="M181.37 78.4802C181.978 78.4802 182.47 77.7952 182.47 76.9502C182.47 76.1052 181.978 75.4202 181.37 75.4202C180.762 75.4202 180.27 76.1052 180.27 76.9502C180.27 77.7952 180.762 78.4802 181.37 78.4802Z" stroke="#DFE1E5" stroke-width="0.4772" stroke-miterlimit="10"/>
<path d="M178.56 76.9502H180.27" stroke="#DFE1E5" stroke-width="0.4772" stroke-miterlimit="10"/>
<path d="M182.48 76.9502H188.69" stroke="#DFE1E5" stroke-width="0.4771" stroke-miterlimit="10" stroke-linecap="round"/>
<path d="M171.83 96.1002C170.72 98.0502 169.29 100.34 167.27 103.34C169.48 108.7 171.68 114.07 173.89 119.43C174.34 119.52 174.81 119.61 175.3 119.68C176.22 119.82 177.09 119.89 177.89 119.93C178.28 118.3 178.77 115.88 178.99 112.91C179.34 108.13 178.71 105.59 178.66 102.22C178.61 99.1402 179.04 94.7902 181.21 89.4402C180.84 89.5102 180.46 89.6002 180.06 89.7002C179.62 89.8202 179.14 89.9602 178.62 90.1402C177.65 90.4402 176.9 90.8102 176.5 91.0202C176.5 91.0202 176.37 91.0902 176.2 91.1802C174.86 91.9602 172 95.8702 171.83 96.1002Z" fill="url(#paint3_linear)"/>
<path d="M206.35 102.22C205.07 105.37 201.47 117.42 201.35 119.43C199.51 119.43 194.05 119.43 192.21 119.43C190.78 113.8 191.07 109.48 191.65 106.49C192.27 103.32 193.29 101.24 193.37 97.3901C193.44 94.0101 192.74 91.2201 192.11 89.3401C192.85 89.4201 193.62 89.5401 194.42 89.6501C195.43 89.7901 196.5 89.9601 197.02 90.1401C198.84 90.8501 200.13 91.6701 200.41 91.8501C201.54 92.6301 205.64 100.06 206.35 102.22Z" fill="url(#paint4_linear)"/>
<path d="M170.34 149.6C172.23 149.57 174.13 149.54 176.02 149.5C176.64 139.64 177.89 119.93 177.89 119.93L175.3 119.68C175.3 119.68 172.03 139.4 170.34 149.6Z" fill="#172B4D"/>
<path opacity="0.38" d="M231.33 414.23C284.637 414.23 327.85 371.016 327.85 317.71C327.85 264.403 284.637 221.19 231.33 221.19C178.024 221.19 134.81 264.403 134.81 317.71C134.81 371.016 178.024 414.23 231.33 414.23Z" fill="url(#paint5_radial)"/>
<path d="M156.12 355.76H78.0601V446.6H156.12V355.76Z" fill="#0052CC"/>
<path opacity="0.7" d="M128.73 419.35C119.85 403.09 124.6 395.76 114.58 380.96C107.56 370.6 96.3699 361.13 84.7699 355.77H78.0699V446.61H156.01C146.21 440.85 135.92 432.51 128.73 419.35Z" fill="url(#paint6_linear)"/>
<path d="M234.18 355.76H156.12V446.6H234.18V355.76Z" fill="#0065FF"/>
<path d="M312.25 355.76H234.19V446.6H312.25V355.76Z" fill="#00B8D9"/>
<path opacity="0.7" d="M312.25 440.5C299.64 435 280.53 426.22 269.18 405.45C260.3 389.19 265.05 381.86 255.03 367.06C252.35 363.1 249.06 359.28 245.37 355.77H234.18V446.61H312.24V440.5H312.25Z" fill="url(#paint7_linear)"/>
<path d="M390.31 355.76H312.25V446.6H390.31V355.76Z" fill="url(#paint8_linear)"/>
<path d="M342.58 390.39C342.6 397.12 342.86 403.84 343.21 410.56C348.13 410.48 356.69 410.45 364.83 410.45C364.88 403.45 365.04 396.44 365.05 389.44C365.05 389.24 378.05 389.16 390.3 389.18V355.75H312.24V390.13C325.68 390.09 342.58 390.16 342.58 390.39Z" fill="url(#paint9_linear)"/>
<path d="M234.18 220H156.12V310.84H234.18V220Z" fill="#C1C7D0"/>
<path d="M234.19 309.71C221.96 304.05 206.24 295.06 196.37 277C187.49 260.74 192.24 253.41 182.22 238.61C177.53 231.69 170.98 225.17 163.69 220H156.12V310.84H234.18V309.71H234.19Z" fill="url(#paint10_linear)"/>
<path d="M312.25 220H234.19V310.84H312.25V220Z" fill="url(#paint11_linear)"/>
<path d="M120.43 340.13H90.39V355.76H120.43V340.13Z" fill="#0052CC"/>
<path d="M171.15 340.13H141.11V355.76H171.15V340.13Z" fill="#0052CC"/>
<path d="M221.86 340.13H191.82V355.76H221.86V340.13Z" fill="#0052CC"/>
<path d="M78.06 446.6H0V537.44H78.06V446.6Z" fill="#0052CC"/>
<path opacity="0.7" d="M49.71 510.19C40.83 493.93 45.58 486.6 35.56 471.8C28.54 461.44 17.35 451.97 5.75 446.61H0V537.45H76.99C67.2 531.69 56.9 523.35 49.71 510.19Z" fill="url(#paint12_linear)"/>
<path d="M156.12 446.6H78.0601V537.44H156.12V446.6Z" fill="#0065FF"/>
<path d="M42.37 430.97H12.33V446.6H42.37V430.97Z" fill="#0052CC"/>
<path d="M93.08 430.97H63.04V446.6H93.08V430.97Z" fill="#0052CC"/>
<path d="M143.8 430.97H113.76V446.6H143.8V430.97Z" fill="#0052CC"/>
<path d="M276.56 340.13H246.52V355.76H276.56V340.13Z" fill="#00C7E5"/>
<path d="M327.27 340.13H297.23V355.76H327.27V340.13Z" fill="#00C7E5"/>
<path d="M377.98 340.13H347.94V355.76H377.98V340.13Z" fill="#00C7E5"/>
<path d="M234.18 446.6H156.12V537.44H234.18V446.6Z" fill="#0052CC"/>
<path opacity="0.7" d="M205.99 510.19C197.11 493.93 201.86 486.6 191.84 471.8C184.82 461.44 173.63 451.97 162.03 446.61H156.13V537.45H233.27C223.48 531.69 213.18 523.35 205.99 510.19Z" fill="url(#paint13_linear)"/>
<path d="M312.25 446.6H234.19V537.44H312.25V446.6Z" fill="#0065FF"/>
<path d="M390.31 446.6H312.25V537.44H390.31V446.6Z" fill="#0052CC"/>
<path opacity="0.7" d="M362.51 510.19C353.63 493.93 358.38 486.6 348.36 471.8C341.34 461.44 330.15 451.97 318.55 446.61H312.26V537.45H389.8C380 531.69 369.7 523.35 362.51 510.19Z" fill="url(#paint14_linear)"/>
<path d="M468.37 446.6H390.31V537.44H468.37V446.6Z" fill="url(#paint15_linear)"/>
<path d="M198.49 430.97H168.45V446.6H198.49V430.97Z" fill="#0052CC"/>
<path d="M249.21 430.97H219.17V446.6H249.21V430.97Z" fill="#0052CC"/>
<path d="M299.92 430.97H269.88V446.6H299.92V430.97Z" fill="#0052CC"/>
<path d="M354.62 430.97H324.58V446.6H354.62V430.97Z" fill="#0052CC"/>
<path d="M405.33 430.97H375.29V446.6H405.33V430.97Z" fill="#0052CC"/>
<path d="M456.05 430.97H426.01V446.6H456.05V430.97Z" fill="#0052CC"/>
<path d="M249.21 204.37H219.17V220H249.21V204.37Z" fill="#C1C7D0"/>
<path d="M350.56 328.76L371.23 315.96C371.71 315.66 371.46 314.92 370.9 314.97L348.63 317.21L348.11 312.06C348.07 311.67 347.63 311.45 347.3 311.66L326.63 324.46C326.15 324.76 326.4 325.5 326.96 325.45L349.23 323.21L349.75 328.36C349.79 328.75 350.22 328.96 350.56 328.76Z" fill="url(#paint16_linear)"/>
<path d="M334.41 304.86L338.01 293.28C338.08 293.04 337.79 292.87 337.61 293.05L329.97 301.15L328.09 299.37C327.96 299.25 327.76 299.31 327.7 299.47L324.1 311.05C324.03 311.29 324.32 311.46 324.5 311.28L332.14 303.18L334.02 304.96C334.15 305.08 334.36 305.03 334.41 304.86Z" fill="url(#paint17_linear)"/>
<path d="M127.95 314.16L103.69 315.7C103.12 315.74 103 316.51 103.52 316.73L124.21 325.25L122.24 330.03C122.09 330.4 122.37 330.79 122.77 330.77L147.03 329.23C147.6 329.19 147.72 328.42 147.2 328.2L126.51 319.68L128.48 314.9C128.62 314.53 128.34 314.14 127.95 314.16Z" fill="url(#paint18_linear)"/>
<path d="M234.19 117.42V0" stroke="url(#paint19_linear)" stroke-width="4.8539" stroke-miterlimit="10"/>
<path d="M234.19 166.27L156.12 220V308.56" stroke="#DFE1E5" stroke-width="4.8539" stroke-miterlimit="10" stroke-linecap="round" stroke-linejoin="round"/>
<path d="M225.59 162.93C225.59 168.24 230.41 172.43 235.91 171.36C239.26 170.71 241.96 168.01 242.61 164.66C243.56 159.79 240.39 155.46 235.97 154.53C234.93 154.31 234.18 153.4 234.18 152.34V145.15" stroke="#0065FF" stroke-width="4.021" stroke-miterlimit="10" stroke-linecap="round" stroke-linejoin="round"/>
<path d="M234.19 130.18C237.714 130.18 240.57 127.324 240.57 123.8C240.57 120.276 237.714 117.42 234.19 117.42C230.666 117.42 227.81 120.276 227.81 123.8C227.81 127.324 230.666 130.18 234.19 130.18Z" stroke="#0065FF" stroke-width="4.021" stroke-miterlimit="10" stroke-linecap="round" stroke-linejoin="round"/>
<path d="M235.88 146.1H232.5C230.35 146.1 228.54 144.47 228.32 142.33L227.19 131.45C226.93 128.97 228.88 126.81 231.37 126.81H237.02C239.51 126.81 241.46 128.97 241.2 131.45L240.07 142.33C239.83 144.47 238.03 146.1 235.88 146.1Z" fill="#0065FF"/>
<path d="M198.49 204.37H168.45V220H198.49V204.37Z" fill="#C1C7D0"/>
<path d="M312.25 308.56V220L234.19 166.27" stroke="#DFE1E5" stroke-width="4.8539" stroke-miterlimit="10" stroke-linecap="round" stroke-linejoin="round"/>
<path d="M299.92 204.37H269.88V220H299.92V204.37Z" fill="#C1C7D0"/>
<path d="M325.66 384.85V375.83H315.75V369.51H339.7" stroke="#CFD4DB" stroke-width="2.1306" stroke-miterlimit="10" stroke-linecap="round" stroke-linejoin="round"/>
<path d="M337.64 372.81H319.7C318.61 372.81 317.73 371.93 317.73 370.84V368.72C317.73 367.63 318.61 366.75 319.7 366.75H337.64C338.73 366.75 339.61 367.63 339.61 368.72V370.84C339.61 371.93 338.73 372.81 337.64 372.81Z" fill="#344563"/>
<path d="M325.26 389.78C326.21 390.03 327.39 389.81 328.25 389.17C331.29 386.91 328.54 378.11 327.59 378.22C327.44 378.24 325.49 377.95 325.33 377.97C325.16 377.99 323.21 379.07 323.08 379.19C322.34 379.87 322.41 381.27 322.35 382.51C322.3 383.68 322.56 384.83 323.12 385.86L325.26 389.78Z" fill="#72594B"/>
<path d="M383.89 424.57C384.02 424.98 384.2 425.61 384.39 426.38C384.95 428.61 385.3 430.9 385.6 437.25C385.85 442.59 385.6 440.98 385.79 443.68C385.99 446.56 386.28 448.5 385.22 450.64C384.82 451.44 384.35 452.03 384.02 452.4L365.54 469.66C363.95 468.59 362.36 467.53 360.77 466.46C366.73 459.95 372.68 453.45 378.64 446.95L375.65 424.51L379.95 423.37L383.89 424.57Z" fill="#FFAB00"/>
<path d="M377.94 454C377.78 453.33 377.57 452.57 377.27 451.77C376.92 450.82 376.52 450 376.14 449.31C375.68 449.45 374.93 449.67 373.99 449.85C373.18 450.01 372.56 450.07 372.23 450.12C370.33 450.39 366.71 450.83 356.94 451.57C356.47 452.15 355.81 453.03 355.1 454.15C352.55 458.18 351.62 461.87 351.23 463.46C344.61 490.7 344.13 491.62 344.13 491.62C343.21 496.86 342.32 502.16 341.46 507.55C339.77 518.19 337.47 538.35 336.21 548.54C336.46 549.27 336.9 549.89 337.45 550.37C337.45 550.37 338.32 551.11 339.4 551.26C341.91 551.61 346.29 538.4 346.29 538.4C349.9 527.52 350.89 513.17 350.91 511.67C350.95 508.84 350.69 506.49 350.44 504.86C353.3 499.44 356.16 493.98 359.01 488.5C361.23 484.23 363.43 479.98 365.62 475.73C365.56 485.94 365.57 496.26 365.65 506.69C365.75 519.42 365.95 531.97 366.25 544.36C366.5 544.57 366.9 544.85 367.46 545C367.69 545.06 368.37 545.21 369.65 544.77C371.88 544 372.62 542.98 372.62 542.98C373.63 537.7 374.93 529.63 375.57 519.69C376.28 508.63 375.25 509.42 375.87 500.48C376.81 486.9 380.41 467.58 379.46 461.3C379.32 460.26 378.46 456.28 377.94 454Z" fill="#72594B"/>
<path d="M366.96 398.91C366.23 397.79 365.29 396.09 365.9 395.24C366.43 394.5 367.72 395.02 370.84 395.13C375.33 395.3 375.82 394.53 378.1 395.26C378.79 395.48 381.08 396.21 382.62 398.39C384.78 401.46 383.79 405.3 383.47 406.47C382.24 411.02 378.61 413.33 377.62 413.92C376.81 414.44 375.99 414.96 375.18 415.48C372.88 411.52 370.58 407.56 368.28 403.59L366.96 398.91Z" fill="#172B4D"/>
<path d="M374.87 419.65C371.76 419.65 368.65 419.65 365.55 419.65C366.06 418.46 366.67 416.66 366.88 414.41C367.08 412.22 366.83 410.39 366.56 409.14C368.46 409.05 370.35 408.96 372.25 408.87C372.32 409.2 372.43 409.69 372.59 410.27C372.84 411.17 372.97 411.62 373.21 411.85C373.86 412.46 375.09 412.1 375.46 411.98C375.26 414.54 375.06 417.1 374.87 419.65Z" fill="#543E36"/>
<path d="M376.9 500.47C376.91 500.29 376.92 500.13 376.93 499.94C377.3 494.53 378.1 488.23 378.87 482.13C380.02 473.03 381.11 464.44 380.51 460.53C380.35 459.44 379.46 455.38 378.95 453.17C378.77 452.37 378.53 451.58 378.24 450.81C377.91 449.92 377.51 449.04 377.05 448.21L376.64 447.46L375.82 447.72C375.15 447.93 374.47 448.1 373.78 448.24C373.2 448.35 372.71 448.41 372.38 448.46L372.07 448.5C370.28 448.76 366.76 449.19 356.85 449.94L356.4 449.97L356.12 450.33C355.44 451.18 354.8 452.08 354.22 453C351.52 457.27 350.58 461.16 350.22 462.62C344.32 486.92 343.31 490.19 343.18 490.6L343.13 490.69L343.1 490.85C342.71 493.05 342.33 495.28 341.95 497.52C344.92 499.95 349.32 500.65 353.67 500.37C355.76 496.39 357.86 492.41 359.94 488.39C361.48 485.42 363.02 482.46 364.55 479.5C364.52 486.07 364.54 492.67 364.57 499.24C368.51 500.86 372.84 501.18 376.9 500.47Z" fill="url(#paint20_linear)"/>
<path d="M376.43 467.67C377.89 465.83 379.02 463.76 379.48 461.28C380.09 457.97 379.39 455 378.96 453.17C378.67 451.96 378.28 450.88 378.25 450.81C377.92 449.92 377.52 449.04 377.06 448.21L376.65 447.46L375.83 447.72C375.16 447.93 374.48 448.1 373.79 448.24C373.21 448.35 372.72 448.41 372.39 448.46L372.08 448.5C370.29 448.76 366.77 449.19 356.86 449.94L356.41 449.97L356.13 450.33C355.45 451.18 354.81 452.08 354.23 453C350.82 458.4 349.63 465.52 347.97 471.67C346.73 476.27 345.56 480.9 344.47 485.54C344.2 486.7 341.08 496.79 341.97 497.52C344.94 499.95 349.34 500.65 353.69 500.37C355.78 496.39 357.88 492.41 359.96 488.39C362.49 483.52 364.64 478.93 368.69 475.14C371.28 472.71 374.23 470.44 376.43 467.67Z" fill="url(#paint21_linear)"/>
<path d="M366.96 398.91C366.52 399.93 366.08 400.96 365.64 401.98C364.32 402.8 363 403.61 361.68 404.43C362 405 362.33 405.56 362.65 406.13C362.54 408.16 362.42 410.2 362.31 412.23C363.14 412.83 364.45 413.66 366.2 414.28C366.74 414.47 366.97 414.46 371.75 414.63C373.8 414.7 374.83 414.73 375.29 414.17C375.83 413.52 375.76 412.39 375.45 411.64C375.14 410.88 374.75 410.94 374.4 410.2C373.84 409.04 374.53 408.37 374.18 407.28C373.83 406.2 373.01 406.42 371.73 405.08C370.28 403.57 370.58 402.57 369.14 400.78C368.37 399.83 367.53 399.25 366.96 398.91Z" fill="#72594B"/>
<path d="M332.07 419.64C335.37 421.77 339.47 424.05 344.35 426.06C348.23 427.66 351.85 428.78 355.05 429.58C355.03 432.3 354.92 435.16 354.7 438.16C354.31 443.43 353.62 448.29 352.78 452.68C355.53 453.94 359.54 455.4 364.57 455.99C371.22 456.78 376.68 455.69 379.99 454.76C380.14 448.78 380.87 441.7 382.81 433.95C383.23 432.26 383.69 430.64 384.16 429.09C384.99 426.4 383.99 423.45 381.64 421.9C381.62 421.89 381.61 421.88 381.59 421.87C381.59 421.87 381.2 421.61 380.6 421.25C380.6 421.25 379.5 420.59 378.36 420.02C373.57 417.63 364.82 416.82 364.82 416.82C352.87 415.71 353.28 415.92 350.97 415.55C345.5 414.67 341.17 413.16 338.36 412.02C335.58 403.55 332.8 395.08 330.01 386.62C325.86 387.7 327.54 387.26 323.39 388.34C324.45 393.78 325.81 399.6 327.56 405.71C328.99 410.67 330.51 415.31 332.07 419.64Z" fill="url(#paint22_linear)"/>
<path d="M373.05 547.23C370.65 547.23 368.24 547.23 365.84 547.23C365.94 545.99 366.01 544.68 366.03 543.3C366.04 542.44 366.03 541.6 366.01 540.79C367 540.62 368.22 540.49 369.6 540.52C370.84 540.54 371.94 540.68 372.85 540.86C372.71 541.92 372.63 543.18 372.72 544.61C372.78 545.57 372.9 546.45 373.05 547.23Z" fill="#DFE1E5"/>
<path d="M342.15 552.52C339.75 552.52 337.34 552.52 334.94 552.52C335 551.24 336.17 547.34 336.22 546.06C337.53 545.91 338.85 545.75 340.19 545.58C341.38 545.43 342.56 545.27 343.72 545.11C343.4 546.28 343.1 547.52 342.83 548.83C342.56 550.1 342.34 551.34 342.15 552.52Z" fill="#DFE1E5"/>
<path d="M371.73 550.02C369.73 550.02 368.1 551.63 368.06 553.62C369.31 553.62 370.57 553.62 371.82 553.62V550.03C371.79 550.03 371.76 550.02 371.73 550.02Z" fill="#B3BAC5"/>
<path d="M371.46 550.02C373.46 550.02 375.09 551.63 375.13 553.62C373.88 553.62 372.62 553.62 371.37 553.62V550.03C371.4 550.03 371.43 550.02 371.46 550.02Z" fill="#B3BAC5"/>
<path d="M367.33 546.71C367.33 546.72 367.32 546.74 367.31 546.74C367.18 546.8 366.8 545.61 366.26 545.38C365.23 544.92 366.17 547.98 363.89 549.96C362.86 550.85 361.85 551.34 361.05 551.61C360.75 551.71 360.54 552.07 360.54 552.48V553.33H374.33C374.36 552.24 374.3 550.84 373.93 549.25C373.7 548.27 373.4 547.41 373.1 546.7H367.33V546.71Z" fill="#42526E"/>
<path d="M343.34 555.31C341.34 555.31 339.71 556.92 339.67 558.91C340.92 558.91 342.18 558.91 343.43 558.91V555.32C343.41 555.32 343.38 555.31 343.34 555.31Z" fill="#B3BAC5"/>
<path d="M336.43 551.99C336.43 552 336.42 552.02 336.41 552.02C336.28 552.08 335.9 550.89 335.36 550.66C334.33 550.2 332.64 553.26 329.64 555.24C328.28 556.13 326.94 556.62 325.88 556.89C325.48 556.99 325.2 557.35 325.2 557.76V558.61H343.43C343.46 557.52 343.4 556.12 343.03 554.53C342.8 553.55 342.5 552.69 342.2 551.98H336.43V551.99Z" fill="#42526E"/>
<path d="M362.64 406.12C362.53 406.2 362.27 406.42 362.13 406.8C361.97 407.23 362.06 407.61 362.09 407.73C362.47 407.92 362.99 408.14 363.63 408.27C364.08 408.36 364.48 408.39 364.82 408.39C364.79 408.7 364.74 409.12 364.67 409.63C364.49 410.96 364.38 411.09 364.27 411.15C363.85 411.39 362.97 410.89 362.62 410.19C362.46 409.87 362.44 409.57 362.45 409.37C362.25 409.54 361.74 410.02 361.55 410.82C361.3 411.87 361.75 412.73 361.91 412.91C362.51 413.6 363.41 414.37 364.63 414.55C364.8 414.58 364.93 414.58 365.01 414.59C370.2 414.85 370.55 414.85 370.87 414.75C373.8 413.87 373.6 404.9 373.59 404.51C372.51 403.86 371.42 403.2 370.34 402.55C370.46 402.75 371.46 404.39 370.74 406.21C370.63 406.48 370.03 408 368.82 408.24C367.56 408.48 366.9 407.1 364.45 406.42C363.69 406.21 363.05 406.15 362.64 406.12Z" fill="#172B4D"/>
</g>
<defs>
<linearGradient id="paint0_linear" x1="197.534" y1="106.014" x2="230.872" y2="106.014" gradientUnits="userSpaceOnUse">
<stop stop-color="#344563"/>
<stop offset="0.5204" stop-color="#172B4D"/>
</linearGradient>
<linearGradient id="paint1_linear" x1="186.819" y1="92.8262" x2="186.819" y2="83.2749" gradientUnits="userSpaceOnUse">
<stop stop-color="#A17F68"/>
<stop offset="1" stop-color="#916D5A"/>
</linearGradient>
<linearGradient id="paint2_linear" x1="148.302" y1="103.481" x2="181.589" y2="103.481" gradientUnits="userSpaceOnUse">
<stop stop-color="#344563"/>
<stop offset="0.5204" stop-color="#091E42"/>
</linearGradient>
<linearGradient id="paint3_linear" x1="168.495" y1="114.03" x2="187.149" y2="95.3757" gradientUnits="userSpaceOnUse">
<stop offset="0.4796" stop-color="#172B4D"/>
<stop offset="1" stop-color="#344563"/>
</linearGradient>
<linearGradient id="paint4_linear" x1="198.761" y1="119.427" x2="198.761" y2="89.341" gradientUnits="userSpaceOnUse">
<stop offset="0.4796" stop-color="#172B4D"/>
<stop offset="1" stop-color="#344563"/>
</linearGradient>
<radialGradient id="paint5_radial" cx="0" cy="0" r="1" gradientUnits="userSpaceOnUse" gradientTransform="translate(231.328 317.705) scale(96.5182)">
<stop stop-color="#FFF0B2"/>
<stop offset="0.1584" stop-color="#FFE587" stop-opacity="0.8416"/>
<stop offset="0.3589" stop-color="#FFDA57" stop-opacity="0.6411"/>
<stop offset="0.5498" stop-color="#FFD031" stop-opacity="0.4502"/>
<stop offset="0.7256" stop-color="#FFC916" stop-opacity="0.2744"/>
<stop offset="0.8811" stop-color="#FFC506" stop-opacity="0.1189"/>
<stop offset="1" stop-color="#FFC400" stop-opacity="0"/>
</radialGradient>
<linearGradient id="paint6_linear" x1="123.676" y1="360.561" x2="103.604" y2="478.273" gradientUnits="userSpaceOnUse">
<stop stop-color="#0747A6"/>
<stop offset="1" stop-color="#0747A6" stop-opacity="0.1"/>
</linearGradient>
<linearGradient id="paint7_linear" x1="281.73" y1="349.654" x2="261.657" y2="467.366" gradientUnits="userSpaceOnUse">
<stop stop-color="#008DA6"/>
<stop offset="1" stop-color="#008DA6" stop-opacity="0.1"/>
</linearGradient>
<linearGradient id="paint8_linear" x1="309.054" y1="443.404" x2="393.505" y2="358.953" gradientUnits="userSpaceOnUse">
<stop stop-color="#C1C7D0"/>
<stop offset="1" stop-color="#DFE1E5"/>
</linearGradient>
<linearGradient id="paint9_linear" x1="294.7" y1="429.05" x2="379.152" y2="344.599" gradientUnits="userSpaceOnUse">
<stop stop-color="#00B8D9"/>
<stop offset="1" stop-color="#79E2F2"/>
</linearGradient>
<linearGradient id="paint10_linear" x1="202.587" y1="220.133" x2="182.514" y2="337.845" gradientUnits="userSpaceOnUse">
<stop stop-color="#A5ADBA"/>
<stop offset="1" stop-color="#A5ADBA" stop-opacity="0.1"/>
</linearGradient>
<linearGradient id="paint11_linear" x1="230.992" y1="307.644" x2="315.443" y2="223.193" gradientUnits="userSpaceOnUse">
<stop stop-color="#C1C7D0"/>
<stop offset="1" stop-color="#DFE1E5"/>
</linearGradient>
<linearGradient id="paint12_linear" x1="45.1299" y1="451.48" x2="25.0574" y2="569.193" gradientUnits="userSpaceOnUse">
<stop stop-color="#0747A6"/>
<stop offset="1" stop-color="#0747A6" stop-opacity="0.1"/>
</linearGradient>
<linearGradient id="paint13_linear" x1="201.324" y1="451.471" x2="181.251" y2="569.183" gradientUnits="userSpaceOnUse">
<stop stop-color="#0747A6"/>
<stop offset="1" stop-color="#0747A6" stop-opacity="0.1"/>
</linearGradient>
<linearGradient id="paint14_linear" x1="357.645" y1="451.441" x2="337.573" y2="569.153" gradientUnits="userSpaceOnUse">
<stop stop-color="#0747A6"/>
<stop offset="1" stop-color="#0747A6" stop-opacity="0.1"/>
</linearGradient>
<linearGradient id="paint15_linear" x1="429.342" y1="537.439" x2="429.342" y2="446.598" gradientUnits="userSpaceOnUse">
<stop stop-color="#0065FF"/>
<stop offset="1" stop-color="#4C9AFF"/>
</linearGradient>
<linearGradient id="paint16_linear" x1="326.373" y1="320.211" x2="371.481" y2="320.211" gradientUnits="userSpaceOnUse">
<stop stop-color="#FFF0B2"/>
<stop offset="1" stop-color="#FFC400"/>
</linearGradient>
<linearGradient id="paint17_linear" x1="324.096" y1="302.168" x2="338.021" y2="302.168" gradientUnits="userSpaceOnUse">
<stop stop-color="#FFF0B2"/>
<stop offset="1" stop-color="#FFC400"/>
</linearGradient>
<linearGradient id="paint18_linear" x1="103.185" y1="322.468" x2="147.527" y2="322.468" gradientUnits="userSpaceOnUse">
<stop stop-color="#FFC400"/>
<stop offset="1" stop-color="#FFF0B2"/>
</linearGradient>
<linearGradient id="paint19_linear" x1="-nan" y1="-nan" x2="-nan" y2="-nan" gradientUnits="userSpaceOnUse">
<stop offset="0.5364" stop-color="#C1C7D0"/>
<stop offset="1" stop-color="#C1C7D0" stop-opacity="0"/>
</linearGradient>
<linearGradient id="paint20_linear" x1="361.322" y1="500.829" x2="361.322" y2="447.46" gradientUnits="userSpaceOnUse">
<stop stop-color="#FF991F"/>
<stop offset="1" stop-color="#FFC400"/>
</linearGradient>
<linearGradient id="paint21_linear" x1="341.802" y1="473.937" x2="379.718" y2="473.937" gradientUnits="userSpaceOnUse">
<stop stop-color="#FF991F"/>
<stop offset="1" stop-color="#FFC400"/>
</linearGradient>
<linearGradient id="paint22_linear" x1="320.875" y1="390.863" x2="382.382" y2="452.37" gradientUnits="userSpaceOnUse">
<stop stop-color="#FFF0B2"/>
<stop offset="1" stop-color="#FFC400"/>
</linearGradient>
<clipPath id="clip0">
<rect width="468.37" height="558.91" fill="white"/>
</clipPath>
</defs>
</svg>
