<svg width="18" height="17" viewBox="0 0 18 17" fill="none" xmlns="http://www.w3.org/2000/svg">
  <path fill-rule="evenodd" clip-rule="evenodd" d="M8.062 0.966986C8.578 -0.00701386 9.42 -0.0110139 9.938 0.966986L17.062 14.425C17.578 15.399 17.107 16.196 16.005 16.196H1.995C0.893 16.196 0.42 15.403 0.938 14.425L8.062 0.966986ZM8.29289 10.7071C8.48043 10.8946 8.73478 11 9 11C9.26522 11 9.51957 10.8946 9.70711 10.7071C9.89464 10.5196 10 10.2652 10 9.99998V4.99998C10 4.73477 9.89464 4.48041 9.70711 4.29288C9.51957 4.10534 9.26522 3.99998 9 3.99998C8.73478 3.99998 8.48043 4.10534 8.29289 4.29288C8.10536 4.48041 8 4.73477 8 4.99998V9.99998C8 10.2652 8.10536 10.5196 8.29289 10.7071ZM8.29289 13.7071C8.48043 13.8946 8.73478 14 9 14C9.26522 14 9.51957 13.8946 9.70711 13.7071C9.89464 13.5196 10 13.2652 10 13C10 12.7348 9.89464 12.4804 9.70711 12.2929C9.51957 12.1053 9.26522 12 9 12C8.73478 12 8.48043 12.1053 8.29289 12.2929C8.10536 12.4804 8 12.7348 8 13C8 13.2652 8.10536 13.5196 8.29289 13.7071Z" fill="#FF8B00"/>
</svg>
